<?xml version="1.0" encoding="utf-8"?>
<!-- Generator: Adobe Illustrator 23.0.0, SVG Export Plug-In . SVG Version: 6.00 Build 0)  -->
<svg version="1.1" id="Capa_1" xmlns="http://www.w3.org/2000/svg" xmlns:xlink="http://www.w3.org/1999/xlink" x="0px" y="0px"
	 viewBox="0 0 1194 495" style="enable-background:new 0 0 1194 495;" xml:space="preserve">
<style type="text/css">
	.st0{opacity:0.31;}
	.st1{clip-path:url(#SVGID_6_);fill:none;}
	.st2{fill:#D20F12;}
	.st3{fill:url(#SVGID_13_);}
	.st4{clip-path:url(#SVGID_15_);}
	.st5{fill:#FA060A;}
	.st6{fill:#16348F;}
	.st7{fill:#FFFFFF;}
	.st8{fill:url(#SVGID_20_);}
	.st9{fill:url(#SVGID_23_);}
	.st10{fill:none;stroke:#FFFFFF;stroke-width:10.2498;stroke-miterlimit:10;}
	.st11{fill:url(#SVGID_24_);}
	.st12{fill:url(#SVGID_25_);}
	.st13{fill:url(#SVGID_26_);}
	.st14{fill:url(#SVGID_27_);}
	.st15{fill:url(#SVGID_28_);}
	.st16{fill:url(#SVGID_29_);}
	.st17{fill:url(#SVGID_30_);}
	.st18{opacity:0.15;}
	.st19{fill:url(#SVGID_33_);}
	.st20{fill:url(#SVGID_34_);}
	.st21{fill:url(#SVGID_35_);}
	.st22{fill:url(#SVGID_36_);}
	.st23{fill:url(#SVGID_37_);}
	.st24{fill:url(#SVGID_38_);}
	.st25{fill:url(#SVGID_39_);}
	.st26{fill:url(#SVGID_40_);}
	.st27{fill:url(#SVGID_41_);}
	.st28{fill:url(#SVGID_42_);}
	.st29{fill:url(#SVGID_43_);}
	.st30{fill:url(#SVGID_44_);}
	.st31{fill:url(#SVGID_45_);}
	.st32{fill:url(#SVGID_46_);}
	.st33{fill:url(#SVGID_47_);}
	.st34{fill:url(#SVGID_48_);}
	.st35{fill:url(#SVGID_49_);}
	.st36{fill:url(#SVGID_50_);}
	.st37{fill:url(#SVGID_51_);}
	.st38{fill:url(#SVGID_52_);}
	.st39{fill:url(#SVGID_53_);}
	.st40{fill:url(#SVGID_54_);}
	.st41{fill:url(#SVGID_55_);}
	.st42{fill:url(#SVGID_56_);}
	.st43{fill:url(#SVGID_57_);}
	.st44{fill:url(#SVGID_58_);}
	.st45{fill:url(#SVGID_59_);}
	.st46{fill:url(#SVGID_60_);}
	.st47{fill:url(#SVGID_61_);}
	.st48{fill:url(#SVGID_62_);}
	.st49{fill:url(#SVGID_63_);}
	.st50{fill:url(#SVGID_64_);}
	.st51{fill:url(#SVGID_65_);}
	.st52{fill:url(#SVGID_66_);}
	.st53{fill:url(#SVGID_67_);}
	.st54{fill:url(#SVGID_68_);}
	.st55{fill:url(#SVGID_69_);}
	.st56{fill:url(#SVGID_70_);}
	.st57{fill:url(#SVGID_71_);}
	.st58{fill:url(#SVGID_72_);}
	.st59{fill:none;}
	.st60{fill:url(#SVGID_73_);}
	.st61{fill:none;stroke:#000000;stroke-miterlimit:10;}
	.st62{fill:#606060;}
	.st63{fill:url(#SVGID_78_);}
	.st64{fill:url(#SVGID_79_);}
	.st65{fill:url(#SVGID_80_);}
	.st66{fill:url(#SVGID_81_);}
	.st67{fill:url(#SVGID_82_);}
	.st68{fill:url(#SVGID_83_);}
	.st69{fill:url(#SVGID_84_);}
	.st70{fill:url(#SVGID_85_);}
	.st71{fill:url(#SVGID_86_);}
	.st72{fill:url(#SVGID_87_);}
	.st73{fill:url(#SVGID_88_);}
	.st74{fill:url(#SVGID_89_);}
	.st75{fill:url(#SVGID_90_);}
	.st76{fill:url(#SVGID_91_);}
	.st77{fill:url(#SVGID_92_);}
	.st78{fill:url(#SVGID_93_);}
	.st79{fill:url(#SVGID_94_);}
	.st80{fill:url(#SVGID_95_);}
	.st81{fill:url(#SVGID_96_);}
	.st82{fill:url(#SVGID_97_);}
	.st83{fill:url(#SVGID_98_);}
	.st84{fill:url(#SVGID_99_);}
	.st85{fill:url(#SVGID_100_);}
	.st86{fill:url(#SVGID_101_);}
	.st87{fill:url(#SVGID_102_);}
	.st88{fill:url(#SVGID_107_);}
	.st89{fill:url(#SVGID_110_);}
	.st90{clip-path:url(#SVGID_112_);fill:none;}
	.st91{fill:url(#SVGID_113_);}
	.st92{fill:url(#SVGID_114_);}
	.st93{fill:url(#SVGID_115_);}
	.st94{fill:url(#SVGID_118_);}
	.st95{clip-path:url(#SVGID_120_);fill:none;}
	.st96{fill:url(#SVGID_121_);}
	.st97{fill:url(#SVGID_122_);}
	.st98{opacity:0.8;}
	.st99{fill:#FA0009;}
	.st100{fill:url(#SVGID_123_);}
	.st101{fill:url(#SVGID_124_);}
	.st102{fill:url(#SVGID_125_);}
	.st103{fill:url(#SVGID_126_);}
	.st104{fill:url(#SVGID_127_);}
	.st105{fill:url(#SVGID_128_);}
	.st106{fill:url(#SVGID_129_);}
	.st107{fill:url(#SVGID_130_);}
	.st108{fill:url(#SVGID_131_);}
	.st109{fill:url(#SVGID_132_);}
	.st110{fill:url(#SVGID_133_);}
	.st111{fill:url(#SVGID_134_);}
	.st112{fill:url(#SVGID_135_);}
	.st113{fill:url(#SVGID_136_);}
	.st114{fill:url(#SVGID_137_);}
	.st115{fill:url(#SVGID_138_);}
	.st116{fill:url(#SVGID_139_);}
	.st117{fill:url(#SVGID_140_);}
	.st118{fill:url(#SVGID_141_);}
	.st119{fill:url(#SVGID_142_);}
	.st120{fill:url(#SVGID_143_);}
	.st121{fill:url(#SVGID_144_);}
	.st122{fill:url(#SVGID_145_);}
	.st123{fill:url(#SVGID_146_);}
	.st124{fill:url(#SVGID_147_);}
	.st125{fill:url(#SVGID_148_);}
	.st126{fill:url(#SVGID_149_);}
	.st127{fill:url(#SVGID_150_);}
	.st128{fill:url(#SVGID_151_);}
	.st129{fill:url(#SVGID_152_);}
	.st130{fill:url(#SVGID_153_);}
	.st131{fill:url(#SVGID_154_);}
	.st132{fill:url(#SVGID_155_);}
	.st133{fill:url(#SVGID_156_);}
	.st134{fill:url(#SVGID_157_);}
	.st135{fill:url(#SVGID_158_);}
	.st136{fill:url(#SVGID_159_);}
	.st137{fill:url(#SVGID_160_);}
	.st138{fill:url(#SVGID_161_);}
	.st139{fill:url(#SVGID_162_);}
	.st140{fill:url(#SVGID_163_);}
	.st141{fill:url(#SVGID_164_);}
	.st142{fill:url(#SVGID_165_);}
	.st143{fill:url(#SVGID_166_);}
	.st144{fill:url(#SVGID_167_);}
	.st145{fill:url(#SVGID_170_);}
	.st146{fill:url(#SVGID_171_);}
	.st147{fill:url(#SVGID_172_);}
	.st148{fill:url(#SVGID_173_);}
	.st149{fill:url(#SVGID_174_);}
	.st150{fill:url(#SVGID_175_);}
	.st151{fill:url(#SVGID_176_);}
	.st152{fill:url(#SVGID_177_);}
	.st153{fill:url(#SVGID_178_);}
	.st154{fill:url(#SVGID_179_);}
	.st155{fill:url(#SVGID_180_);}
	.st156{fill:url(#SVGID_181_);}
	.st157{fill:url(#SVGID_182_);}
	.st158{fill:url(#SVGID_183_);}
	.st159{fill:url(#SVGID_184_);}
	.st160{fill:url(#SVGID_185_);}
	.st161{fill:url(#SVGID_186_);}
	.st162{fill:url(#SVGID_187_);}
	.st163{fill:url(#SVGID_188_);}
	.st164{fill:url(#SVGID_189_);}
	.st165{fill:url(#SVGID_190_);}
	.st166{fill:url(#SVGID_191_);}
	.st167{fill:url(#SVGID_192_);}
	.st168{fill:url(#SVGID_193_);}
	.st169{fill:url(#SVGID_194_);}
	.st170{fill:url(#SVGID_195_);}
	.st171{fill:#F5F5F5;}
	.st172{fill:url(#SVGID_196_);}
	.st173{fill:url(#SVGID_197_);}
	.st174{fill:url(#SVGID_198_);}
	.st175{fill:url(#SVGID_199_);}
	.st176{fill:url(#SVGID_200_);}
	.st177{fill:url(#SVGID_201_);}
	.st178{fill:url(#SVGID_202_);}
	.st179{fill:url(#SVGID_203_);}
	.st180{fill:url(#SVGID_204_);}
	.st181{fill:url(#SVGID_205_);}
	.st182{fill:url(#SVGID_206_);}
	.st183{fill:url(#SVGID_207_);}
	.st184{fill:url(#SVGID_208_);}
	.st185{fill:url(#SVGID_209_);}
	.st186{fill:url(#SVGID_210_);}
	.st187{fill:url(#SVGID_211_);}
	.st188{fill:url(#SVGID_212_);}
	.st189{fill:url(#SVGID_213_);}
	.st190{fill:url(#SVGID_214_);}
	.st191{fill-rule:evenodd;clip-rule:evenodd;fill:url(#SVGID_215_);}
	.st192{fill-rule:evenodd;clip-rule:evenodd;fill:#FFFFFF;}
	.st193{fill:url(#SVGID_216_);}
	.st194{fill:url(#SVGID_217_);}
	.st195{fill:url(#SVGID_218_);}
	.st196{fill:url(#SVGID_219_);}
	.st197{fill:url(#SVGID_220_);}
	.st198{fill:url(#SVGID_221_);}
	.st199{fill:url(#SVGID_222_);}
	.st200{fill:url(#SVGID_223_);}
	.st201{fill:url(#SVGID_224_);}
	.st202{fill:url(#SVGID_225_);}
	.st203{fill:url(#SVGID_226_);}
	.st204{fill:url(#SVGID_233_);}
	.st205{fill:url(#SVGID_234_);}
	.st206{fill:url(#SVGID_235_);}
	.st207{fill:url(#SVGID_236_);}
	.st208{fill:url(#SVGID_237_);}
	.st209{fill:url(#SVGID_238_);}
	.st210{fill:url(#SVGID_239_);}
	.st211{fill:url(#SVGID_240_);}
	.st212{fill:url(#SVGID_241_);}
	.st213{fill:url(#SVGID_242_);}
	.st214{fill:url(#SVGID_243_);}
	.st215{fill:url(#SVGID_244_);}
	.st216{fill:url(#SVGID_245_);}
	.st217{fill:url(#SVGID_246_);}
	.st218{fill:url(#SVGID_247_);}
	.st219{fill:url(#SVGID_248_);}
	.st220{fill:url(#SVGID_249_);}
	.st221{fill:url(#SVGID_250_);}
	.st222{clip-path:url(#SVGID_252_);fill:none;}
	.st223{fill:url(#SVGID_253_);}
	.st224{fill:url(#SVGID_256_);}
	.st225{fill:url(#SVGID_257_);}
	.st226{fill:url(#SVGID_258_);}
	.st227{fill:url(#SVGID_259_);}
	.st228{fill:url(#SVGID_260_);}
	.st229{fill:url(#SVGID_261_);}
	.st230{fill:url(#SVGID_262_);}
	.st231{fill:url(#SVGID_263_);}
	.st232{fill:url(#SVGID_264_);}
	.st233{fill:url(#SVGID_265_);}
</style>
<g>
	<path class="st7" d="M183.57,370.36l12.83-16.98c7.62,6.09,16.3,10.24,25.39,10.24c6.41,0,9.76-2.72,9.76-6.61v-0.13
		c0-3.63-2.81-5.83-13.76-9.59c-17.64-5.83-30.07-12.05-30.07-28.51v-0.39c0-16.46,12.96-28,33.41-28
		c12.56,0,23.65,3.37,33.41,11.02l-12.16,17.37c-6.41-4.8-14.16-8.3-21.78-8.3c-5.48,0-8.55,2.59-8.55,5.96v0.13
		c0,4.02,2.94,6.09,14.83,10.37c17.77,5.57,28.86,12.57,28.86,27.99v0.26c0,17.63-14.03,28.51-34.08,28.51
		C207.76,383.71,194.53,379.56,183.57,370.36z"/>
	<path class="st7" d="M266.02,291.68h64.41v20.48H289.8v14.91h36.61v19.31H289.8v15.55h41.16v20.48h-64.94V291.68z"/>
	<path class="st7" d="M342.18,291.68h36.75c12.56,0,22.05,3.24,28.06,9.2c5.21,5.05,8.15,12.05,8.15,21.26v0.65
		c0,13.48-6.82,21.9-16.7,26.7l19.24,32.92h-27.13l-15.9-28.13h-8.55v28.13h-23.92V291.68z M377.99,335.75
		c8.15,0,12.96-4.54,12.96-11.79v-0.26c0-7.78-5.08-11.66-13.1-11.66H366.1v23.72H377.99z"/>
	<path class="st7" d="M417.41,291.68h26.19l17.24,56.51l17.1-56.51h25.66l-31.54,91.25h-23.12L417.41,291.68z"/>
	<path class="st7" d="M511.47,291.68h24.05v90.73h-24.05V291.68z"/>
	<path class="st7" d="M549.95,291.68h36.75c12.56,0,22.05,3.24,28.06,9.2c5.21,5.05,8.15,12.05,8.15,21.26v0.65
		c0,13.48-6.82,21.9-16.7,26.7l19.24,32.92h-27.13l-15.9-28.13h-8.55v28.13h-23.92V291.68z M585.77,335.75
		c8.15,0,12.96-4.54,12.96-11.79v-0.26c0-7.78-5.08-11.66-13.1-11.66h-11.76v23.72H585.77z"/>
	<path class="st7" d="M665.53,291.68h33.41c22.05,0,36.48,11.15,36.48,31.5v0.52c0,21.77-16.3,32.14-36.75,32.4h-9.22v26.31h-23.92
		V291.68z M697.87,337.05c8.42,0,13.5-4.8,13.5-12.44v-0.39c0-8.3-4.94-12.57-13.63-12.57h-8.28v25.4H697.87z"/>
	<path class="st7" d="M762.81,291.17h24.32l33.01,91.25h-25.26l-5.48-16.33H760l-5.34,16.33h-24.72L762.81,291.17z M783.39,347.42
		l-8.69-26.57l-8.69,26.57H783.39z"/>
	<path class="st7" d="M827.48,291.68h36.75c12.56,0,22.05,3.24,28.06,9.2c5.21,5.05,8.15,12.05,8.15,21.26v0.65
		c0,13.48-6.82,21.9-16.7,26.7l19.24,32.92h-27.13l-15.9-28.13h-8.55v28.13h-23.92V291.68z M863.29,335.75
		c8.15,0,12.96-4.54,12.96-11.79v-0.26c0-7.78-5.08-11.66-13.1-11.66H851.4v23.72H863.29z"/>
	<path class="st7" d="M936.38,291.17h24.32l33.01,91.25h-25.26l-5.48-16.33h-29.4l-5.34,16.33h-24.72L936.38,291.17z M956.96,347.42
		l-8.69-26.57l-8.69,26.57H956.96z"/>
	<path class="st7" d="M154.98,423.84H132l5.61-21.26h70.42l-5.61,21.26h-22.85l-17.37,69.47h-24.59L154.98,423.84z"/>
	<path class="st7" d="M232.35,465.71h-1.47h-6.15l-6.68,27.61h-24.59l22.85-90.73h28.46c14.3,0,23.79,2.98,29.67,8.68
		c4.81,4.67,7.22,11.02,7.22,18.53c0,9.33-3.07,17.37-8.95,23.2c-3.34,3.24-8.02,6.48-15.63,8.94l11.76,31.37H242.1L232.35,465.71z
		 M238.9,446.78c6.01,0,10.56-1.42,13.63-4.28c2.41-2.46,3.88-6.35,3.88-9.98c0-2.85-0.94-4.92-2.67-6.48
		c-1.87-1.94-5.08-2.85-9.62-2.85h-8.55l-5.75,23.59H238.9z"/>
	<path class="st7" d="M325.21,402.07h24.85l9.76,91.25h-25.39l-1.2-16.59h-28.2l-9.35,16.59h-26.19L325.21,402.07z M331.76,457.67
		l-1.34-26.7l-14.03,26.7H331.76z"/>
	<path class="st7" d="M388.55,402.59h23.12l17.51,48.86l12.16-48.86h24.19l-22.85,90.73h-21.78l-18.44-50.81l-12.56,50.81H365.7
		L388.55,402.59z"/>
	<path class="st7" d="M454.69,479.45l14.97-16.72c8.02,7.65,15.9,11.66,23.38,11.66c4.94,0,8.15-2.59,8.15-6.48
		c0-3.24-2.14-5.44-12.03-11.15c-12.69-7.26-19.64-14.26-19.64-25.53c0-8.17,3.21-15.29,8.42-20.35c6.28-6.09,15.37-9.72,26.46-9.72
		c13.9,0,24.99,5.18,33.14,12.7l-14.7,16.85c-5.88-5.31-12.43-9.2-19.78-9.2c-5.21,0-8.15,2.72-8.15,6.09
		c0,3.37,2.14,5.31,12.29,11.28c11.76,6.74,19.64,13.61,19.64,25.66c0,8.3-3.21,15.42-8.82,20.87c-6.15,5.96-15.63,9.33-26.46,9.33
		C476.73,494.74,463.91,489.04,454.69,479.45z"/>
	<path class="st7" d="M552.9,402.59h63.74l-5.61,21.26h-39.15l-3.74,15.81h35.28l-5.34,20.22h-35.14l-8.29,33.44h-24.59
		L552.9,402.59z"/>
	<path class="st7" d="M698.01,438.36c0,14.78-5.88,32.53-17.37,43.55c-8.29,8.04-19.38,13.09-32.34,13.09
		c-22.45,0-37.42-14.78-37.42-37.46c0-14.78,5.88-32.53,17.37-43.68c8.28-8.04,19.38-12.96,32.34-12.96
		C683.04,400.9,698.01,415.68,698.01,438.36z M662.73,468.17c6.55-6.35,10.42-19.31,10.42-28.13c0-11.15-5.21-17.63-14.7-17.63
		c-4.81,0-8.82,1.81-12.29,5.31c-6.55,6.35-10.42,19.44-10.42,28.13c0,11.28,5.21,17.63,14.7,17.63
		C655.11,473.49,659.26,471.54,662.73,468.17z"/>
	<path class="st7" d="M735.02,465.71h-1.47h-6.15l-6.68,27.61h-24.59l22.85-90.73h28.46c14.3,0,23.79,2.98,29.67,8.68
		c4.81,4.67,7.22,11.02,7.22,18.53c0,9.33-3.07,17.37-8.95,23.2c-3.34,3.24-8.02,6.48-15.63,8.94l11.76,31.37h-26.73L735.02,465.71z
		 M741.56,446.78c6.01,0,10.56-1.42,13.63-4.28c2.41-2.46,3.88-6.35,3.88-9.98c0-2.85-0.94-4.92-2.67-6.48
		c-1.87-1.94-5.08-2.85-9.62-2.85h-8.55l-5.75,23.59H741.56z"/>
	<path class="st7" d="M802.63,402.59h24.72l9.22,33.96l26.06-33.96h27.13l-22.85,90.73h-24.45l12.69-51.59l-27.66,34.35h-0.4
		l-10.42-34.09l-12.69,51.33h-24.19L802.63,402.59z"/>
	<path class="st7" d="M929.16,402.07h24.86l9.75,91.25h-25.39l-1.2-16.59h-28.2l-9.35,16.59h-26.19L929.16,402.07z M935.71,457.67
		l-1.34-26.7l-14.03,26.7H935.71z"/>
	<path class="st7" d="M1008.53,465.71h-1.47h-6.15l-6.68,27.61h-24.59l22.85-90.73h28.46c14.3,0,23.79,2.98,29.67,8.68
		c4.81,4.67,7.22,11.02,7.22,18.53c0,9.33-3.07,17.37-8.95,23.2c-3.34,3.24-8.02,6.48-15.63,8.94l11.76,31.37h-26.73L1008.53,465.71
		z M1015.08,446.78c6.01,0,10.56-1.42,13.63-4.28c2.41-2.46,3.88-6.35,3.88-9.98c0-2.85-0.94-4.92-2.67-6.48
		c-1.87-1.94-5.08-2.85-9.62-2.85h-8.55l-5.75,23.59H1015.08z"/>
</g>
<g>
	<path class="st7" d="M528.04,206.59c-1.4-1.97-4.14-2.44-6.11-1.04c-1.97,1.4-2.44,4.14-1.04,6.11l6.6,9.3
		c0.85,1.2,2.21,1.85,3.58,1.85c0.88,0,1.76-0.26,2.53-0.81c1.97-1.4,2.44-4.14,1.04-6.11L528.04,206.59z"/>
	<path class="st7" d="M578.04,183.29c-3.49-16.65-13.19-31.04-27.31-40.54l-15.34-10.31c-6.15-4.13-14.42-3.25-19.56,2V81.61
		c0-6.93-4.73-12.83-11.5-14.33c-4.37-0.97-8.88,0.08-12.37,2.88c-3.49,2.8-5.49,6.97-5.49,11.45v67.98
		c0,8.91,2.73,17.45,7.88,24.72l7.82,11.01c0.85,1.2,2.21,1.85,3.58,1.85c0.88,0,1.76-0.26,2.53-0.81c1.97-1.4,2.44-4.14,1.04-6.11
		l-7.82-11.01c-4.1-5.77-6.26-12.56-6.26-19.64V81.61c0-1.8,0.81-3.48,2.21-4.61c1.4-1.13,3.22-1.55,4.98-1.16
		c2.72,0.6,4.63,2.98,4.63,5.77v53.94c0,7.64,2.81,14.91,7.9,20.57c0.22,0.26,0.44,0.52,0.68,0.77c2.91,3.09,6.34,6.72,9.56,10.15
		l4.51,4.8c0.01,0.02,0.03,0.03,0.05,0.04c3.86,4.11,6.71,7.14,6.77,7.2c1.66,1.76,4.43,1.85,6.2,0.19c1.77-1.66,1.85-4.43,0.19-6.2
		c-0.08-0.09-5.21-5.55-11.07-11.78l-10.05-10.7c-0.03-0.03-0.05-0.06-0.07-0.08c-2.36-2.82-2.33-6.91,0.14-9.7
		c2.19-2.47,5.9-2.94,8.63-1.1l15.34,10.31c12.21,8.21,20.6,20.66,23.62,35.06l7.18,34.24c0.43,2.07,2.26,3.48,4.29,3.48
		c0.3,0,0.6-0.03,0.9-0.09c2.37-0.5,3.89-2.82,3.39-5.19L578.04,183.29z"/>
	<path class="st7" d="M518.94,193.78c-1.41-1.97-4.15-2.43-6.12-1.02c-1.97,1.41-2.43,4.14-1.02,6.12l0.03,0.04
		c0.86,1.2,2.2,1.84,3.57,1.84c0.88,0,1.77-0.26,2.54-0.82c1.97-1.41,2.43-4.14,1.02-6.12L518.94,193.78z"/>
	<path class="st7" d="M705.48,70.16c-3.49-2.8-8-3.85-12.37-2.88c-6.77,1.5-11.5,7.39-11.5,14.33v52.83
		c-5.14-5.24-13.41-6.13-19.56-2l-15.34,10.31c-14.12,9.49-23.81,23.89-27.31,40.54l-7.18,34.24c-0.5,2.37,1.02,4.69,3.39,5.19
		c0.3,0.06,0.61,0.09,0.9,0.09c2.03,0,3.85-1.42,4.29-3.49l7.18-34.24c3.02-14.4,11.41-26.85,23.62-35.06l15.34-10.31
		c2.73-1.84,6.44-1.37,8.63,1.1c2.47,2.79,2.5,6.87,0.15,9.69c-0.03,0.03-0.05,0.06-0.08,0.09c0,0-21.05,22.4-21.13,22.48
		c-1.66,1.77-1.57,4.54,0.19,6.2c1.77,1.66,4.54,1.57,6.2-0.19c0.06-0.06,17.98-19.11,20.89-22.2c0.24-0.25,0.46-0.51,0.68-0.77
		c5.1-5.66,7.9-12.93,7.9-20.57V81.61c0-2.79,1.9-5.16,4.63-5.77c1.76-0.39,3.57,0.03,4.98,1.16c1.4,1.13,2.21,2.81,2.21,4.61v67.98
		c0,7.08-2.17,13.87-6.26,19.64l-33.12,46.66c-1.4,1.97-0.94,4.71,1.04,6.11c0.77,0.55,1.66,0.81,2.53,0.81
		c1.37,0,2.72-0.64,3.58-1.85l33.12-46.66c5.16-7.26,7.88-15.81,7.88-24.72V81.61C710.97,77.13,708.97,72.96,705.48,70.16z"/>
	<path class="st7" d="M641.16,136.73c2.42,0,4.38-1.96,4.38-4.38V116.6c0-0.54-0.02-1.08-0.05-1.62h20.2c2.42,0,4.38-1.96,4.38-4.38
		v-8.19c0-9.58-6.5-17.82-15.82-20.04l-7.8-1.86v-1.4c5.07-3.55,8.39-9.43,8.39-16.08V52.88c0-10.82-8.8-19.62-19.62-19.62
		c-4.86,0-9.3,1.78-12.73,4.71c-3.82-9.35-13.01-15.96-23.72-15.96c-10.72,0-19.92,6.63-23.73,16c-3.44-2.95-7.9-4.74-12.77-4.74
		c-10.82,0-19.62,8.8-19.62,19.62v0.67v9.47c0,6.65,3.32,12.53,8.39,16.08v1.4l-7.8,1.86c-9.31,2.23-15.82,10.47-15.82,20.04v8.19
		c0,2.42,1.96,4.38,4.38,4.38h20.15c-0.03,0.53-0.05,1.07-0.05,1.61v15.77c0,2.42,1.96,4.38,4.38,4.38h26.35
		c2.42,0,4.38-1.96,4.38-4.38s-1.96-4.38-4.38-4.38h-4.53v-9.06c0-2.42-1.96-4.38-4.38-4.38s-4.38,1.96-4.38,4.38v9.06h-8.67v-11.38
		c0-8.46,5.74-15.74,13.97-17.71l12.03-2.88l8.05,18.32c0.7,1.59,2.27,2.62,4.01,2.62h0c1.74,0,3.31-1.03,4.01-2.62l8.04-18.29
		l11.99,2.87c8.23,1.97,13.98,9.25,13.98,17.71v11.37h-8.67v-9.06c0-2.42-1.96-4.38-4.38-4.38s-4.38,1.96-4.38,4.38v9.06h-4.97
		c-2.42,0-4.38,1.96-4.38,4.38s1.96,4.38,4.38,4.38H641.16z M584.84,83.54c-1.13-0.5-2.3-0.89-3.51-1.18l-7.83-1.88v-1.37
		c1.41-0.99,2.69-2.16,3.8-3.47c1.96,3.02,4.53,5.6,7.54,7.56V83.54z M551.43,63.02v-2.09h6.12c5.37,0,10.66-1.06,15.59-3.1v5.19
		c0,5.98-4.87,10.85-10.85,10.85S551.43,69.01,551.43,63.02z M581.94,61.74v-4.63h5.99c6.95,0,13.56-2.59,18.63-7.2l9.04,5.31v7.16
		c-0.34,8.99-7.75,16.2-16.82,16.2C589.5,78.58,581.94,71.03,581.94,61.74z M612.65,83.55v-0.3c3.04-1.96,5.63-4.55,7.61-7.58
		c1.1,1.3,2.37,2.46,3.77,3.43v1.37l-7.83,1.88C614.97,82.65,613.78,83.05,612.65,83.55z M624.38,63.02v-0.64
		c0.01-0.21,0.02-0.43,0.02-0.64v-3.9c4.92,2.04,10.21,3.1,15.57,3.1h6.12v2.09c0,5.98-4.87,10.85-10.85,10.85
		C629.25,73.88,624.38,69.01,624.38,63.02z M635.23,42.03c5.74,0,10.46,4.49,10.83,10.14h-6.1c-5.12,0-10.17-1.23-14.7-3.58
		C626.93,44.73,630.77,42.03,635.23,42.03z M581.94,47.62c0-9.29,7.55-16.84,16.84-16.84c8.38,0,15.34,6.15,16.63,14.16l-7.38-4.34
		c-1.85-1.08-4.21-0.68-5.58,0.96c-3.61,4.3-8.9,6.77-14.51,6.77h-5.99L581.94,47.62L581.94,47.62z M562.28,42.03
		c4.46,0,8.3,2.7,9.97,6.55c-4.53,2.35-9.58,3.58-14.7,3.58h-6.1C551.82,46.51,556.54,42.03,562.28,42.03z M572.6,90.35
		c-8.63,2.07-15.41,8.08-18.63,15.86H536.2v-3.8c0-5.5,3.74-10.24,9.09-11.51l11.17-2.67c1.97-0.47,3.37-2.24,3.37-4.26v-1.47
		c0.81,0.1,1.63,0.16,2.46,0.16c0.83,0,1.64-0.06,2.44-0.16v1.25c0,0.07,0,0.13,0,0.2c0,1.44,0.71,2.85,2.01,3.69
		c0.49,0.32,1.02,0.52,1.56,0.63l6.54,1.57L572.6,90.35z M598.75,101.65l-5.14-11.7v-3.13c1.67,0.35,3.41,0.53,5.18,0.53
		c1.74,0,3.45-0.18,5.09-0.51v3.14L598.75,101.65z M624.83,90.36l-2.2-0.53l6.58-1.58c0.55-0.1,1.08-0.31,1.58-0.63
		c1.3-0.84,2-2.25,2-3.69c0-0.03,0-0.07,0-0.1v-1.35c0.8,0.1,1.61,0.16,2.44,0.16c0.83,0,1.65-0.06,2.46-0.16v1.47
		c0,2.03,1.39,3.79,3.37,4.26l11.17,2.67c5.35,1.28,9.09,6.01,9.09,11.51v3.8h-17.83C640.25,98.43,633.46,92.42,624.83,90.36z"/>
	<path class="st7" d="M598.73,127.97c-1.16,0-2.28,0.46-3.1,1.28c-0.82,0.82-1.28,1.95-1.28,3.1c0,1.15,0.46,2.28,1.28,3.1
		c0.82,0.82,1.94,1.28,3.1,1.28c1.15,0,2.28-0.47,3.1-1.28c0.82-0.82,1.29-1.95,1.29-3.1c0-1.16-0.47-2.28-1.29-3.1
		C601.01,128.43,599.88,127.97,598.73,127.97z"/>
	<path class="st7" d="M598.73,13.66c2.42,0,4.38-1.96,4.38-4.38V2.72c0-2.42-1.96-4.38-4.38-4.38s-4.38,1.96-4.38,4.38v6.56
		C594.34,11.7,596.3,13.66,598.73,13.66z"/>
	<path class="st7" d="M576.38,18.84c0.86,0.86,1.98,1.28,3.1,1.28c1.12,0,2.25-0.43,3.1-1.29c1.71-1.71,1.71-4.49,0-6.2l-4.6-4.59
		c-1.71-1.71-4.49-1.71-6.2,0s-1.71,4.49,0,6.2L576.38,18.84z"/>
	<path class="st7" d="M617.91,20.2c1.12,0,2.25-0.43,3.1-1.29l4.56-4.57c1.71-1.71,1.71-4.49,0-6.2c-1.71-1.71-4.49-1.71-6.2,0
		l-4.56,4.57c-1.71,1.71-1.71,4.49,0,6.2C615.67,19.78,616.79,20.2,617.91,20.2z"/>
</g>
</svg>
