<?xml version="1.0" encoding="utf-8"?>
<!-- Generator: Adobe Illustrator 23.0.0, SVG Export Plug-In . SVG Version: 6.00 Build 0)  -->
<svg version="1.1" id="Capa_1" xmlns="http://www.w3.org/2000/svg" xmlns:xlink="http://www.w3.org/1999/xlink" x="0px" y="0px"
	 viewBox="0 0 653 602" style="enable-background:new 0 0 653 602;" xml:space="preserve">
<style type="text/css">
	.st0{fill:url(#SVGID_1_);}
	.st1{fill:url(#SVGID_2_);}
</style>
<g>
	<g>
		<linearGradient id="SVGID_1_" gradientUnits="userSpaceOnUse" x1="918.4456" y1="398.9499" x2="921.3427" y2="399.0266">
			<stop  offset="0" style="stop-color:#FD0E12"/>
			<stop  offset="0.2382" style="stop-color:#FB0E13"/>
			<stop  offset="0.3241" style="stop-color:#F40F17"/>
			<stop  offset="0.3853" style="stop-color:#E8111E"/>
			<stop  offset="0.4348" style="stop-color:#D81427"/>
			<stop  offset="0.4771" style="stop-color:#C21834"/>
			<stop  offset="0.5147" style="stop-color:#A61C43"/>
			<stop  offset="0.5486" style="stop-color:#862155"/>
			<stop  offset="0.5798" style="stop-color:#60286A"/>
			<stop  offset="0.6076" style="stop-color:#372E82"/>
			<stop  offset="0.6246" style="stop-color:#1A3392"/>
		</linearGradient>
		<path class="st0" d="M919.89,400.49c1.93,0,1.93-3,0-3C917.96,397.49,917.96,400.49,919.89,400.49L919.89,400.49z"/>
	</g>
</g>
<g>
	<linearGradient id="SVGID_2_" gradientUnits="userSpaceOnUse" x1="55.6172" y1="303.6396" x2="598" y2="303.6396">
		<stop  offset="0" style="stop-color:#FD0E12"/>
		<stop  offset="0.0734" style="stop-color:#F60F16"/>
		<stop  offset="0.1774" style="stop-color:#E41220"/>
		<stop  offset="0.2995" style="stop-color:#C51731"/>
		<stop  offset="0.4354" style="stop-color:#9B1E49"/>
		<stop  offset="0.5828" style="stop-color:#652768"/>
		<stop  offset="0.7375" style="stop-color:#23318D"/>
		<stop  offset="0.7586" style="stop-color:#1A3392"/>
	</linearGradient>
	<path class="st1" d="M564.1,392.5v-97.72c0-37.41-30.42-67.84-67.8-67.84V125.19c0-9.37-7.59-16.41-16.95-16.41h-67.8
		c-9.36,0-16.95,7.04-16.95,16.41v102.24h-72.36l-30.2-94.62c-11.55-34.67-43.86-57.93-80.39-57.93H72.57
		c-9.36,0-16.95,7.02-16.95,16.38V413.5c0,65.46,53.23,118.89,118.65,118.89c53.64,0,99.02-35.89,113.65-84.62h89.76
		c3.35,0,6.62-0.98,9.4-2.84l46.56-31.06h24.73c-8.14,11.65-12.92,26.52-12.92,42.21c0,42.08,34.22,76.22,76.28,76.22
		S598,498.03,598,455.94C598.01,429.55,584.53,406.21,564.1,392.5L564.1,392.5z M428.51,142.68h33.9v84.75h-33.9V142.68z
		 M259.82,143.33l26.84,84.1H155.6c-6.76-33.9-32.93-59.85-66.08-66.61v-52.03h122.13C233.56,108.79,252.95,122.73,259.82,143.33
		L259.82,143.33z M89.52,196.15c14.36,5.12,25.66,16.45,30.77,31.28H89.52V196.15z M174.27,498.29c-46.73,0-84.75-38.04-84.75-84.79
		c0-46.76,38.02-84.8,84.75-84.8c46.72,0,84.75,38.04,84.75,84.8C259.01,460.26,220.99,498.29,174.27,498.29L174.27,498.29z
		 M428.51,379.98c-3.35,0-6.62,0.8-9.4,2.65l-46.57,30.97l-79.63-0.05v-0.05c0-65.46-53.22-118.72-118.64-118.72
		c-33.19,0-63.19,13.74-84.75,35.79v-69.24h406.79c18.69,0,33.9,14.74,33.9,33.45v85.19H428.51z M521.73,498.29
		c-23.37,0-42.37-19.02-42.37-42.39c0-23.38,19.01-42.4,42.37-42.4c23.37,0,42.37,19.02,42.37,42.4
		C564.1,479.28,545.09,498.29,521.73,498.29L521.73,498.29z M521.73,498.29"/>
</g>
</svg>
