<?xml version="1.0" encoding="utf-8"?>
<!-- Generator: Adobe Illustrator 23.0.0, SVG Export Plug-In . SVG Version: 6.00 Build 0)  -->
<svg version="1.1" id="Capa_1" xmlns="http://www.w3.org/2000/svg" xmlns:xlink="http://www.w3.org/1999/xlink" x="0px" y="0px"
	 viewBox="0 0 653 602" style="enable-background:new 0 0 653 602;" xml:space="preserve">
<style type="text/css">
	.st0{fill:url(#SVGID_1_);}
	.st1{fill:url(#SVGID_2_);}
	.st2{fill:url(#SVGID_3_);}
	.st3{fill:url(#SVGID_4_);}
	.st4{fill:url(#SVGID_5_);}
	.st5{fill:url(#SVGID_6_);}
	.st6{fill:url(#SVGID_7_);}
</style>
<g>
	<g>
		<linearGradient id="SVGID_1_" gradientUnits="userSpaceOnUse" x1="918.4456" y1="398.9499" x2="921.3427" y2="399.0266">
			<stop  offset="0" style="stop-color:#FD0E12"/>
			<stop  offset="0.2382" style="stop-color:#FB0E13"/>
			<stop  offset="0.3241" style="stop-color:#F40F17"/>
			<stop  offset="0.3853" style="stop-color:#E8111E"/>
			<stop  offset="0.4348" style="stop-color:#D81427"/>
			<stop  offset="0.4771" style="stop-color:#C21834"/>
			<stop  offset="0.5147" style="stop-color:#A61C43"/>
			<stop  offset="0.5486" style="stop-color:#862155"/>
			<stop  offset="0.5798" style="stop-color:#60286A"/>
			<stop  offset="0.6076" style="stop-color:#372E82"/>
			<stop  offset="0.6246" style="stop-color:#1A3392"/>
		</linearGradient>
		<path class="st0" d="M919.89,400.49c1.93,0,1.93-3,0-3C917.96,397.49,917.96,400.49,919.89,400.49L919.89,400.49z"/>
	</g>
</g>
<g>
	<linearGradient id="SVGID_2_" gradientUnits="userSpaceOnUse" x1="53.1251" y1="596.0182" x2="632.5134" y2="523.1712">
		<stop  offset="0" style="stop-color:#FD0E12"/>
		<stop  offset="0.2382" style="stop-color:#FB0E13"/>
		<stop  offset="0.3241" style="stop-color:#F40F17"/>
		<stop  offset="0.3853" style="stop-color:#E8111E"/>
		<stop  offset="0.4348" style="stop-color:#D81427"/>
		<stop  offset="0.4771" style="stop-color:#C21834"/>
		<stop  offset="0.5147" style="stop-color:#A61C43"/>
		<stop  offset="0.5486" style="stop-color:#862155"/>
		<stop  offset="0.5798" style="stop-color:#60286A"/>
		<stop  offset="0.6076" style="stop-color:#372E82"/>
		<stop  offset="0.6246" style="stop-color:#1A3392"/>
	</linearGradient>
	<path class="st1" d="M425.66,524.92c-4.52-1.14-9.1,1.62-10.22,6.13L407,564.79c-1.14,4.53,1.62,9.1,6.14,10.23
		c0.68,0.18,1.37,0.26,2.05,0.26c3.78,0,7.21-2.56,8.17-6.38l8.44-33.74C432.93,530.63,430.18,526.06,425.66,524.92L425.66,524.92z
		 M425.66,524.92"/>
	<linearGradient id="SVGID_3_" gradientUnits="userSpaceOnUse" x1="17.8759" y1="315.6643" x2="597.2642" y2="242.8173">
		<stop  offset="0" style="stop-color:#FD0E12"/>
		<stop  offset="0.2382" style="stop-color:#FB0E13"/>
		<stop  offset="0.3241" style="stop-color:#F40F17"/>
		<stop  offset="0.3853" style="stop-color:#E8111E"/>
		<stop  offset="0.4348" style="stop-color:#D81427"/>
		<stop  offset="0.4771" style="stop-color:#C21834"/>
		<stop  offset="0.5147" style="stop-color:#A61C43"/>
		<stop  offset="0.5486" style="stop-color:#862155"/>
		<stop  offset="0.5798" style="stop-color:#60286A"/>
		<stop  offset="0.6076" style="stop-color:#372E82"/>
		<stop  offset="0.6246" style="stop-color:#1A3392"/>
	</linearGradient>
	<path class="st2" d="M322.42,356c1.1,0,2.19-0.21,3.22-0.64l92.77-38.39c4.3-1.78,6.35-6.72,4.56-11.02
		c-1.78-4.31-6.73-6.33-11.02-4.57l-89.53,37.06L86.28,240.73v-2.8c0-4.66-3.78-8.44-8.43-8.44c-4.66,0-8.44,3.78-8.44,8.44v8.43
		c0,3.42,2.06,6.5,5.21,7.79l244.57,101.2C320.22,355.79,321.32,356,322.42,356L322.42,356z M322.42,356"/>
	<linearGradient id="SVGID_4_" gradientUnits="userSpaceOnUse" x1="31.1847" y1="421.5155" x2="610.5729" y2="348.6684">
		<stop  offset="0" style="stop-color:#FD0E12"/>
		<stop  offset="0.2382" style="stop-color:#FB0E13"/>
		<stop  offset="0.3241" style="stop-color:#F40F17"/>
		<stop  offset="0.3853" style="stop-color:#E8111E"/>
		<stop  offset="0.4348" style="stop-color:#D81427"/>
		<stop  offset="0.4771" style="stop-color:#C21834"/>
		<stop  offset="0.5147" style="stop-color:#A61C43"/>
		<stop  offset="0.5486" style="stop-color:#862155"/>
		<stop  offset="0.5798" style="stop-color:#60286A"/>
		<stop  offset="0.6076" style="stop-color:#372E82"/>
		<stop  offset="0.6246" style="stop-color:#1A3392"/>
	</linearGradient>
	<path class="st3" d="M422.74,442.4c-2.06-4.17-7.1-5.9-11.29-3.83c-16.02,7.92-42.77,17.13-80.6,18.38V381.3
		c0-4.65-3.78-8.43-8.44-8.43c-4.66,0-8.44,3.78-8.44,8.43v75.58c-104.72-3.34-138.51-66.78-143.37-77.34v-57.28
		c0-4.66-3.78-8.44-8.44-8.44c-4.65,0-8.43,3.78-8.43,8.44v59.03c0,1.07,0.2,2.14,0.6,3.14c1.47,3.65,37.36,89.63,168.07,89.63
		c45.68,0,77.7-11.08,96.5-20.37C423.1,451.63,424.82,446.58,422.74,442.4L422.74,442.4z M422.74,442.4"/>
	<linearGradient id="SVGID_5_" gradientUnits="userSpaceOnUse" x1="54.107" y1="603.8279" x2="633.4952" y2="530.9808">
		<stop  offset="0" style="stop-color:#FD0E12"/>
		<stop  offset="0.2382" style="stop-color:#FB0E13"/>
		<stop  offset="0.3241" style="stop-color:#F40F17"/>
		<stop  offset="0.3853" style="stop-color:#E8111E"/>
		<stop  offset="0.4348" style="stop-color:#D81427"/>
		<stop  offset="0.4771" style="stop-color:#C21834"/>
		<stop  offset="0.5147" style="stop-color:#A61C43"/>
		<stop  offset="0.5486" style="stop-color:#862155"/>
		<stop  offset="0.5798" style="stop-color:#60286A"/>
		<stop  offset="0.6076" style="stop-color:#372E82"/>
		<stop  offset="0.6246" style="stop-color:#1A3392"/>
	</linearGradient>
	<path class="st4" d="M448.92,533.11c-4.66,0-8.43,3.78-8.43,8.43v25.3c0,4.66,3.77,8.44,8.43,8.44c4.67,0,8.44-3.78,8.44-8.44
		v-25.3C457.35,536.88,453.58,533.11,448.92,533.11L448.92,533.11z M448.92,533.11"/>
	<linearGradient id="SVGID_6_" gradientUnits="userSpaceOnUse" x1="23.3814" y1="359.4519" x2="602.7696" y2="286.6049">
		<stop  offset="0" style="stop-color:#FD0E12"/>
		<stop  offset="0.2382" style="stop-color:#FB0E13"/>
		<stop  offset="0.3241" style="stop-color:#F40F17"/>
		<stop  offset="0.3853" style="stop-color:#E8111E"/>
		<stop  offset="0.4348" style="stop-color:#D81427"/>
		<stop  offset="0.4771" style="stop-color:#C21834"/>
		<stop  offset="0.5147" style="stop-color:#A61C43"/>
		<stop  offset="0.5486" style="stop-color:#862155"/>
		<stop  offset="0.5798" style="stop-color:#60286A"/>
		<stop  offset="0.6076" style="stop-color:#372E82"/>
		<stop  offset="0.6246" style="stop-color:#1A3392"/>
	</linearGradient>
	<path class="st5" d="M566.98,229.5c-4.66,0-8.44,3.78-8.44,8.44v2.78l-101.2,41.66v-15.24l112.86-46.71
		c3.15-1.3,5.21-4.38,5.21-7.79c0-3.42-2.06-6.49-5.2-7.79l-244.58-101.2c-2.07-0.85-4.38-0.85-6.44,0L74.62,204.84
		c-3.16,1.31-5.21,4.38-5.21,7.79c0,3.42,2.06,6.5,5.21,7.79l244.57,101.2c1.03,0.43,2.13,0.64,3.22,0.64c1.1,0,2.19-0.21,3.22-0.64
		l88.43-36.59c4.31-1.77,6.35-6.7,4.57-11.01c-1.78-4.3-6.72-6.34-11.02-4.56l-85.21,35.25L99.9,212.63l222.52-92.08l222.52,92.08
		L448.1,252.7l-92.74-34.63c0.49-1.76,0.78-3.56,0.78-5.44c0-14.19-14.81-25.3-33.73-25.3c-18.92,0-33.73,11.11-33.73,25.3
		c0,14.18,14.81,25.3,33.73,25.3c8.44,0,15.97-2.31,21.83-6.01l96.24,35.93v207.77c-9.79,3.5-16.87,12.77-16.87,23.75
		c0,13.95,11.35,25.3,25.3,25.3c13.95,0,25.3-11.35,25.3-25.3c0-10.98-7.07-20.25-16.87-23.75v-47.87
		c24.21-18.28,32.89-42.62,33.27-43.7c0.3-0.88,0.46-1.82,0.46-2.75v-59.04c0-4.65-3.77-8.43-8.43-8.43c-4.67,0-8.44,3.78-8.44,8.43
		v57.48c-1.46,3.58-6.53,14.6-16.87,25.47V300.61l112.85-46.44c3.16-1.3,5.22-4.39,5.22-7.8v-8.43
		C575.42,233.28,571.65,229.5,566.98,229.5L566.98,229.5z M322.42,221.06c-10.3,0-16.87-4.99-16.87-8.43
		c0-3.44,6.57-8.44,16.87-8.44c10.3,0,16.87,4.99,16.87,8.44C339.28,216.07,332.71,221.06,322.42,221.06L322.42,221.06z
		 M448.92,507.8c-4.65,0-8.43-3.79-8.43-8.44c0-4.65,3.78-8.43,8.43-8.43c4.66,0,8.44,3.78,8.44,8.43
		C457.35,504.02,453.57,507.8,448.92,507.8L448.92,507.8z M448.92,507.8"/>
	<linearGradient id="SVGID_7_" gradientUnits="userSpaceOnUse" x1="54.0442" y1="603.3279" x2="633.4324" y2="530.4809">
		<stop  offset="0" style="stop-color:#FD0E12"/>
		<stop  offset="0.2382" style="stop-color:#FB0E13"/>
		<stop  offset="0.3241" style="stop-color:#F40F17"/>
		<stop  offset="0.3853" style="stop-color:#E8111E"/>
		<stop  offset="0.4348" style="stop-color:#D81427"/>
		<stop  offset="0.4771" style="stop-color:#C21834"/>
		<stop  offset="0.5147" style="stop-color:#A61C43"/>
		<stop  offset="0.5486" style="stop-color:#862155"/>
		<stop  offset="0.5798" style="stop-color:#60286A"/>
		<stop  offset="0.6076" style="stop-color:#372E82"/>
		<stop  offset="0.6246" style="stop-color:#1A3392"/>
	</linearGradient>
	<path class="st6" d="M482.4,531.05c-1.13-4.51-5.72-7.27-10.22-6.13c-4.52,1.13-7.27,5.71-6.14,10.23l8.44,33.74
		c0.96,3.83,4.39,6.38,8.17,6.38c0.68,0,1.37-0.08,2.05-0.26c4.52-1.13,7.27-5.7,6.14-10.23L482.4,531.05z M482.4,531.05"/>
</g>
</svg>
