<?xml version="1.0" encoding="utf-8"?>
<!-- Generator: Adobe Illustrator 23.0.0, SVG Export Plug-In . SVG Version: 6.00 Build 0)  -->
<svg version="1.1" id="Capa_1" xmlns="http://www.w3.org/2000/svg" xmlns:xlink="http://www.w3.org/1999/xlink" x="0px" y="0px"
	 viewBox="0 0 653 602" style="enable-background:new 0 0 653 602;" xml:space="preserve">
<style type="text/css">
	.st0{fill:url(#SVGID_1_);}
	.st1{fill:url(#SVGID_2_);}
	.st2{fill:url(#SVGID_3_);}
	.st3{fill:url(#SVGID_4_);}
	.st4{fill:url(#SVGID_5_);}
	.st5{fill:url(#SVGID_6_);}
	.st6{fill:url(#SVGID_7_);}
	.st7{fill:url(#SVGID_8_);}
	.st8{fill:url(#SVGID_9_);}
	.st9{fill:url(#SVGID_10_);}
</style>
<g>
	<g>
		<linearGradient id="SVGID_1_" gradientUnits="userSpaceOnUse" x1="918.4456" y1="398.9499" x2="921.3427" y2="399.0266">
			<stop  offset="0" style="stop-color:#FD0E12"/>
			<stop  offset="0.2382" style="stop-color:#FB0E13"/>
			<stop  offset="0.3241" style="stop-color:#F40F17"/>
			<stop  offset="0.3853" style="stop-color:#E8111E"/>
			<stop  offset="0.4348" style="stop-color:#D81427"/>
			<stop  offset="0.4771" style="stop-color:#C21834"/>
			<stop  offset="0.5147" style="stop-color:#A61C43"/>
			<stop  offset="0.5486" style="stop-color:#862155"/>
			<stop  offset="0.5798" style="stop-color:#60286A"/>
			<stop  offset="0.6076" style="stop-color:#372E82"/>
			<stop  offset="0.6246" style="stop-color:#1A3392"/>
		</linearGradient>
		<path class="st0" d="M919.89,400.49c1.93,0,1.93-3,0-3C917.96,397.49,917.96,400.49,919.89,400.49L919.89,400.49z"/>
	</g>
</g>
<g>
	<linearGradient id="SVGID_2_" gradientUnits="userSpaceOnUse" x1="-348.8301" y1="483.032" x2="886.7768" y2="478.5388">
		<stop  offset="0" style="stop-color:#FD0E12"/>
		<stop  offset="0.2382" style="stop-color:#FB0E13"/>
		<stop  offset="0.3241" style="stop-color:#F40F17"/>
		<stop  offset="0.3853" style="stop-color:#E8111E"/>
		<stop  offset="0.4348" style="stop-color:#D81427"/>
		<stop  offset="0.4771" style="stop-color:#C21834"/>
		<stop  offset="0.5147" style="stop-color:#A61C43"/>
		<stop  offset="0.5486" style="stop-color:#862155"/>
		<stop  offset="0.5798" style="stop-color:#60286A"/>
		<stop  offset="0.6076" style="stop-color:#372E82"/>
		<stop  offset="0.6246" style="stop-color:#1A3392"/>
	</linearGradient>
	<path class="st1" d="M180.48,466.26c-2.89-4.08-8.55-5.04-12.63-2.14c-4.08,2.9-5.04,8.55-2.14,12.63l13.64,19.21
		c1.77,2.49,4.56,3.82,7.39,3.82c1.81,0,3.64-0.54,5.24-1.67c4.08-2.9,5.04-8.55,2.14-12.63L180.48,466.26z"/>
	<linearGradient id="SVGID_3_" gradientUnits="userSpaceOnUse" x1="-349.3474" y1="340.7686" x2="886.2595" y2="336.2755">
		<stop  offset="0" style="stop-color:#FD0E12"/>
		<stop  offset="0.2382" style="stop-color:#FB0E13"/>
		<stop  offset="0.3241" style="stop-color:#F40F17"/>
		<stop  offset="0.3853" style="stop-color:#E8111E"/>
		<stop  offset="0.4348" style="stop-color:#D81427"/>
		<stop  offset="0.4771" style="stop-color:#C21834"/>
		<stop  offset="0.5147" style="stop-color:#A61C43"/>
		<stop  offset="0.5486" style="stop-color:#862155"/>
		<stop  offset="0.5798" style="stop-color:#60286A"/>
		<stop  offset="0.6076" style="stop-color:#372E82"/>
		<stop  offset="0.6246" style="stop-color:#1A3392"/>
	</linearGradient>
	<path class="st2" d="M283.78,418.12c-7.22-34.4-27.25-64.14-56.42-83.75l-31.69-21.31c-12.71-8.54-29.78-6.7-40.4,4.12V208.05
		c0-14.33-9.77-26.5-23.75-29.6c-9.03-2.01-18.34,0.17-25.55,5.95c-7.21,5.79-11.35,14.41-11.35,23.65v140.45
		c0,18.4,5.63,36.06,16.28,51.06l16.15,22.75c1.77,2.49,4.56,3.82,7.39,3.82c1.81,0,3.64-0.54,5.24-1.67
		c4.08-2.9,5.04-8.55,2.14-12.63l-16.15-22.75c-8.46-11.92-12.94-25.95-12.94-40.57V208.05c0-3.72,1.66-7.19,4.57-9.52
		c2.9-2.33,6.65-3.2,10.28-2.4c5.63,1.25,9.56,6.15,9.56,11.92v111.43c0,15.77,5.8,30.8,16.32,42.49c0.45,0.54,0.91,1.08,1.4,1.6
		c6.02,6.37,13.09,13.89,19.75,20.96l9.33,9.92c0.03,0.03,0.06,0.06,0.09,0.09c7.98,8.48,13.86,14.75,13.98,14.88
		c3.42,3.65,9.16,3.83,12.8,0.4c3.65-3.42,3.83-9.16,0.4-12.8c-0.16-0.18-10.77-11.47-22.88-24.34l-20.77-22.1
		c-0.05-0.06-0.1-0.12-0.15-0.17c-4.87-5.82-4.81-14.27,0.3-20.03c4.52-5.1,12.18-6.07,17.83-2.28l31.68,21.31
		c25.22,16.96,42.55,42.68,48.79,72.43l14.84,70.73c0.9,4.27,4.66,7.2,8.86,7.2c0.62,0,1.24-0.06,1.87-0.19
		c4.9-1.03,8.03-5.83,7-10.73L283.78,418.12z"/>
	<linearGradient id="SVGID_4_" gradientUnits="userSpaceOnUse" x1="-348.9615" y1="446.9114" x2="886.6454" y2="442.4183">
		<stop  offset="0" style="stop-color:#FD0E12"/>
		<stop  offset="0.2382" style="stop-color:#FB0E13"/>
		<stop  offset="0.3241" style="stop-color:#F40F17"/>
		<stop  offset="0.3853" style="stop-color:#E8111E"/>
		<stop  offset="0.4348" style="stop-color:#D81427"/>
		<stop  offset="0.4771" style="stop-color:#C21834"/>
		<stop  offset="0.5147" style="stop-color:#A61C43"/>
		<stop  offset="0.5486" style="stop-color:#862155"/>
		<stop  offset="0.5798" style="stop-color:#60286A"/>
		<stop  offset="0.6076" style="stop-color:#372E82"/>
		<stop  offset="0.6246" style="stop-color:#1A3392"/>
	</linearGradient>
	<path class="st3" d="M161.68,439.78c-2.91-4.07-8.56-5.02-12.64-2.11c-4.07,2.91-5.02,8.56-2.11,12.63l0.06,0.08
		c1.77,2.48,4.55,3.8,7.38,3.8c1.82,0,3.66-0.55,5.25-1.69c4.07-2.91,5.02-8.56,2.11-12.63L161.68,439.78z"/>
	<linearGradient id="SVGID_5_" gradientUnits="userSpaceOnUse" x1="-349.3436" y1="341.8235" x2="886.2633" y2="337.3304">
		<stop  offset="0" style="stop-color:#FD0E12"/>
		<stop  offset="0.2382" style="stop-color:#FB0E13"/>
		<stop  offset="0.3241" style="stop-color:#F40F17"/>
		<stop  offset="0.3853" style="stop-color:#E8111E"/>
		<stop  offset="0.4348" style="stop-color:#D81427"/>
		<stop  offset="0.4771" style="stop-color:#C21834"/>
		<stop  offset="0.5147" style="stop-color:#A61C43"/>
		<stop  offset="0.5486" style="stop-color:#862155"/>
		<stop  offset="0.5798" style="stop-color:#60286A"/>
		<stop  offset="0.6076" style="stop-color:#372E82"/>
		<stop  offset="0.6246" style="stop-color:#1A3392"/>
	</linearGradient>
	<path class="st4" d="M547.06,184.4c-7.21-5.79-16.52-7.95-25.55-5.95c-13.99,3.1-23.75,15.28-23.75,29.6v109.15
		c-10.62-10.83-27.7-12.67-40.4-4.12l-31.69,21.31c-29.16,19.61-49.2,49.35-56.42,83.75l-14.84,70.73c-1.03,4.9,2.11,9.7,7,10.72
		c0.63,0.13,1.25,0.19,1.87,0.19c4.2,0,7.96-2.93,8.86-7.2l14.84-70.73c6.24-29.75,23.57-55.47,48.79-72.43l31.69-21.31
		c5.65-3.8,13.31-2.82,17.83,2.28c5.1,5.76,5.17,14.19,0.31,20.01c-0.06,0.06-0.11,0.13-0.17,0.19c0,0-43.48,46.27-43.65,46.44
		c-3.42,3.65-3.24,9.38,0.4,12.8c3.65,3.42,9.38,3.24,12.8-0.4c0.12-0.13,37.14-39.49,43.15-45.86c0.49-0.52,0.95-1.05,1.4-1.6
		c10.53-11.69,16.32-26.72,16.32-42.49V208.05c0-5.77,3.93-10.67,9.56-11.92c3.64-0.81,7.38,0.07,10.28,2.4
		c2.9,2.33,4.57,5.8,4.57,9.52v140.45c0,14.62-4.47,28.65-12.94,40.57l-68.43,96.4c-2.9,4.08-1.94,9.73,2.14,12.63
		c1.59,1.13,3.42,1.67,5.24,1.67c2.84,0,5.63-1.33,7.39-3.82l68.43-96.4c10.65-15,16.28-32.66,16.28-51.06V208.05
		C558.41,198.8,554.27,190.18,547.06,184.4z"/>
	<linearGradient id="SVGID_6_" gradientUnits="userSpaceOnUse" x1="-349.8373" y1="206.0422" x2="885.7695" y2="201.5491">
		<stop  offset="0" style="stop-color:#FD0E12"/>
		<stop  offset="0.2382" style="stop-color:#FB0E13"/>
		<stop  offset="0.3241" style="stop-color:#F40F17"/>
		<stop  offset="0.3853" style="stop-color:#E8111E"/>
		<stop  offset="0.4348" style="stop-color:#D81427"/>
		<stop  offset="0.4771" style="stop-color:#C21834"/>
		<stop  offset="0.5147" style="stop-color:#A61C43"/>
		<stop  offset="0.5486" style="stop-color:#862155"/>
		<stop  offset="0.5798" style="stop-color:#60286A"/>
		<stop  offset="0.6076" style="stop-color:#372E82"/>
		<stop  offset="0.6246" style="stop-color:#1A3392"/>
	</linearGradient>
	<path class="st5" d="M414.18,321.93c5,0,9.06-4.06,9.06-9.06v-32.54c0-1.12-0.05-2.23-0.11-3.34h41.74c5,0,9.06-4.06,9.06-9.06
		v-16.92c0-19.78-13.44-36.81-32.68-41.41l-16.12-3.85v-2.89c10.47-7.34,17.34-19.49,17.34-33.22V148.7
		c0-22.35-18.19-40.54-40.54-40.54c-10.03,0-19.22,3.67-26.3,9.73c-7.89-19.32-26.87-32.97-49-32.97
		c-22.15,0-41.15,13.69-49.03,33.05c-7.1-6.1-16.32-9.8-26.39-9.8c-22.35,0-40.54,18.19-40.54,40.54v1.39v19.56
		c0,13.73,6.87,25.88,17.34,33.22v2.89l-16.12,3.85c-19.24,4.6-32.68,21.62-32.68,41.41v16.92c0,5,4.06,9.06,9.06,9.06h41.62
		c-0.06,1.1-0.11,2.2-0.11,3.32v32.57c0,5,4.06,9.06,9.06,9.06h54.45c5,0,9.06-4.06,9.06-9.06s-4.06-9.06-9.06-9.06h-9.36V285.1
		c0-5-4.06-9.06-9.06-9.06s-9.06,4.06-9.06,9.06v18.72h-17.91V280.3c0-17.47,11.87-32.51,28.85-36.59l24.86-5.96l16.64,37.85
		c1.45,3.29,4.7,5.41,8.29,5.41h0c3.59,0,6.85-2.12,8.29-5.41l16.62-37.79l24.78,5.92c17,4.06,28.88,19.11,28.88,36.59v23.49h-17.91
		V285.1c0-5-4.06-9.06-9.06-9.06s-9.06,4.06-9.06,9.06v18.72h-10.27c-5,0-9.06,4.06-9.06,9.06c0,5,4.06,9.06,9.06,9.06H414.18z
		 M297.82,212.04c-2.33-1.03-4.75-1.85-7.25-2.45l-16.18-3.88v-2.82c2.92-2.04,5.56-4.45,7.85-7.17
		c4.05,6.23,9.36,11.56,15.58,15.62V212.04z M228.8,169.65v-4.31h12.64c11.09,0,22.03-2.2,32.21-6.41v10.73
		c0,12.36-10.06,22.42-22.42,22.42C238.85,192.07,228.8,182.01,228.8,169.65z M291.84,167v-9.57h12.38
		c14.36,0,28.02-5.34,38.49-14.87l18.68,10.97v14.79c-0.7,18.57-16.02,33.47-34.76,33.47C307.45,201.8,291.84,186.19,291.84,167z
		 M355.27,212.07v-0.61c6.27-4.06,11.64-9.4,15.71-15.66c2.27,2.69,4.89,5.07,7.78,7.1v2.82l-16.18,3.88
		C360.07,210.2,357.62,211.03,355.27,212.07z M379.51,169.65v-1.32c0.01-0.44,0.03-0.88,0.03-1.32v-8.07
		c10.16,4.21,21.09,6.4,32.17,6.4h12.64v4.31c0,12.36-10.06,22.42-22.42,22.42C389.57,192.07,379.51,182.01,379.51,169.65z
		 M401.93,126.27c11.87,0,21.61,9.27,22.38,20.94h-12.59c-10.59,0-21.01-2.55-30.37-7.4C384.79,131.86,392.72,126.27,401.93,126.27z
		 M291.84,137.82c0-19.18,15.61-34.79,34.79-34.79c17.3,0,31.7,12.7,34.35,29.26l-15.25-8.96c-3.81-2.24-8.69-1.4-11.53,1.99
		c-7.45,8.89-18.38,13.99-29.98,13.99h-12.38L291.84,137.82L291.84,137.82z M251.22,126.27c9.21,0,17.14,5.58,20.59,13.54
		c-9.37,4.85-19.78,7.4-30.37,7.4h-12.59C229.61,135.54,239.35,126.27,251.22,126.27z M272.55,226.1
		c-17.82,4.27-31.83,16.69-38.49,32.77h-36.71v-7.86c0-11.36,7.72-21.15,18.77-23.79l23.07-5.51c4.08-0.97,6.95-4.62,6.95-8.81
		v-3.05c1.67,0.21,3.36,0.33,5.08,0.33c1.71,0,3.39-0.12,5.05-0.33v2.58c-0.01,0.13-0.01,0.27-0.01,0.4c0,2.97,1.46,5.88,4.14,7.62
		c1.01,0.65,2.1,1.08,3.22,1.29l13.51,3.24L272.55,226.1z M326.56,249.46l-10.62-24.17v-6.46c3.46,0.71,7.04,1.09,10.7,1.09
		c3.6,0,7.12-0.37,10.52-1.05v6.49L326.56,249.46z M380.45,226.12l-4.55-1.09l13.58-3.26c1.13-0.21,2.24-0.64,3.27-1.3
		c2.68-1.73,4.14-4.64,4.14-7.62c0-0.07,0-0.14,0-0.21v-2.78c1.65,0.21,3.34,0.33,5.05,0.33c1.72,0,3.42-0.12,5.08-0.33v3.05
		c0,4.19,2.88,7.84,6.95,8.81l23.07,5.51c11.05,2.64,18.77,12.42,18.77,23.79v7.86h-36.84C412.3,242.8,398.28,230.38,380.45,226.12z
		"/>
	<linearGradient id="SVGID_7_" gradientUnits="userSpaceOnUse" x1="-349.4399" y1="315.3358" x2="886.1669" y2="310.8427">
		<stop  offset="0" style="stop-color:#FD0E12"/>
		<stop  offset="0.2382" style="stop-color:#FB0E13"/>
		<stop  offset="0.3241" style="stop-color:#F40F17"/>
		<stop  offset="0.3853" style="stop-color:#E8111E"/>
		<stop  offset="0.4348" style="stop-color:#D81427"/>
		<stop  offset="0.4771" style="stop-color:#C21834"/>
		<stop  offset="0.5147" style="stop-color:#A61C43"/>
		<stop  offset="0.5486" style="stop-color:#862155"/>
		<stop  offset="0.5798" style="stop-color:#60286A"/>
		<stop  offset="0.6076" style="stop-color:#372E82"/>
		<stop  offset="0.6246" style="stop-color:#1A3392"/>
	</linearGradient>
	<path class="st6" d="M326.52,303.82c-2.39,0-4.72,0.96-6.4,2.64c-1.69,1.69-2.65,4.02-2.65,6.41c0,2.38,0.96,4.71,2.65,6.4
		c1.68,1.68,4.01,2.65,6.4,2.65c2.38,0,4.71-0.97,6.4-2.65c1.68-1.69,2.65-4.02,2.65-6.4c0-2.39-0.97-4.72-2.65-6.41
		C331.23,304.78,328.9,303.82,326.52,303.82z"/>
	<linearGradient id="SVGID_8_" gradientUnits="userSpaceOnUse" x1="-350.3891" y1="54.2963" x2="885.2177" y2="49.8032">
		<stop  offset="0" style="stop-color:#FD0E12"/>
		<stop  offset="0.2382" style="stop-color:#FB0E13"/>
		<stop  offset="0.3241" style="stop-color:#F40F17"/>
		<stop  offset="0.3853" style="stop-color:#E8111E"/>
		<stop  offset="0.4348" style="stop-color:#D81427"/>
		<stop  offset="0.4771" style="stop-color:#C21834"/>
		<stop  offset="0.5147" style="stop-color:#A61C43"/>
		<stop  offset="0.5486" style="stop-color:#862155"/>
		<stop  offset="0.5798" style="stop-color:#60286A"/>
		<stop  offset="0.6076" style="stop-color:#372E82"/>
		<stop  offset="0.6246" style="stop-color:#1A3392"/>
	</linearGradient>
	<path class="st7" d="M326.51,67.67c5,0,9.06-4.06,9.06-9.06V45.06c0-5-4.06-9.06-9.06-9.06s-9.06,4.06-9.06,9.06v13.55
		C317.46,63.61,321.51,67.67,326.51,67.67z"/>
	<linearGradient id="SVGID_9_" gradientUnits="userSpaceOnUse" x1="-350.3338" y1="69.507" x2="885.273" y2="65.0139">
		<stop  offset="0" style="stop-color:#FD0E12"/>
		<stop  offset="0.2382" style="stop-color:#FB0E13"/>
		<stop  offset="0.3241" style="stop-color:#F40F17"/>
		<stop  offset="0.3853" style="stop-color:#E8111E"/>
		<stop  offset="0.4348" style="stop-color:#D81427"/>
		<stop  offset="0.4771" style="stop-color:#C21834"/>
		<stop  offset="0.5147" style="stop-color:#A61C43"/>
		<stop  offset="0.5486" style="stop-color:#862155"/>
		<stop  offset="0.5798" style="stop-color:#60286A"/>
		<stop  offset="0.6076" style="stop-color:#372E82"/>
		<stop  offset="0.6246" style="stop-color:#1A3392"/>
	</linearGradient>
	<path class="st8" d="M280.34,78.36c1.77,1.77,4.09,2.65,6.4,2.65c2.32,0,4.64-0.89,6.41-2.66c3.54-3.54,3.53-9.27-0.01-12.81
		l-9.5-9.49c-3.54-3.54-9.27-3.53-12.81,0.01c-3.54,3.54-3.53,9.27,0.01,12.81L280.34,78.36z"/>
	<linearGradient id="SVGID_10_" gradientUnits="userSpaceOnUse" x1="-350.3319" y1="70.0351" x2="885.275" y2="65.542">
		<stop  offset="0" style="stop-color:#FD0E12"/>
		<stop  offset="0.2382" style="stop-color:#FB0E13"/>
		<stop  offset="0.3241" style="stop-color:#F40F17"/>
		<stop  offset="0.3853" style="stop-color:#E8111E"/>
		<stop  offset="0.4348" style="stop-color:#D81427"/>
		<stop  offset="0.4771" style="stop-color:#C21834"/>
		<stop  offset="0.5147" style="stop-color:#A61C43"/>
		<stop  offset="0.5486" style="stop-color:#862155"/>
		<stop  offset="0.5798" style="stop-color:#60286A"/>
		<stop  offset="0.6076" style="stop-color:#372E82"/>
		<stop  offset="0.6246" style="stop-color:#1A3392"/>
	</linearGradient>
	<path class="st9" d="M366.14,81.19c2.32,0,4.64-0.89,6.41-2.66l9.43-9.44c3.54-3.54,3.53-9.27-0.01-12.81
		c-3.54-3.54-9.28-3.53-12.81,0.01l-9.43,9.44c-3.54,3.54-3.53,9.27,0.01,12.81C361.51,80.31,363.83,81.19,366.14,81.19z"/>
</g>
</svg>
