<?xml version="1.0" encoding="utf-8"?>
<!-- Generator: Adobe Illustrator 23.0.0, SVG Export Plug-In . SVG Version: 6.00 Build 0)  -->
<svg version="1.1" id="Capa_1" xmlns="http://www.w3.org/2000/svg" xmlns:xlink="http://www.w3.org/1999/xlink" x="0px" y="0px"
	 viewBox="0 0 653 602" style="enable-background:new 0 0 653 602;" xml:space="preserve">
<style type="text/css">
	.st0{fill:url(#SVGID_1_);}
	.st1{fill:url(#SVGID_2_);}
	.st2{fill:url(#SVGID_3_);}
	.st3{fill:url(#SVGID_4_);}
	.st4{fill:url(#SVGID_5_);}
	.st5{fill:url(#SVGID_6_);}
	.st6{fill:url(#SVGID_7_);}
	.st7{fill:url(#SVGID_8_);}
	.st8{fill:url(#SVGID_9_);}
	.st9{fill:url(#SVGID_10_);}
	.st10{fill:url(#SVGID_11_);}
	.st11{fill:url(#SVGID_12_);}
</style>
<g>
	<linearGradient id="SVGID_1_" gradientUnits="userSpaceOnUse" x1="-417.9822" y1="259.1168" x2="866.7405" y2="293.1042">
		<stop  offset="0" style="stop-color:#FD0E12"/>
		<stop  offset="0.2382" style="stop-color:#FB0E13"/>
		<stop  offset="0.3241" style="stop-color:#F40F17"/>
		<stop  offset="0.3853" style="stop-color:#E8111E"/>
		<stop  offset="0.4348" style="stop-color:#D81427"/>
		<stop  offset="0.4771" style="stop-color:#C21834"/>
		<stop  offset="0.5147" style="stop-color:#A61C43"/>
		<stop  offset="0.5486" style="stop-color:#862155"/>
		<stop  offset="0.5798" style="stop-color:#60286A"/>
		<stop  offset="0.6076" style="stop-color:#372E82"/>
		<stop  offset="0.6246" style="stop-color:#1A3392"/>
	</linearGradient>
	<path class="st0" d="M322.26,298.52c1.35,2.64,4.04,4.17,6.82,4.17c1.16,0,2.35-0.27,3.45-0.83c0.45-0.23,45.38-23.05,67.53-30.05
		c4.02-1.27,6.25-5.56,4.97-9.58c-1.27-4.02-5.52-6.25-9.58-4.98c-23.34,7.38-67.96,30.05-69.85,31.01
		C321.85,290.16,320.35,294.76,322.26,298.52L322.26,298.52z M322.26,298.52"/>
	<linearGradient id="SVGID_2_" gradientUnits="userSpaceOnUse" x1="-415.5609" y1="167.5904" x2="869.1618" y2="201.5777">
		<stop  offset="0" style="stop-color:#FD0E12"/>
		<stop  offset="0.2382" style="stop-color:#FB0E13"/>
		<stop  offset="0.3241" style="stop-color:#F40F17"/>
		<stop  offset="0.3853" style="stop-color:#E8111E"/>
		<stop  offset="0.4348" style="stop-color:#D81427"/>
		<stop  offset="0.4771" style="stop-color:#C21834"/>
		<stop  offset="0.5147" style="stop-color:#A61C43"/>
		<stop  offset="0.5486" style="stop-color:#862155"/>
		<stop  offset="0.5798" style="stop-color:#60286A"/>
		<stop  offset="0.6076" style="stop-color:#372E82"/>
		<stop  offset="0.6246" style="stop-color:#1A3392"/>
	</linearGradient>
	<path class="st1" d="M329.08,211.1c1.16,0,2.35-0.27,3.45-0.84c0.45-0.23,45.38-23.05,67.53-30.05c4.02-1.27,6.25-5.56,4.97-9.58
		c-1.27-4.01-5.52-6.25-9.58-4.98c-23.34,7.38-67.96,30.05-69.85,31.01c-3.76,1.91-5.25,6.5-3.35,10.26
		C323.61,209.57,326.3,211.1,329.08,211.1L329.08,211.1z M329.08,211.1"/>
	<linearGradient id="SVGID_3_" gradientUnits="userSpaceOnUse" x1="-399.7498" y1="261.8514" x2="884.973" y2="295.8387">
		<stop  offset="0" style="stop-color:#FD0E12"/>
		<stop  offset="0.2382" style="stop-color:#FB0E13"/>
		<stop  offset="0.3241" style="stop-color:#F40F17"/>
		<stop  offset="0.3853" style="stop-color:#E8111E"/>
		<stop  offset="0.4348" style="stop-color:#D81427"/>
		<stop  offset="0.4771" style="stop-color:#C21834"/>
		<stop  offset="0.5147" style="stop-color:#A61C43"/>
		<stop  offset="0.5486" style="stop-color:#862155"/>
		<stop  offset="0.5798" style="stop-color:#60286A"/>
		<stop  offset="0.6076" style="stop-color:#372E82"/>
		<stop  offset="0.6246" style="stop-color:#1A3392"/>
	</linearGradient>
	<path class="st2" d="M531.36,165.53c-4.22,0-7.63,3.42-7.63,7.63v297.67c0,12.63-10.27,22.9-22.89,22.9H317.65v-17.56
		c11.13-3.89,40.12-12.97,68.69-12.97c66.49,0,111.64,14.72,112.09,14.88c2.3,0.76,4.86,0.38,6.87-1.06
		c1.99-1.43,3.17-3.74,3.17-6.19V135c0-3.58-2.48-6.68-5.97-7.45c0,0-5.98-1.34-16.21-3.21c-4.13-0.76-8.12,1.99-8.89,6.12
		c-0.76,4.15,1.98,8.13,6.12,8.89c3.9,0.72,7.17,1.35,9.69,1.85v319.49c-17.3-4.54-55.7-12.76-106.86-12.76
		c-33.25,0-65.92,10.92-76.03,14.63c-8.98-3.97-36.14-14.63-68.99-14.63c-52.57,0-95.88,8.67-114.49,13.08V140.9
		c15.24-3.75,60.26-13.54,114.49-13.54c27.83,0,51.7,8.67,61.06,12.58V440.3c0,2.75,1.48,5.29,3.87,6.64
		c2.39,1.36,5.34,1.32,7.69-0.1c0.76-0.45,76.38-45.62,143.5-67.99c3.12-1.05,5.22-3.96,5.22-7.25V58.67c0-2.5-1.23-4.84-3.29-6.27
		c-2.04-1.43-4.67-1.76-7.03-0.88c-61.07,22.91-122.86,61.36-123.48,61.74c-3.57,2.24-4.66,6.94-2.42,10.52
		c2.23,3.57,6.94,4.66,10.52,2.43c0.56-0.36,54.32-33.81,110.45-56.38v296.31c-52.1,18.1-106.5,47.67-129.76,60.9V135
		c0-2.9-1.63-5.53-4.22-6.83c-1.31-0.65-32.6-16.07-72.11-16.07c-68.97,0-121.99,14.92-124.22,15.56c-3.27,0.93-5.53,3.93-5.53,7.34
		v335.84c0,2.39,1.13,4.65,3.03,6.09c1.35,1.02,2.96,1.54,4.6,1.54c0.7,0,1.41-0.1,2.09-0.3c0.52-0.14,53.31-14.97,120.03-14.97
		c27.9,0,51.75,8.69,61.06,12.59v17.94H119.19c-12.63,0-22.9-10.27-22.9-22.9V173.16c0-4.21-3.42-7.63-7.63-7.63
		c-4.21,0-7.63,3.42-7.63,7.63v297.67c0,21.05,17.12,38.17,38.16,38.17h381.64c21.04,0,38.16-17.12,38.16-38.17V173.16
		C538.99,168.95,535.58,165.53,531.36,165.53L531.36,165.53z M531.36,165.53"/>
	<linearGradient id="SVGID_4_" gradientUnits="userSpaceOnUse" x1="-416.7716" y1="213.3533" x2="867.9512" y2="247.3407">
		<stop  offset="0" style="stop-color:#FD0E12"/>
		<stop  offset="0.2382" style="stop-color:#FB0E13"/>
		<stop  offset="0.3241" style="stop-color:#F40F17"/>
		<stop  offset="0.3853" style="stop-color:#E8111E"/>
		<stop  offset="0.4348" style="stop-color:#D81427"/>
		<stop  offset="0.4771" style="stop-color:#C21834"/>
		<stop  offset="0.5147" style="stop-color:#A61C43"/>
		<stop  offset="0.5486" style="stop-color:#862155"/>
		<stop  offset="0.5798" style="stop-color:#60286A"/>
		<stop  offset="0.6076" style="stop-color:#372E82"/>
		<stop  offset="0.6246" style="stop-color:#1A3392"/>
	</linearGradient>
	<path class="st3" d="M322.26,252.73c1.35,2.64,4.04,4.17,6.82,4.17c1.16,0,2.35-0.27,3.45-0.83c0.45-0.23,45.38-23.05,67.53-30.05
		c4.02-1.27,6.25-5.56,4.97-9.58c-1.27-4.01-5.52-6.25-9.58-4.98c-23.34,7.38-67.96,30.05-69.85,31.01
		C321.85,244.37,320.35,248.97,322.26,252.73L322.26,252.73z M322.26,252.73"/>
	<linearGradient id="SVGID_5_" gradientUnits="userSpaceOnUse" x1="-419.1929" y1="305.3269" x2="865.5298" y2="339.3143">
		<stop  offset="0" style="stop-color:#FD0E12"/>
		<stop  offset="0.2382" style="stop-color:#FB0E13"/>
		<stop  offset="0.3241" style="stop-color:#F40F17"/>
		<stop  offset="0.3853" style="stop-color:#E8111E"/>
		<stop  offset="0.4348" style="stop-color:#D81427"/>
		<stop  offset="0.4771" style="stop-color:#C21834"/>
		<stop  offset="0.5147" style="stop-color:#A61C43"/>
		<stop  offset="0.5486" style="stop-color:#862155"/>
		<stop  offset="0.5798" style="stop-color:#60286A"/>
		<stop  offset="0.6076" style="stop-color:#372E82"/>
		<stop  offset="0.6246" style="stop-color:#1A3392"/>
	</linearGradient>
	<path class="st4" d="M322.26,344.76c1.35,2.64,4.04,4.17,6.82,4.17c1.16,0,2.35-0.27,3.45-0.83c0.45-0.23,45.38-23.05,67.53-30.05
		c4.02-1.27,6.25-5.56,4.97-9.58c-1.27-4.02-5.52-6.25-9.58-4.99c-23.34,7.38-67.96,30.05-69.85,31.01
		C321.85,336.41,320.35,341,322.26,344.76L322.26,344.76z M322.26,344.76"/>
	<linearGradient id="SVGID_6_" gradientUnits="userSpaceOnUse" x1="-416.801" y1="214.9113" x2="867.9218" y2="248.8987">
		<stop  offset="0" style="stop-color:#FD0E12"/>
		<stop  offset="0.2382" style="stop-color:#FB0E13"/>
		<stop  offset="0.3241" style="stop-color:#F40F17"/>
		<stop  offset="0.3853" style="stop-color:#E8111E"/>
		<stop  offset="0.4348" style="stop-color:#D81427"/>
		<stop  offset="0.4771" style="stop-color:#C21834"/>
		<stop  offset="0.5147" style="stop-color:#A61C43"/>
		<stop  offset="0.5486" style="stop-color:#862155"/>
		<stop  offset="0.5798" style="stop-color:#60286A"/>
		<stop  offset="0.6076" style="stop-color:#372E82"/>
		<stop  offset="0.6246" style="stop-color:#1A3392"/>
	</linearGradient>
	<path class="st5" d="M246.85,223.43c-47.13-11.06-100.69,3.03-102.94,3.63c-4.07,1.09-6.49,5.28-5.39,9.35
		c0.92,3.41,4,5.66,7.36,5.66c0.66,0,1.32-0.08,1.99-0.26c0.51-0.15,52.08-13.71,95.51-3.52c4.08,0.95,8.21-1.59,9.18-5.69
		C253.51,228.5,250.96,224.4,246.85,223.43L246.85,223.43z M246.85,223.43"/>
	<linearGradient id="SVGID_7_" gradientUnits="userSpaceOnUse" x1="-418.0117" y1="260.6781" x2="866.711" y2="294.6654">
		<stop  offset="0" style="stop-color:#FD0E12"/>
		<stop  offset="0.2382" style="stop-color:#FB0E13"/>
		<stop  offset="0.3241" style="stop-color:#F40F17"/>
		<stop  offset="0.3853" style="stop-color:#E8111E"/>
		<stop  offset="0.4348" style="stop-color:#D81427"/>
		<stop  offset="0.4771" style="stop-color:#C21834"/>
		<stop  offset="0.5147" style="stop-color:#A61C43"/>
		<stop  offset="0.5486" style="stop-color:#862155"/>
		<stop  offset="0.5798" style="stop-color:#60286A"/>
		<stop  offset="0.6076" style="stop-color:#372E82"/>
		<stop  offset="0.6246" style="stop-color:#1A3392"/>
	</linearGradient>
	<path class="st6" d="M246.85,269.23c-47.13-11.05-100.69,3.03-102.94,3.63c-4.07,1.09-6.49,5.28-5.39,9.35
		c0.92,3.41,4,5.66,7.36,5.66c0.66,0,1.32-0.08,1.99-0.26c0.51-0.14,52.08-13.71,95.51-3.52c4.08,0.95,8.21-1.59,9.18-5.7
		C253.51,274.3,250.96,270.19,246.85,269.23L246.85,269.23z M246.85,269.23"/>
	<linearGradient id="SVGID_8_" gradientUnits="userSpaceOnUse" x1="-420.4036" y1="351.0898" x2="864.3192" y2="385.0772">
		<stop  offset="0" style="stop-color:#FD0E12"/>
		<stop  offset="0.2382" style="stop-color:#FB0E13"/>
		<stop  offset="0.3241" style="stop-color:#F40F17"/>
		<stop  offset="0.3853" style="stop-color:#E8111E"/>
		<stop  offset="0.4348" style="stop-color:#D81427"/>
		<stop  offset="0.4771" style="stop-color:#C21834"/>
		<stop  offset="0.5147" style="stop-color:#A61C43"/>
		<stop  offset="0.5486" style="stop-color:#862155"/>
		<stop  offset="0.5798" style="stop-color:#60286A"/>
		<stop  offset="0.6076" style="stop-color:#372E82"/>
		<stop  offset="0.6246" style="stop-color:#1A3392"/>
	</linearGradient>
	<path class="st7" d="M322.26,390.56c1.35,2.64,4.04,4.17,6.82,4.17c1.16,0,2.35-0.27,3.45-0.83c0.45-0.23,45.38-23.05,67.53-30.05
		c4.02-1.27,6.25-5.56,4.97-9.58c-1.27-4.01-5.52-6.25-9.58-4.98c-23.34,7.38-67.96,30.05-69.85,31.01
		C321.85,382.2,320.35,386.8,322.26,390.56L322.26,390.56z M322.26,390.56"/>
	<linearGradient id="SVGID_9_" gradientUnits="userSpaceOnUse" x1="-419.2225" y1="306.4439" x2="865.5002" y2="340.4313">
		<stop  offset="0" style="stop-color:#FD0E12"/>
		<stop  offset="0.2382" style="stop-color:#FB0E13"/>
		<stop  offset="0.3241" style="stop-color:#F40F17"/>
		<stop  offset="0.3853" style="stop-color:#E8111E"/>
		<stop  offset="0.4348" style="stop-color:#D81427"/>
		<stop  offset="0.4771" style="stop-color:#C21834"/>
		<stop  offset="0.5147" style="stop-color:#A61C43"/>
		<stop  offset="0.5486" style="stop-color:#862155"/>
		<stop  offset="0.5798" style="stop-color:#60286A"/>
		<stop  offset="0.6076" style="stop-color:#372E82"/>
		<stop  offset="0.6246" style="stop-color:#1A3392"/>
	</linearGradient>
	<path class="st8" d="M246.85,315.03c-47.13-11.05-100.69,3.02-102.94,3.63c-4.07,1.09-6.49,5.27-5.39,9.35
		c0.92,3.41,4,5.66,7.36,5.66c0.66,0,1.32-0.09,1.99-0.27c0.51-0.14,52.08-13.71,95.51-3.52c4.08,0.96,8.21-1.59,9.18-5.69
		C253.51,320.09,250.96,315.99,246.85,315.03L246.85,315.03z M246.85,315.03"/>
	<linearGradient id="SVGID_10_" gradientUnits="userSpaceOnUse" x1="-421.6439" y1="397.9719" x2="863.0789" y2="431.9593">
		<stop  offset="0" style="stop-color:#FD0E12"/>
		<stop  offset="0.2382" style="stop-color:#FB0E13"/>
		<stop  offset="0.3241" style="stop-color:#F40F17"/>
		<stop  offset="0.3853" style="stop-color:#E8111E"/>
		<stop  offset="0.4348" style="stop-color:#D81427"/>
		<stop  offset="0.4771" style="stop-color:#C21834"/>
		<stop  offset="0.5147" style="stop-color:#A61C43"/>
		<stop  offset="0.5486" style="stop-color:#862155"/>
		<stop  offset="0.5798" style="stop-color:#60286A"/>
		<stop  offset="0.6076" style="stop-color:#372E82"/>
		<stop  offset="0.6246" style="stop-color:#1A3392"/>
	</linearGradient>
	<path class="st9" d="M246.85,406.62c-47.13-11.06-100.69,3.03-102.94,3.63c-4.07,1.09-6.49,5.28-5.39,9.35
		c0.92,3.41,4,5.67,7.36,5.67c0.66,0,1.32-0.09,1.99-0.27c0.51-0.15,52.08-13.71,95.51-3.52c4.08,0.95,8.21-1.59,9.18-5.7
		C253.51,411.69,250.96,407.58,246.85,406.62L246.85,406.62z M246.85,406.62"/>
	<linearGradient id="SVGID_11_" gradientUnits="userSpaceOnUse" x1="-420.4332" y1="352.2075" x2="864.2896" y2="386.1948">
		<stop  offset="0" style="stop-color:#FD0E12"/>
		<stop  offset="0.2382" style="stop-color:#FB0E13"/>
		<stop  offset="0.3241" style="stop-color:#F40F17"/>
		<stop  offset="0.3853" style="stop-color:#E8111E"/>
		<stop  offset="0.4348" style="stop-color:#D81427"/>
		<stop  offset="0.4771" style="stop-color:#C21834"/>
		<stop  offset="0.5147" style="stop-color:#A61C43"/>
		<stop  offset="0.5486" style="stop-color:#862155"/>
		<stop  offset="0.5798" style="stop-color:#60286A"/>
		<stop  offset="0.6076" style="stop-color:#372E82"/>
		<stop  offset="0.6246" style="stop-color:#1A3392"/>
	</linearGradient>
	<path class="st10" d="M246.85,360.82c-47.13-11.06-100.69,3.02-102.94,3.63c-4.07,1.09-6.49,5.27-5.39,9.35
		c0.92,3.41,4,5.66,7.36,5.66c0.66,0,1.32-0.09,1.99-0.27c0.51-0.14,52.08-13.71,95.51-3.52c4.08,0.96,8.21-1.59,9.18-5.7
		C253.51,365.89,250.96,361.79,246.85,360.82L246.85,360.82z M246.85,360.82"/>
</g>
<g>
	<g>
		<linearGradient id="SVGID_12_" gradientUnits="userSpaceOnUse" x1="918.4456" y1="398.9499" x2="921.3427" y2="399.0266">
			<stop  offset="0" style="stop-color:#FD0E12"/>
			<stop  offset="0.2382" style="stop-color:#FB0E13"/>
			<stop  offset="0.3241" style="stop-color:#F40F17"/>
			<stop  offset="0.3853" style="stop-color:#E8111E"/>
			<stop  offset="0.4348" style="stop-color:#D81427"/>
			<stop  offset="0.4771" style="stop-color:#C21834"/>
			<stop  offset="0.5147" style="stop-color:#A61C43"/>
			<stop  offset="0.5486" style="stop-color:#862155"/>
			<stop  offset="0.5798" style="stop-color:#60286A"/>
			<stop  offset="0.6076" style="stop-color:#372E82"/>
			<stop  offset="0.6246" style="stop-color:#1A3392"/>
		</linearGradient>
		<path class="st11" d="M919.89,400.49c1.93,0,1.93-3,0-3C917.96,397.49,917.96,400.49,919.89,400.49L919.89,400.49z"/>
	</g>
</g>
</svg>
