<?xml version="1.0" encoding="utf-8"?>
<!-- Generator: Adobe Illustrator 23.0.0, SVG Export Plug-In . SVG Version: 6.00 Build 0)  -->
<svg version="1.1" id="Capa_1" xmlns="http://www.w3.org/2000/svg" xmlns:xlink="http://www.w3.org/1999/xlink" x="0px" y="0px"
	 viewBox="0 0 755.69 427.79" style="enable-background:new 0 0 755.69 427.79;" xml:space="preserve">
<style type="text/css">
	.st0{fill:#FA060A;}
	.st1{fill:#16348F;}
	.st2{fill:#E21512;}
</style>
<g>
	<path class="st0" d="M169.2,61.31h33.92c10.45,0,18.83,2.97,24.51,8.64c4.9,4.9,7.61,12,7.61,20.9v0.52
		c0,13.67-6.84,22.31-16.77,26.7l19.22,33.54h-21.41l-16.64-29.67H187.9v29.67h-18.7V61.31z M201.71,105.42
		c9.54,0,14.7-5.42,14.7-13.54v-0.13c0-9.03-5.55-13.54-15.09-13.54H187.9v27.22H201.71z"/>
	<path class="st0" d="M275.62,60.8h17.8l32.38,90.81h-19.35L299.74,132h-31.09l-6.58,19.61h-18.83L275.62,60.8z M294.06,115.49
		l-9.8-29.41l-9.93,29.41H294.06z"/>
	<path class="st0" d="M337.01,61.31h58.17v17.16h-39.47v20.25h34.7v17.16h-34.7v35.73h-18.7V61.31z"/>
	<path class="st0" d="M425.75,60.8h17.8l32.38,90.81h-19.35L449.87,132h-31.09l-6.58,19.61h-18.83L425.75,60.8z M444.2,115.49
		l-9.8-29.41l-9.93,29.41H444.2z"/>
	<path class="st0" d="M487.15,61.31h58.17v16.9h-39.6v19.48h34.83v16.9h-34.83v20.12h40.12v16.9h-58.69V61.31z"/>
	<path class="st0" d="M560.54,61.31h18.7v73.14h36.5v17.16h-55.21V61.31z"/>
	<path class="st1" d="M156.45,167.88h46.25c15.81,0,27.75,4.21,35.32,11.94c6.56,6.56,10.26,15.64,10.26,27.58v0.84
		c0,17.49-8.58,28.42-21.02,34.65l24.22,42.72h-34.14l-20.01-36.5h-10.76v36.5h-30.11V167.88z M201.53,225.07
		c10.26,0,16.31-5.88,16.31-15.3v-0.34c0-10.09-6.39-15.14-16.48-15.14h-14.8v30.78H201.53z"/>
	<path class="st1" d="M262.41,167.88h30.27v117.73h-30.27V167.88z"/>
	<path class="st1" d="M307.48,228.09v-2.52c0-35.15,23.04-59.87,54.66-59.87c31.79,0,54.49,24.39,54.49,59.71v2.52
		c0,35.15-23.04,59.87-54.66,59.87C330.18,287.8,307.48,263.41,307.48,228.09z M385.68,227.76v-1.85c0-20.35-9.75-32.8-23.71-32.8
		c-13.96,0-23.54,12.28-23.54,32.63v1.85c0,20.35,9.75,32.8,23.71,32.8C376.27,260.39,385.68,248.11,385.68,227.76z"/>
	<path class="st1" d="M430.75,167.88h30.27v90.48h46.25v27.25h-76.52V167.88z"/>
	<path class="st1" d="M519.21,167.88h30.27v90.48h46.25v27.25h-76.52V167.88z"/>
	<path class="st1" d="M598.26,228.09v-2.52c0-35.15,23.04-59.87,54.66-59.87c31.79,0,54.49,24.39,54.49,59.71v2.52
		c0,35.15-23.04,59.87-54.66,59.87C620.96,287.8,598.26,263.41,598.26,228.09z M676.46,227.76v-1.85c0-20.35-9.75-32.8-23.71-32.8
		c-13.96,0-23.55,12.28-23.55,32.63v1.85c0,20.35,9.76,32.8,23.72,32.8C667.05,260.39,676.46,248.11,676.46,227.76z"/>
	<g id="XMLID_103_">
		<g id="XMLID_220_">
			<g>
				<g id="XMLID_66_">
					
						<rect id="XMLID_67_" x="132.4" y="188.74" transform="matrix(0.7071 -0.7071 0.7071 0.7071 -93.539 154.8789)" class="st2" width="15.59" height="3.24"/>
				</g>
				<g id="XMLID_64_">
					
						<rect id="XMLID_65_" x="124.8" y="183.23" transform="matrix(0.7071 -0.7071 0.7071 0.7071 -90.7141 150.6932)" class="st2" width="23.49" height="3.24"/>
				</g>
				<g id="XMLID_62_">
					
						<rect id="XMLID_63_" x="118.67" y="179.79" transform="matrix(0.7071 -0.7071 0.7071 0.7071 -89.9607 145.6375)" class="st2" width="24.3" height="3.24"/>
				</g>
				<g id="XMLID_60_">
					
						<rect id="XMLID_61_" x="111.51" y="176.98" transform="matrix(0.7071 -0.7071 0.7071 0.7071 -89.8349 140.3229)" class="st2" width="25.92" height="3.24"/>
				</g>
			</g>
		</g>
		<g id="XMLID_218_">
			<path id="XMLID_219_" class="st1" d="M134.77,253.9c-0.65-0.24-1.3-0.36-1.94-0.36c-0.81,0-1.59,0.18-2.35,0.53
				c-0.76,0.35-1.46,0.8-2.11,1.34c-1.62,1.4-3.23,2.58-4.82,3.52c-1.59,0.95-3.27,1.71-5.02,2.31c-1.76,0.59-3.66,1.01-5.71,1.25
				c-2.05,0.24-4.32,0.37-6.8,0.37c-4.32,0-8.37-0.84-12.15-2.51c-1.58-0.7-3.06-1.56-4.47-2.53l-18.16,18.16
				c2.75,1.84,5.71,3.46,8.9,4.83c7.1,3.05,15.13,4.58,24.09,4.58c9.77,0,18.23-1.58,25.39-4.74c7.15-3.16,13.11-7.84,17.86-14.05
				l-10.85-11.42C136.03,254.56,135.41,254.14,134.77,253.9z"/>
		</g>
		<g id="XMLID_214_">
			<g>
				<path id="XMLID_9_" class="st2" d="M77.23,209.4c1.65-4.64,3.94-8.6,6.88-11.86c2.94-3.27,6.46-5.78,10.57-7.53
					c4.1-1.75,8.64-2.63,13.6-2.63c1.01,0,1.95,0.04,2.87,0.09l18.96-18.96c-2.88-1.05-5.92-1.91-9.15-2.55
					c-3.92-0.78-8.09-1.18-12.51-1.18c-9.13,0-17.47,1.49-25.03,4.45c-7.56,2.97-14.05,7.13-19.48,12.47
					c-5.43,5.34-9.65,11.7-12.67,19.07c-3.02,7.37-4.54,15.46-4.54,24.25c0,8.31,1.24,16.03,3.69,23.16l24.38-24.38
					C74.91,218.52,75.7,213.71,77.23,209.4z"/>
			</g>
		</g>
		<g id="XMLID_104_">
			<g id="XMLID_212_">
				
					<rect id="XMLID_213_" x="62.41" y="261.17" transform="matrix(0.7071 -0.7071 0.7071 0.7071 -163.6848 130.4084)" class="st1" width="26.32" height="3.24"/>
			</g>
			<g id="XMLID_177_">
				
					<rect id="XMLID_211_" x="57.65" y="256.16" transform="matrix(0.7071 -0.7071 0.7071 0.7071 -161.3576 126.0047)" class="st1" width="27.54" height="3.24"/>
			</g>
			<g id="XMLID_109_">
				
					<rect id="XMLID_110_" x="53.47" y="250.57" transform="matrix(0.7071 -0.7071 0.7071 0.7071 -158.4552 121.8397)" class="st1" width="28.75" height="3.24"/>
			</g>
			<g id="XMLID_107_">
				
					<rect id="XMLID_108_" x="49.49" y="244.13" transform="matrix(0.7071 -0.7071 0.7071 0.7071 -154.7682 117.8558)" class="st1" width="30.78" height="3.24"/>
			</g>
			<g id="XMLID_105_">
				
					<rect id="XMLID_106_" x="46.21" y="236.83" transform="matrix(0.7071 -0.7071 0.7071 0.7071 -150.1529 114.3997)" class="st2" width="33.62" height="3.24"/>
			</g>
		</g>
	</g>
</g>
<g>
	<path class="st1" d="M69.02,327.18c0-6.73,2.64-14.14,7.29-18.85c3.65-3.59,7.8-5.67,13.07-5.67c5.78,0,9.93,2.75,12.68,6.62
		l-5.33,4.43c-2.08-3.03-4.32-4.83-7.8-4.83c-2.86,0-5.39,1.4-7.46,3.42c-3.2,3.25-5.44,8.98-5.44,14.64c0,5.95,3.25,9.87,8.3,9.87
		c2.81,0,5.27-1.23,7.8-3.37l3.87,4.71c-3.14,2.97-6.96,4.88-11.67,4.88C75.31,343.06,69.02,337.06,69.02,327.18z"/>
	<path class="st1" d="M127.93,324.82c0,5.33-2.08,10.6-5.5,14.03c-2.64,2.69-6,4.26-9.87,4.26c-7.24,0-11.78-5.22-11.78-12.74
		c0-5.39,2.02-10.6,5.5-14.08c2.64-2.69,6-4.26,9.87-4.26C123.38,312.03,127.93,317.19,127.93,324.82z M117.6,335.26
		c2.41-2.47,3.81-6.85,3.81-10.27c0-4.71-2.24-7.18-5.61-7.18c-1.79,0-3.42,0.84-4.71,2.08c-2.47,2.41-3.82,6.85-3.82,10.27
		c0,4.71,2.24,7.18,5.61,7.18C114.69,337.34,116.31,336.55,117.6,335.26z"/>
	<path class="st1" d="M137.13,312.59h6.62l-0.79,3.48c1.91-2.19,4.43-4.04,7.8-4.04c4.49,0,7.46,2.92,7.46,7.85
		c0,1.46-0.39,3.48-0.9,5.61l-4.04,17h-6.73l4.15-17.11c0.39-1.4,0.51-2.75,0.51-3.48c0-2.47-1.35-3.82-3.87-3.82
		c-3.14,0-5.67,2.81-6.51,6.51l-4.38,17.9h-6.62L137.13,312.59z"/>
	<path class="st1" d="M181.56,303.22h26.76l-2.36,9.2h-16.44l-1.57,6.84h14.81l-2.24,8.75h-14.76l-3.48,14.47h-10.32L181.56,303.22z
		"/>
	<path class="st1" d="M213.7,330.43c0.11,3.14,1.74,4.94,4.66,4.94c2.02,0,3.81-0.73,5.95-2.19l3.93,6.34
		c-2.75,2.19-6.4,3.65-10.77,3.65c-8.25,0-13.07-5.11-13.07-13.18c0-5.1,2.02-10.49,5.67-14.14c2.75-2.75,6.34-4.43,10.83-4.43
		c7.57,0,11.39,5.16,11.39,11.78c0,2.19-0.39,4.71-1.23,7.24H213.7z M214.43,324.94h8.53c0.28-1.01,0.34-1.57,0.34-2.36
		c0-2.02-1.12-3.54-3.14-3.54c-1.23,0-2.41,0.56-3.37,1.51C215.78,321.57,214.94,323.14,214.43,324.94z"/>
	<path class="st1" d="M253.48,337.62l-3.14,13.3h-6.68l9.37-38.32h6.62l-0.9,3.7c2.36-2.52,4.82-4.26,8.08-4.26
		c5.16,0,9.31,4.26,9.31,12.01c0,5.72-2.08,11.39-5.67,15.04c-2.52,2.47-5.67,3.93-8.92,3.93C257.57,343,254.93,340.7,253.48,337.62
		z M265.37,335.26c2.41-2.41,3.93-6.51,3.93-10.66c0-4.26-1.91-6.9-5.27-6.9c-1.85,0-3.59,0.79-5.05,2.24
		c-2.41,2.47-3.87,6.68-3.87,10.55c0,4.21,2.24,6.85,5.55,6.85C262.23,337.34,264.02,336.66,265.37,335.26z"/>
	<path class="st1" d="M278.38,335.09c0-3.03,1.01-5.78,3.03-7.8c2.08-2.02,5.16-3.2,8.7-3.2c2.81,0,5.16,0.62,7.35,1.4l0.17-0.67
		c0.22-1.07,0.39-2.08,0.39-2.97c0-2.24-1.4-3.87-5.22-3.87c-2.3,0-4.54,0.62-6.68,1.57l-1.51-5.39c2.58-1.12,5.67-1.91,9.26-1.91
		c6.9,0,10.66,3.09,10.66,8.19c0,1.68-0.34,3.48-0.84,5.44l-3.93,16.61h-6.51l0.9-3.59c-2.13,2.52-4.71,4.15-8.02,4.15
		C281.41,343.06,278.38,339.8,278.38,335.09z M295.94,331.73l0.56-2.41c-1.4-0.56-3.42-1.01-5.27-1.01c-1.96,0-3.48,0.62-4.54,1.68
		c-1.07,1.07-1.68,2.75-1.68,4.43c0,2.36,1.46,3.93,3.87,3.93C292.35,338.35,295.1,335.2,295.94,331.73z"/>
	<path class="st1" d="M313.78,312.59h6.62l-1.29,5.39c2.52-3.82,5.55-6.23,10.1-5.89l-1.85,6.96h-0.39c-5.05,0-8.86,2.86-10.55,9.76
		l-3.31,13.69h-6.62L313.78,312.59z"/>
	<path class="st1" d="M326.01,335.09c0-3.03,1.01-5.78,3.03-7.8c2.08-2.02,5.16-3.2,8.7-3.2c2.81,0,5.16,0.62,7.35,1.4l0.17-0.67
		c0.22-1.07,0.39-2.08,0.39-2.97c0-2.24-1.4-3.87-5.22-3.87c-2.3,0-4.54,0.62-6.68,1.57l-1.51-5.39c2.58-1.12,5.67-1.91,9.26-1.91
		c6.9,0,10.66,3.09,10.66,8.19c0,1.68-0.34,3.48-0.84,5.44l-3.93,16.61h-6.51l0.9-3.59c-2.13,2.52-4.71,4.15-8.02,4.15
		C329.04,343.06,326.01,339.8,326.01,335.09z M343.57,331.73l0.56-2.41c-1.4-0.56-3.42-1.01-5.27-1.01c-1.96,0-3.48,0.62-4.54,1.68
		c-1.07,1.07-1.68,2.75-1.68,4.43c0,2.36,1.46,3.93,3.87,3.93C339.98,338.35,342.73,335.2,343.57,331.73z"/>
	<path class="st1" d="M368.98,336.44c0-1.23,0.22-2.47,0.56-3.87l2.97-12.4h-3.03l2.02-8.14h3.03l1.8-7.46h10.1l-1.8,7.46h5.61
		l-2.08,8.14h-5.55l-2.69,11.16c-0.17,0.62-0.22,1.18-0.22,1.63c0,0.9,0.62,1.46,1.91,1.46c1.01,0,2.08-0.22,3.31-0.67l-2.08,8.25
		c-1.68,0.67-3.7,1.07-5.83,1.07C371.79,343.06,368.98,340.65,368.98,336.44z"/>
	<path class="st1" d="M394.06,312.03h10.04l-1.29,5.22c2.36-3.76,5.22-6,9.37-5.72l-2.81,10.83h-0.67c-4.94,0-7.8,2.52-9.31,8.7
		l-2.69,11.45h-10.1L394.06,312.03z"/>
	<path class="st1" d="M407.91,335.26c0-3.09,1.07-6.17,3.09-8.19c2.02-2.02,5.11-3.14,8.86-3.14c2.36,0,4.32,0.45,6.4,1.18
		l0.11-0.45c0.17-0.67,0.28-1.46,0.28-2.13c0-1.74-1.12-2.92-4.26-2.92c-2.3,0-5.05,0.67-6.96,1.46l-1.63-7.63
		c3.09-1.12,6.73-1.8,10.72-1.8c8.02,0,12.17,3.25,12.17,8.92c0,1.57-0.28,3.25-0.73,4.99l-4.04,16.94H422l0.67-2.92
		c-2.19,2.19-4.38,3.48-7.41,3.48C410.72,343.06,407.91,339.97,407.91,335.26z M424.69,331.95l0.5-2.13
		c-0.84-0.34-2.08-0.62-3.14-0.62c-1.29,0-2.36,0.39-3.09,1.18c-0.9,0.84-1.4,2.24-1.4,3.65c0,1.68,0.84,2.75,2.47,2.75
		C422.33,336.77,424.07,334.53,424.69,331.95z"/>
	<path class="st1" d="M443.82,312.03h10.04l-0.79,3.2c1.8-1.96,4.43-3.82,7.69-3.82c4.66,0,7.46,2.97,7.46,7.85
		c0,1.46-0.34,3.31-0.79,5.33l-4.32,17.9h-10.1l4.1-16.89c0.28-1.12,0.39-2.13,0.39-2.69c0-1.63-0.79-2.52-2.52-2.52
		c-2.24,0-3.65,1.74-4.26,4.49l-4.26,17.62h-10.1L443.82,312.03z"/>
	<path class="st1" d="M466.65,337.95l4.94-6.28c2.64,2.58,5.72,4.15,8.19,4.15c1.46,0,2.24-0.79,2.24-1.8
		c0-1.18-0.95-1.79-4.04-3.65c-4.04-2.41-6.51-4.71-6.51-8.7c0-5.61,4.38-10.27,11.84-10.27c4.77,0,8.81,1.85,11.67,4.32l-4.77,6.45
		c-2.36-2.08-4.88-3.42-7.18-3.42c-1.23,0-2.08,0.67-2.08,1.63c0,1.12,0.79,1.63,3.93,3.48c4.32,2.52,6.68,4.94,6.68,8.98
		c0,5.33-4.1,10.32-11.84,10.32C474.56,343.17,470.07,341.21,466.65,337.95z"/>
	<path class="st1" d="M499.35,320.17h-3.09l2.08-8.14h2.97l0.22-0.79c0.73-3.09,1.85-5.33,3.42-6.9c1.96-1.91,4.77-2.81,8.3-2.81
		c2.36,0,4.26,0.34,5.89,0.84l-1.85,7.24c-0.79-0.28-1.96-0.51-2.81-0.51c-1.91,0-2.69,0.84-3.09,2.47l-0.17,0.56h5.5l-2.08,8.02
		h-5.27l-5.39,22.33h-10.1L499.35,320.17z"/>
	<path class="st1" d="M544.4,324.54c0,5.16-2.02,10.66-5.5,14.14c-2.8,2.86-6.45,4.49-10.72,4.49c-8.19,0-12.9-5.44-12.9-13.13
		c0-5.22,1.96-10.66,5.5-14.19c2.81-2.8,6.4-4.43,10.72-4.43C539.64,311.42,544.4,316.8,544.4,324.54z M531.78,333.35
		c1.85-1.8,2.97-5.5,2.97-8.42c0-3.37-1.46-5.1-3.81-5.1c-1.18,0-2.24,0.5-3.09,1.35c-1.8,1.8-2.97,5.55-2.97,8.47
		c0,3.31,1.51,5.11,3.82,5.11C529.93,334.76,531,334.19,531.78,333.35z"/>
	<path class="st1" d="M551.75,312.03h10.04l-1.29,5.22c2.36-3.76,5.22-6,9.37-5.72l-2.81,10.83h-0.67c-4.94,0-7.8,2.52-9.31,8.7
		l-2.69,11.45h-10.1L551.75,312.03z"/>
	<path class="st1" d="M572.9,312.03h10.04l-0.79,3.14c1.91-2.02,4.38-3.76,7.69-3.76c3.42,0,5.72,1.8,6.73,4.71
		c2.52-2.92,5.72-4.71,9.48-4.71c4.99,0,7.69,2.97,7.69,7.57c0,1.74-0.34,3.59-0.79,5.5l-4.32,18.01H598.6l4.1-17
		c0.28-1.01,0.39-2.08,0.39-2.64c0-1.63-0.79-2.47-2.47-2.47c-2.13,0-3.59,1.63-4.26,4.38l-4.32,17.73h-10.04l4.15-17
		c0.22-1.01,0.39-2.02,0.39-2.64c0-1.57-0.84-2.47-2.52-2.47c-2.19,0-3.59,1.68-4.21,4.49l-4.32,17.62h-10.04L572.9,312.03z"/>
	<path class="st1" d="M614.13,335.26c0-3.09,1.07-6.17,3.09-8.19c2.02-2.02,5.11-3.14,8.86-3.14c2.36,0,4.32,0.45,6.4,1.18
		l0.11-0.45c0.17-0.67,0.28-1.46,0.28-2.13c0-1.74-1.12-2.92-4.26-2.92c-2.3,0-5.05,0.67-6.96,1.46l-1.63-7.63
		c3.09-1.12,6.73-1.8,10.72-1.8c8.02,0,12.17,3.25,12.17,8.92c0,1.57-0.28,3.25-0.73,4.99l-4.04,16.94h-9.93l0.67-2.92
		c-2.19,2.19-4.38,3.48-7.41,3.48C616.94,343.06,614.13,339.97,614.13,335.26z M630.91,331.95l0.5-2.13
		c-0.84-0.34-2.08-0.62-3.14-0.62c-1.29,0-2.36,0.39-3.09,1.18c-0.9,0.84-1.4,2.24-1.4,3.65c0,1.68,0.84,2.75,2.47,2.75
		C628.55,336.77,630.29,334.53,630.91,331.95z"/>
	<path class="st1" d="M650.04,312.03h10.04l-1.29,5.22c2.36-3.76,5.22-6,9.37-5.72l-2.8,10.83h-0.67c-4.94,0-7.8,2.52-9.31,8.7
		l-2.69,11.45h-10.1L650.04,312.03z"/>
</g>
</svg>
