<?xml version="1.0" encoding="utf-8"?>
<!-- Generator: Adobe Illustrator 23.0.0, SVG Export Plug-In . SVG Version: 6.00 Build 0)  -->
<svg version="1.1" id="Capa_1" xmlns="http://www.w3.org/2000/svg" xmlns:xlink="http://www.w3.org/1999/xlink" x="0px" y="0px"
	 viewBox="0 0 755.69 427.79" style="enable-background:new 0 0 755.69 427.79;" xml:space="preserve">
<style type="text/css">
	.st0{fill:#FA060A;}
	.st1{fill:#16348F;}
	.st2{fill:#E21512;}
</style>
<g>
	<path class="st0" d="M37.05,161.09h24.58c7.57,0,13.64,2.15,17.76,6.26c3.55,3.55,5.51,8.69,5.51,15.14v0.37
		c0,9.91-4.95,16.17-12.15,19.35l13.93,24.3H71.16L59.1,205.01h-8.5v21.49H37.05V161.09z M60.6,193.05c6.92,0,10.65-3.92,10.65-9.81
		v-0.09c0-6.54-4.02-9.81-10.93-9.81H50.6v19.72H60.6z"/>
	<path class="st0" d="M114.14,160.72h12.9l23.46,65.79h-14.02l-4.86-14.2H109.1l-4.77,14.2H90.69L114.14,160.72z M127.51,200.34
		l-7.1-21.31l-7.2,21.31H127.51z"/>
	<path class="st0" d="M158.62,161.09h42.15v12.43h-28.6v14.67h25.14v12.43h-25.14v25.89h-13.55V161.09z"/>
	<path class="st0" d="M222.92,160.72h12.9l23.46,65.79h-14.02l-4.86-14.2h-22.52l-4.77,14.2h-13.64L222.92,160.72z M236.28,200.34
		l-7.1-21.31l-7.2,21.31H236.28z"/>
	<path class="st0" d="M267.4,161.09h42.15v12.24h-28.69v14.11h25.23v12.24h-25.23v14.58h29.06v12.24H267.4V161.09z"/>
	<path class="st0" d="M320.57,161.09h13.55v52.99h26.45v12.43h-40V161.09z"/>
	<path class="st1" d="M429.18,161.68h25.31c8.65,0,15.19,2.3,19.33,6.54c3.59,3.59,5.61,8.56,5.61,15.1v0.46
		c0,9.57-4.69,15.56-11.51,18.96l13.26,23.38h-18.69l-10.95-19.97h-5.89v19.97h-16.48V161.68z M453.85,192.98
		c5.61,0,8.93-3.22,8.93-8.38v-0.18c0-5.52-3.5-8.28-9.02-8.28h-8.1v16.84H453.85z"/>
	<path class="st1" d="M487.17,161.68h16.57v64.43h-16.57V161.68z"/>
	<path class="st1" d="M511.84,194.63v-1.38c0-19.24,12.61-32.77,29.92-32.77c17.4,0,29.82,13.35,29.82,32.68v1.38
		c0,19.24-12.61,32.77-29.92,32.77C524.27,227.31,511.84,213.96,511.84,194.63z M554.64,194.45v-1.01
		c0-11.14-5.34-17.95-12.98-17.95c-7.64,0-12.89,6.72-12.89,17.86v1.01c0,11.14,5.34,17.95,12.98,17.95
		C549.49,212.31,554.64,205.59,554.64,194.45z"/>
	<path class="st1" d="M579.31,161.68h16.57v49.52h25.31v14.91h-41.88V161.68z"/>
	<path class="st1" d="M627.72,161.68h16.57v49.52h25.31v14.91h-41.88V161.68z"/>
	<path class="st1" d="M670.98,194.63v-1.38c0-19.24,12.61-32.77,29.92-32.77c17.4,0,29.82,13.35,29.82,32.68v1.38
		c0,19.24-12.61,32.77-29.92,32.77C683.41,227.31,670.98,213.96,670.98,194.63z M713.79,194.45v-1.01
		c0-11.14-5.34-17.95-12.98-17.95s-12.89,6.72-12.89,17.86v1.01c0,11.14,5.34,17.95,12.98,17.95
		C708.63,212.31,713.79,205.59,713.79,194.45z"/>
	<g id="XMLID_24_">
		<g id="XMLID_68_">
			<g>
				<g id="XMLID_85_">
					
						<rect id="XMLID_86_" x="416.02" y="173.09" transform="matrix(0.7071 -0.7071 0.7071 0.7071 0.0685 348.1271)" class="st2" width="8.53" height="1.77"/>
				</g>
				<g id="XMLID_81_">
					
						<rect id="XMLID_84_" x="411.86" y="170.08" transform="matrix(0.7071 -0.7071 0.7071 0.7071 1.6233 345.8497)" class="st2" width="12.86" height="1.77"/>
				</g>
				<g id="XMLID_79_">
					
						<rect id="XMLID_80_" x="408.51" y="168.2" transform="matrix(0.7071 -0.7071 0.7071 0.7071 2.0357 343.0827)" class="st2" width="13.3" height="1.77"/>
				</g>
				<g id="XMLID_77_">
					
						<rect id="XMLID_78_" x="404.58" y="166.66" transform="matrix(0.7071 -0.7071 0.7071 0.7071 2.1045 340.174)" class="st2" width="14.19" height="1.77"/>
				</g>
			</g>
		</g>
		<g id="XMLID_62_">
			<path id="XMLID_64_" class="st1" d="M417.32,208.76c-0.35-0.13-0.71-0.2-1.06-0.2c-0.44,0-0.87,0.1-1.28,0.29
				c-0.41,0.19-0.8,0.44-1.15,0.73c-0.89,0.77-1.77,1.41-2.64,1.93c-0.87,0.52-1.79,0.94-2.75,1.26c-0.96,0.33-2,0.55-3.13,0.69
				c-1.12,0.13-2.37,0.2-3.72,0.2c-2.36,0-4.58-0.46-6.65-1.37c-0.86-0.38-1.67-0.86-2.45-1.39l-9.94,9.94
				c1.51,1.01,3.13,1.89,4.87,2.64c3.89,1.67,8.28,2.5,13.19,2.5c5.35,0,9.98-0.86,13.9-2.59c3.91-1.73,7.17-4.29,9.77-7.69
				l-5.94-6.25C418.01,209.12,417.67,208.89,417.32,208.76z"/>
		</g>
		<g id="XMLID_54_">
			<g>
				<path id="XMLID_9_" class="st2" d="M385.82,184.4c0.9-2.54,2.16-4.71,3.77-6.49c1.61-1.79,3.54-3.16,5.78-4.12
					c2.24-0.96,4.73-1.44,7.45-1.44c0.55,0,1.07,0.02,1.57,0.05l10.38-10.38c-1.58-0.57-3.24-1.04-5.01-1.4
					c-2.14-0.43-4.43-0.64-6.85-0.64c-4.99,0-9.56,0.81-13.7,2.44c-4.14,1.63-7.69,3.9-10.66,6.83c-2.97,2.93-5.28,6.41-6.94,10.44
					c-1.66,4.03-2.48,8.46-2.48,13.27c0,4.55,0.68,8.77,2.02,12.68l13.34-13.34C384.56,189.4,384.99,186.76,385.82,184.4z"/>
			</g>
		</g>
		<g id="XMLID_25_">
			<g id="XMLID_38_">
				
					<rect id="XMLID_51_" x="377.72" y="212.74" transform="matrix(0.7071 -0.7071 0.7071 0.7071 -38.3135 334.7478)" class="st1" width="14.41" height="1.77"/>
			</g>
			<g id="XMLID_36_">
				
					<rect id="XMLID_37_" x="375.11" y="209.99" transform="matrix(0.7071 -0.7071 0.7071 0.7071 -37.0399 332.3376)" class="st1" width="15.07" height="1.77"/>
			</g>
			<g id="XMLID_34_">
				
					<rect id="XMLID_35_" x="372.82" y="206.94" transform="matrix(0.7071 -0.7071 0.7071 0.7071 -35.4514 330.0581)" class="st1" width="15.74" height="1.77"/>
			</g>
			<g id="XMLID_32_">
				
					<rect id="XMLID_33_" x="370.64" y="203.41" transform="matrix(0.7071 -0.7071 0.7071 0.7071 -33.4335 327.8777)" class="st1" width="16.85" height="1.77"/>
			</g>
			<g id="XMLID_30_">
				
					<rect id="XMLID_31_" x="368.85" y="199.42" transform="matrix(0.7071 -0.7071 0.7071 0.7071 -30.9076 325.9862)" class="st2" width="18.4" height="1.77"/>
			</g>
		</g>
	</g>
</g>
<g>
	<path class="st1" d="M141.28,257.24c0-5.06,1.98-10.62,5.48-14.15c2.74-2.7,5.86-4.25,9.82-4.25c4.34,0,7.46,2.06,9.52,4.97
		l-4,3.33c-1.56-2.28-3.24-3.62-5.86-3.62c-2.15,0-4.04,1.05-5.6,2.57c-2.4,2.44-4.09,6.74-4.09,11c0,4.47,2.44,7.41,6.23,7.41
		c2.11,0,3.96-0.93,5.86-2.53l2.91,3.54c-2.36,2.23-5.22,3.67-8.76,3.67C146,269.16,141.28,264.66,141.28,257.24z"/>
	<path class="st1" d="M185.51,255.47c0,4-1.56,7.96-4.13,10.53c-1.98,2.02-4.51,3.2-7.41,3.2c-5.43,0-8.85-3.92-8.85-9.56
		c0-4.04,1.52-7.96,4.13-10.57c1.98-2.02,4.51-3.2,7.41-3.2C182.1,245.87,185.51,249.74,185.51,255.47z M177.76,263.31
		c1.81-1.85,2.86-5.14,2.86-7.71c0-3.54-1.68-5.39-4.21-5.39c-1.35,0-2.57,0.63-3.54,1.56c-1.85,1.81-2.86,5.14-2.86,7.71
		c0,3.54,1.69,5.39,4.21,5.39C175.57,264.87,176.79,264.28,177.76,263.31z"/>
	<path class="st1" d="M192.41,246.29h4.97l-0.59,2.61c1.43-1.64,3.33-3.03,5.86-3.03c3.37,0,5.6,2.19,5.6,5.9
		c0,1.1-0.29,2.61-0.67,4.21l-3.03,12.76h-5.06l3.12-12.85c0.3-1.05,0.38-2.06,0.38-2.61c0-1.85-1.01-2.86-2.91-2.86
		c-2.36,0-4.25,2.11-4.89,4.89l-3.29,13.44h-4.97L192.41,246.29z"/>
	<path class="st1" d="M225.78,239.26h20.09l-1.77,6.91h-12.34l-1.18,5.14h11.12l-1.69,6.57h-11.08l-2.61,10.87h-7.75L225.78,239.26z
		"/>
	<path class="st1" d="M249.91,259.69c0.08,2.36,1.31,3.71,3.5,3.71c1.52,0,2.86-0.55,4.47-1.64l2.95,4.76
		c-2.06,1.64-4.8,2.74-8.09,2.74c-6.19,0-9.82-3.83-9.82-9.9c0-3.83,1.52-7.88,4.25-10.62c2.06-2.06,4.76-3.33,8.13-3.33
		c5.69,0,8.55,3.88,8.55,8.85c0,1.64-0.29,3.54-0.93,5.43H249.91z M250.46,255.56h6.4c0.21-0.76,0.25-1.18,0.25-1.77
		c0-1.52-0.84-2.65-2.36-2.65c-0.93,0-1.81,0.42-2.53,1.14C251.47,253.03,250.84,254.21,250.46,255.56z"/>
	<path class="st1" d="M279.78,265.08l-2.36,9.98h-5.01l7.03-28.77h4.97l-0.67,2.78c1.77-1.9,3.62-3.2,6.07-3.2
		c3.88,0,6.99,3.2,6.99,9.02c0,4.3-1.56,8.55-4.25,11.29c-1.9,1.85-4.25,2.95-6.7,2.95C282.85,269.12,280.87,267.4,279.78,265.08z
		 M288.71,263.31c1.81-1.81,2.95-4.89,2.95-8c0-3.2-1.43-5.18-3.96-5.18c-1.39,0-2.7,0.59-3.79,1.68c-1.81,1.85-2.91,5.01-2.91,7.92
		c0,3.16,1.69,5.14,4.17,5.14C286.35,264.87,287.7,264.36,288.71,263.31z"/>
	<path class="st1" d="M298.48,263.18c0-2.27,0.76-4.34,2.28-5.86c1.56-1.52,3.88-2.4,6.53-2.4c2.11,0,3.88,0.46,5.52,1.05l0.13-0.51
		c0.17-0.8,0.29-1.56,0.29-2.23c0-1.68-1.05-2.91-3.92-2.91c-1.73,0-3.41,0.46-5.01,1.18l-1.14-4.04c1.94-0.84,4.25-1.43,6.95-1.43
		c5.18,0,8,2.32,8,6.15c0,1.26-0.25,2.61-0.63,4.09l-2.95,12.47h-4.89l0.67-2.7c-1.6,1.9-3.54,3.12-6.02,3.12
		C300.75,269.16,298.48,266.72,298.48,263.18z M311.66,260.66l0.42-1.81c-1.05-0.42-2.57-0.76-3.96-0.76
		c-1.47,0-2.61,0.46-3.41,1.26c-0.8,0.8-1.26,2.06-1.26,3.33c0,1.77,1.1,2.95,2.91,2.95C308.97,265.63,311.03,263.27,311.66,260.66z
		"/>
	<path class="st1" d="M325.06,246.29h4.97l-0.97,4.04c1.9-2.86,4.17-4.68,7.58-4.42l-1.39,5.22h-0.29c-3.79,0-6.66,2.15-7.92,7.33
		l-2.49,10.28h-4.97L325.06,246.29z"/>
	<path class="st1" d="M334.24,263.18c0-2.27,0.76-4.34,2.27-5.86c1.56-1.52,3.88-2.4,6.53-2.4c2.11,0,3.88,0.46,5.52,1.05l0.13-0.51
		c0.17-0.8,0.29-1.56,0.29-2.23c0-1.68-1.05-2.91-3.92-2.91c-1.73,0-3.41,0.46-5.01,1.18l-1.14-4.04c1.94-0.84,4.25-1.43,6.95-1.43
		c5.18,0,8,2.32,8,6.15c0,1.26-0.25,2.61-0.63,4.09l-2.95,12.47h-4.89l0.67-2.7c-1.6,1.9-3.54,3.12-6.02,3.12
		C336.51,269.16,334.24,266.72,334.24,263.18z M347.42,260.66l0.42-1.81c-1.05-0.42-2.57-0.76-3.96-0.76
		c-1.47,0-2.61,0.46-3.41,1.26c-0.8,0.8-1.26,2.06-1.26,3.33c0,1.77,1.1,2.95,2.91,2.95C344.73,265.63,346.79,263.27,347.42,260.66z
		"/>
	<path class="st1" d="M366.5,264.19c0-0.93,0.17-1.85,0.42-2.91l2.23-9.31h-2.27l1.52-6.11h2.27l1.35-5.6h7.58l-1.35,5.6h4.21
		l-1.56,6.11h-4.17l-2.02,8.38c-0.13,0.46-0.17,0.88-0.17,1.22c0,0.67,0.46,1.1,1.43,1.1c0.76,0,1.56-0.17,2.49-0.51l-1.56,6.19
		c-1.26,0.51-2.78,0.8-4.38,0.8C368.61,269.16,366.5,267.35,366.5,264.19z"/>
	<path class="st1" d="M385.33,245.87h7.54l-0.97,3.92c1.77-2.82,3.92-4.51,7.04-4.3l-2.11,8.13h-0.51c-3.71,0-5.86,1.9-6.99,6.53
		l-2.02,8.59h-7.58L385.33,245.87z"/>
	<path class="st1" d="M395.74,263.31c0-2.32,0.8-4.63,2.32-6.15c1.52-1.52,3.83-2.36,6.66-2.36c1.77,0,3.24,0.34,4.8,0.88l0.08-0.34
		c0.13-0.51,0.21-1.1,0.21-1.6c0-1.31-0.84-2.19-3.2-2.19c-1.73,0-3.79,0.51-5.22,1.1l-1.22-5.73c2.32-0.84,5.06-1.35,8.05-1.35
		c6.02,0,9.14,2.44,9.14,6.7c0,1.18-0.21,2.44-0.55,3.75l-3.03,12.72h-7.46l0.51-2.19c-1.64,1.64-3.29,2.61-5.56,2.61
		C397.84,269.16,395.74,266.85,395.74,263.31z M408.33,260.82l0.38-1.6c-0.63-0.25-1.56-0.46-2.36-0.46c-0.97,0-1.77,0.29-2.32,0.88
		c-0.67,0.63-1.05,1.68-1.05,2.74c0,1.26,0.63,2.06,1.85,2.06C406.56,264.45,407.87,262.76,408.33,260.82z"/>
	<path class="st1" d="M422.7,245.87h7.54l-0.59,2.4c1.35-1.47,3.33-2.86,5.77-2.86c3.5,0,5.6,2.23,5.6,5.9c0,1.1-0.25,2.49-0.59,4
		l-3.24,13.44h-7.58l3.08-12.68c0.21-0.84,0.29-1.6,0.29-2.02c0-1.22-0.59-1.9-1.9-1.9c-1.68,0-2.74,1.31-3.2,3.37l-3.2,13.23h-7.58
		L422.7,245.87z"/>
	<path class="st1" d="M439.84,265.33l3.71-4.72c1.98,1.94,4.3,3.12,6.15,3.12c1.1,0,1.69-0.59,1.69-1.35c0-0.88-0.72-1.35-3.03-2.74
		c-3.03-1.81-4.89-3.54-4.89-6.53c0-4.21,3.29-7.71,8.89-7.71c3.58,0,6.61,1.39,8.76,3.24l-3.58,4.84
		c-1.77-1.56-3.67-2.57-5.39-2.57c-0.93,0-1.56,0.51-1.56,1.22c0,0.84,0.59,1.22,2.95,2.61c3.24,1.9,5.01,3.71,5.01,6.74
		c0,4-3.08,7.75-8.89,7.75C445.78,269.25,442.41,267.77,439.84,265.33z"/>
	<path class="st1" d="M464.4,251.98h-2.32l1.56-6.11h2.23l0.17-0.59c0.55-2.32,1.39-4,2.57-5.18c1.47-1.43,3.58-2.11,6.23-2.11
		c1.77,0,3.2,0.25,4.42,0.63l-1.39,5.43c-0.59-0.21-1.47-0.38-2.11-0.38c-1.43,0-2.02,0.63-2.32,1.85l-0.13,0.42h4.13l-1.56,6.02
		h-3.96l-4.04,16.77h-7.58L464.4,251.98z"/>
	<path class="st1" d="M498.22,255.26c0,3.88-1.52,8-4.13,10.62c-2.11,2.15-4.84,3.37-8.05,3.37c-6.15,0-9.69-4.09-9.69-9.86
		c0-3.92,1.47-8,4.13-10.66c2.11-2.11,4.8-3.33,8.05-3.33C494.64,245.41,498.22,249.45,498.22,255.26z M488.74,261.88
		c1.39-1.35,2.23-4.13,2.23-6.32c0-2.53-1.1-3.83-2.86-3.83c-0.88,0-1.69,0.38-2.32,1.01c-1.35,1.35-2.23,4.17-2.23,6.36
		c0,2.49,1.14,3.83,2.86,3.83C487.35,262.93,488.15,262.51,488.74,261.88z"/>
	<path class="st1" d="M503.74,245.87h7.54l-0.97,3.92c1.77-2.82,3.92-4.51,7.03-4.3l-2.11,8.13h-0.51c-3.71,0-5.86,1.9-6.99,6.53
		l-2.02,8.59h-7.58L503.74,245.87z"/>
	<path class="st1" d="M519.62,245.87h7.54l-0.59,2.36c1.43-1.52,3.29-2.82,5.77-2.82c2.57,0,4.3,1.35,5.06,3.54
		c1.9-2.19,4.3-3.54,7.12-3.54c3.75,0,5.77,2.23,5.77,5.69c0,1.31-0.25,2.7-0.59,4.13l-3.24,13.52h-7.54l3.08-12.76
		c0.21-0.76,0.29-1.56,0.29-1.98c0-1.22-0.59-1.85-1.85-1.85c-1.6,0-2.7,1.22-3.2,3.29l-3.24,13.31h-7.54l3.12-12.76
		c0.17-0.76,0.29-1.52,0.29-1.98c0-1.18-0.63-1.85-1.9-1.85c-1.64,0-2.7,1.26-3.16,3.37l-3.24,13.23h-7.54L519.62,245.87z"/>
	<path class="st1" d="M550.58,263.31c0-2.32,0.8-4.63,2.32-6.15c1.52-1.52,3.83-2.36,6.66-2.36c1.77,0,3.24,0.34,4.8,0.88l0.08-0.34
		c0.13-0.51,0.21-1.1,0.21-1.6c0-1.31-0.84-2.19-3.2-2.19c-1.73,0-3.79,0.51-5.22,1.1l-1.22-5.73c2.32-0.84,5.06-1.35,8.05-1.35
		c6.02,0,9.14,2.44,9.14,6.7c0,1.18-0.21,2.44-0.55,3.75l-3.03,12.72h-7.46l0.51-2.19c-1.64,1.64-3.29,2.61-5.56,2.61
		C552.68,269.16,550.58,266.85,550.58,263.31z M563.17,260.82l0.38-1.6c-0.63-0.25-1.56-0.46-2.36-0.46c-0.97,0-1.77,0.29-2.32,0.88
		c-0.67,0.63-1.05,1.68-1.05,2.74c0,1.26,0.63,2.06,1.85,2.06C561.4,264.45,562.71,262.76,563.17,260.82z"/>
	<path class="st1" d="M577.54,245.87h7.54l-0.97,3.92c1.77-2.82,3.92-4.51,7.03-4.3l-2.11,8.13h-0.51c-3.71,0-5.86,1.9-6.99,6.53
		l-2.02,8.59h-7.58L577.54,245.87z"/>
</g>
</svg>
