<?xml version="1.0" encoding="utf-8"?>
<!-- Generator: Adobe Illustrator 23.0.0, SVG Export Plug-In . SVG Version: 6.00 Build 0)  -->
<svg version="1.1" id="Capa_1" xmlns="http://www.w3.org/2000/svg" xmlns:xlink="http://www.w3.org/1999/xlink" x="0px" y="0px"
	 viewBox="0 0 1224 792" style="enable-background:new 0 0 1224 792;" xml:space="preserve">
<style type="text/css">
	.st0{fill:url(#SVGID_1_);}
	.st1{fill:url(#SVGID_2_);}
	.st2{fill:url(#SVGID_3_);}
	.st3{fill:url(#SVGID_4_);}
	.st4{fill:url(#SVGID_5_);}
	.st5{fill:url(#SVGID_6_);}
	.st6{fill:url(#SVGID_7_);}
	.st7{fill:url(#SVGID_8_);}
	.st8{fill:url(#SVGID_9_);}
	.st9{fill:url(#SVGID_10_);}
	.st10{fill:url(#SVGID_11_);}
	.st11{fill:url(#SVGID_12_);}
	.st12{fill:url(#SVGID_13_);}
	.st13{fill:url(#SVGID_14_);}
	.st14{fill:url(#SVGID_15_);}
	.st15{fill:url(#SVGID_16_);}
	.st16{fill:url(#SVGID_17_);}
	.st17{fill:url(#SVGID_18_);}
	.st18{fill:url(#SVGID_19_);}
	.st19{fill:url(#SVGID_20_);}
	.st20{fill:url(#SVGID_21_);}
	.st21{fill:url(#SVGID_22_);}
	.st22{fill:url(#SVGID_23_);}
	.st23{fill:url(#SVGID_24_);}
	.st24{fill:url(#SVGID_25_);}
</style>
<g>
	
		<linearGradient id="SVGID_1_" gradientUnits="userSpaceOnUse" x1="42.5001" y1="409.9386" x2="1240.0814" y2="404.9486" gradientTransform="matrix(1 0 0 -1 0 794)">
		<stop  offset="0" style="stop-color:#E41B26"/>
		<stop  offset="0.242" style="stop-color:#E21B27"/>
		<stop  offset="0.3292" style="stop-color:#DB1D2B"/>
		<stop  offset="0.3913" style="stop-color:#D02032"/>
		<stop  offset="0.4416" style="stop-color:#BF253B"/>
		<stop  offset="0.4846" style="stop-color:#A92A48"/>
		<stop  offset="0.5228" style="stop-color:#8D3157"/>
		<stop  offset="0.5572" style="stop-color:#6D3A6A"/>
		<stop  offset="0.5889" style="stop-color:#474380"/>
		<stop  offset="0.6171" style="stop-color:#1E4E97"/>
		<stop  offset="0.6246" style="stop-color:#12519E"/>
	</linearGradient>
	<path class="st0" d="M114.03,363.17H93.77l4.95-18.74h62.09l-4.95,18.74h-20.15l-15.32,61.25H98.72L114.03,363.17z"/>
	
		<linearGradient id="SVGID_2_" gradientUnits="userSpaceOnUse" x1="42.5009" y1="410.1213" x2="1240.0823" y2="405.1314" gradientTransform="matrix(1 0 0 -1 0 794)">
		<stop  offset="0" style="stop-color:#E41B26"/>
		<stop  offset="0.242" style="stop-color:#E21B27"/>
		<stop  offset="0.3292" style="stop-color:#DB1D2B"/>
		<stop  offset="0.3913" style="stop-color:#D02032"/>
		<stop  offset="0.4416" style="stop-color:#BF253B"/>
		<stop  offset="0.4846" style="stop-color:#A92A48"/>
		<stop  offset="0.5228" style="stop-color:#8D3157"/>
		<stop  offset="0.5572" style="stop-color:#6D3A6A"/>
		<stop  offset="0.5889" style="stop-color:#474380"/>
		<stop  offset="0.6171" style="stop-color:#1E4E97"/>
		<stop  offset="0.6246" style="stop-color:#12519E"/>
	</linearGradient>
	<path class="st1" d="M185.19,400.08h-1.3h-5.42l-5.89,24.34H150.9l20.15-79.99h25.09c12.61,0,20.97,2.63,26.15,7.66
		c4.24,4.11,6.36,9.71,6.36,16.34c0,8.23-2.71,15.31-7.89,20.46c-2.95,2.86-7.07,5.71-13.78,7.89l10.37,27.65h-23.56L185.19,400.08z
		 M190.96,383.4c5.3,0,9.31-1.26,12.02-3.77c2.12-2.17,3.42-5.6,3.42-8.8c0-2.51-0.82-4.34-2.36-5.71
		c-1.65-1.71-4.48-2.51-8.48-2.51h-7.54l-5.07,20.8h8.01V383.4z"/>
	
		<linearGradient id="SVGID_3_" gradientUnits="userSpaceOnUse" x1="42.5033" y1="410.6963" x2="1240.0846" y2="405.7064" gradientTransform="matrix(1 0 0 -1 0 794)">
		<stop  offset="0" style="stop-color:#E41B26"/>
		<stop  offset="0.242" style="stop-color:#E21B27"/>
		<stop  offset="0.3292" style="stop-color:#DB1D2B"/>
		<stop  offset="0.3913" style="stop-color:#D02032"/>
		<stop  offset="0.4416" style="stop-color:#BF253B"/>
		<stop  offset="0.4846" style="stop-color:#A92A48"/>
		<stop  offset="0.5228" style="stop-color:#8D3157"/>
		<stop  offset="0.5572" style="stop-color:#6D3A6A"/>
		<stop  offset="0.5889" style="stop-color:#474380"/>
		<stop  offset="0.6171" style="stop-color:#1E4E97"/>
		<stop  offset="0.6246" style="stop-color:#12519E"/>
	</linearGradient>
	<path class="st2" d="M270.02,343.97h21.91l8.6,80.45h-22.38l-1.06-14.63h-24.86l-8.25,14.63h-23.09L270.02,343.97z M275.79,393
		l-1.18-23.54L262.24,393H275.79z"/>
	
		<linearGradient id="SVGID_4_" gradientUnits="userSpaceOnUse" x1="42.504" y1="410.8673" x2="1240.0853" y2="405.8774" gradientTransform="matrix(1 0 0 -1 0 794)">
		<stop  offset="0" style="stop-color:#E41B26"/>
		<stop  offset="0.242" style="stop-color:#E21B27"/>
		<stop  offset="0.3292" style="stop-color:#DB1D2B"/>
		<stop  offset="0.3913" style="stop-color:#D02032"/>
		<stop  offset="0.4416" style="stop-color:#BF253B"/>
		<stop  offset="0.4846" style="stop-color:#A92A48"/>
		<stop  offset="0.5228" style="stop-color:#8D3157"/>
		<stop  offset="0.5572" style="stop-color:#6D3A6A"/>
		<stop  offset="0.5889" style="stop-color:#474380"/>
		<stop  offset="0.6171" style="stop-color:#1E4E97"/>
		<stop  offset="0.6246" style="stop-color:#12519E"/>
	</linearGradient>
	<path class="st3" d="M328.81,344.43h20.38l15.43,43.08l10.72-43.08h21.32l-20.15,79.99h-19.2l-16.26-44.8l-11.07,44.8h-21.32
		L328.81,344.43z"/>
	
		<linearGradient id="SVGID_5_" gradientUnits="userSpaceOnUse" x1="42.5052" y1="411.1674" x2="1240.0867" y2="406.1775" gradientTransform="matrix(1 0 0 -1 0 794)">
		<stop  offset="0" style="stop-color:#E41B26"/>
		<stop  offset="0.242" style="stop-color:#E21B27"/>
		<stop  offset="0.3292" style="stop-color:#DB1D2B"/>
		<stop  offset="0.3913" style="stop-color:#D02032"/>
		<stop  offset="0.4416" style="stop-color:#BF253B"/>
		<stop  offset="0.4846" style="stop-color:#A92A48"/>
		<stop  offset="0.5228" style="stop-color:#8D3157"/>
		<stop  offset="0.5572" style="stop-color:#6D3A6A"/>
		<stop  offset="0.5889" style="stop-color:#474380"/>
		<stop  offset="0.6171" style="stop-color:#1E4E97"/>
		<stop  offset="0.6246" style="stop-color:#12519E"/>
	</linearGradient>
	<path class="st4" d="M390.08,412.19l13.2-14.74c7.07,6.74,14.02,10.29,20.62,10.29c4.36,0,7.19-2.29,7.19-5.71
		c0-2.86-1.88-4.8-10.6-9.83c-11.19-6.4-17.32-12.57-17.32-22.51c0-7.2,2.83-13.48,7.42-17.94c5.54-5.37,13.55-8.57,23.33-8.57
		c12.25,0,22.03,4.57,29.22,11.2l-12.96,14.86c-5.18-4.68-10.96-8.11-17.44-8.11c-4.59,0-7.19,2.4-7.19,5.37s1.89,4.69,10.84,9.94
		c10.37,5.94,17.32,12,17.32,22.63c0,7.31-2.83,13.6-7.78,18.4c-5.42,5.26-13.78,8.23-23.33,8.23
		C409.51,425.68,398.2,420.65,390.08,412.19z"/>
	
		<linearGradient id="SVGID_6_" gradientUnits="userSpaceOnUse" x1="42.5065" y1="411.4714" x2="1240.0879" y2="406.4814" gradientTransform="matrix(1 0 0 -1 0 794)">
		<stop  offset="0" style="stop-color:#E41B26"/>
		<stop  offset="0.242" style="stop-color:#E21B27"/>
		<stop  offset="0.3292" style="stop-color:#DB1D2B"/>
		<stop  offset="0.3913" style="stop-color:#D02032"/>
		<stop  offset="0.4416" style="stop-color:#BF253B"/>
		<stop  offset="0.4846" style="stop-color:#A92A48"/>
		<stop  offset="0.5228" style="stop-color:#8D3157"/>
		<stop  offset="0.5572" style="stop-color:#6D3A6A"/>
		<stop  offset="0.5889" style="stop-color:#474380"/>
		<stop  offset="0.6171" style="stop-color:#1E4E97"/>
		<stop  offset="0.6246" style="stop-color:#12519E"/>
	</linearGradient>
	<path class="st5" d="M479.61,344.43h56.2l-4.95,18.74h-34.52l-3.3,13.94h31.1l-4.71,17.83h-30.99l-7.3,29.48h-21.68L479.61,344.43z
		"/>
	
		<linearGradient id="SVGID_7_" gradientUnits="userSpaceOnUse" x1="42.5078" y1="411.7816" x2="1240.0891" y2="406.7917" gradientTransform="matrix(1 0 0 -1 0 794)">
		<stop  offset="0" style="stop-color:#E41B26"/>
		<stop  offset="0.242" style="stop-color:#E21B27"/>
		<stop  offset="0.3292" style="stop-color:#DB1D2B"/>
		<stop  offset="0.3913" style="stop-color:#D02032"/>
		<stop  offset="0.4416" style="stop-color:#BF253B"/>
		<stop  offset="0.4846" style="stop-color:#A92A48"/>
		<stop  offset="0.5228" style="stop-color:#8D3157"/>
		<stop  offset="0.5572" style="stop-color:#6D3A6A"/>
		<stop  offset="0.5889" style="stop-color:#474380"/>
		<stop  offset="0.6171" style="stop-color:#1E4E97"/>
		<stop  offset="0.6246" style="stop-color:#12519E"/>
	</linearGradient>
	<path class="st6" d="M610.51,375.97c0,13.03-5.18,28.68-15.32,38.4c-7.3,7.08-17.08,11.54-28.51,11.54
		c-19.79,0-32.99-13.03-32.99-33.03c0-13.03,5.18-28.68,15.31-38.51c7.31-7.09,17.08-11.43,28.51-11.43
		C597.31,342.94,610.51,355.97,610.51,375.97z M579.4,402.25c5.77-5.6,9.19-17.03,9.19-24.8c0-9.83-4.59-15.54-12.96-15.54
		c-4.24,0-7.78,1.6-10.84,4.69c-5.77,5.6-9.19,17.14-9.19,24.8c0,9.94,4.6,15.54,12.96,15.54
		C572.69,406.94,576.34,405.22,579.4,402.25z"/>
	
		<linearGradient id="SVGID_8_" gradientUnits="userSpaceOnUse" x1="42.5089" y1="412.0417" x2="1240.0902" y2="407.0518" gradientTransform="matrix(1 0 0 -1 0 794)">
		<stop  offset="0" style="stop-color:#E41B26"/>
		<stop  offset="0.242" style="stop-color:#E21B27"/>
		<stop  offset="0.3292" style="stop-color:#DB1D2B"/>
		<stop  offset="0.3913" style="stop-color:#D02032"/>
		<stop  offset="0.4416" style="stop-color:#BF253B"/>
		<stop  offset="0.4846" style="stop-color:#A92A48"/>
		<stop  offset="0.5228" style="stop-color:#8D3157"/>
		<stop  offset="0.5572" style="stop-color:#6D3A6A"/>
		<stop  offset="0.5889" style="stop-color:#474380"/>
		<stop  offset="0.6171" style="stop-color:#1E4E97"/>
		<stop  offset="0.6246" style="stop-color:#12519E"/>
	</linearGradient>
	<path class="st7" d="M646.09,400.08h-1.3h-5.42l-5.89,24.34H611.8l20.15-79.99h25.09c12.61,0,20.97,2.63,26.15,7.66
		c4.24,4.11,6.36,9.71,6.36,16.34c0,8.23-2.71,15.31-7.89,20.46c-2.95,2.86-7.07,5.71-13.78,7.89l10.37,27.65h-23.56L646.09,400.08z
		 M651.86,383.4c5.3,0,9.31-1.26,12.02-3.77c2.12-2.17,3.42-5.6,3.42-8.8c0-2.51-0.82-4.34-2.36-5.71
		c-1.65-1.71-4.48-2.51-8.48-2.51h-7.54l-5.07,20.8h8.01V383.4z"/>
	
		<linearGradient id="SVGID_9_" gradientUnits="userSpaceOnUse" x1="42.5106" y1="412.4686" x2="1240.092" y2="407.4787" gradientTransform="matrix(1 0 0 -1 0 794)">
		<stop  offset="0" style="stop-color:#E41B26"/>
		<stop  offset="0.242" style="stop-color:#E21B27"/>
		<stop  offset="0.3292" style="stop-color:#DB1D2B"/>
		<stop  offset="0.3913" style="stop-color:#D02032"/>
		<stop  offset="0.4416" style="stop-color:#BF253B"/>
		<stop  offset="0.4846" style="stop-color:#A92A48"/>
		<stop  offset="0.5228" style="stop-color:#8D3157"/>
		<stop  offset="0.5572" style="stop-color:#6D3A6A"/>
		<stop  offset="0.5889" style="stop-color:#474380"/>
		<stop  offset="0.6171" style="stop-color:#1E4E97"/>
		<stop  offset="0.6246" style="stop-color:#12519E"/>
	</linearGradient>
	<path class="st8" d="M708.65,344.43h21.8l8.13,29.94l22.97-29.94h23.92l-20.15,79.99h-21.56l11.19-45.48l-24.39,30.28h-0.35
		l-9.19-30.05l-11.19,45.25H688.5L708.65,344.43z"/>
	
		<linearGradient id="SVGID_10_" gradientUnits="userSpaceOnUse" x1="42.5129" y1="413.001" x2="1240.0942" y2="408.0111" gradientTransform="matrix(1 0 0 -1 0 794)">
		<stop  offset="0" style="stop-color:#E41B26"/>
		<stop  offset="0.242" style="stop-color:#E21B27"/>
		<stop  offset="0.3292" style="stop-color:#DB1D2B"/>
		<stop  offset="0.3913" style="stop-color:#D02032"/>
		<stop  offset="0.4416" style="stop-color:#BF253B"/>
		<stop  offset="0.4846" style="stop-color:#A92A48"/>
		<stop  offset="0.5228" style="stop-color:#8D3157"/>
		<stop  offset="0.5572" style="stop-color:#6D3A6A"/>
		<stop  offset="0.5889" style="stop-color:#474380"/>
		<stop  offset="0.6171" style="stop-color:#1E4E97"/>
		<stop  offset="0.6246" style="stop-color:#12519E"/>
	</linearGradient>
	<path class="st9" d="M823.17,343.97h21.91l8.6,80.45H831.3l-1.06-14.63h-24.86l-8.25,14.63h-23.09L823.17,343.97z M828.94,393
		l-1.18-23.54L815.39,393H828.94z"/>
	
		<linearGradient id="SVGID_11_" gradientUnits="userSpaceOnUse" x1="42.5135" y1="413.1529" x2="1240.0947" y2="408.1629" gradientTransform="matrix(1 0 0 -1 0 794)">
		<stop  offset="0" style="stop-color:#E41B26"/>
		<stop  offset="0.242" style="stop-color:#E21B27"/>
		<stop  offset="0.3292" style="stop-color:#DB1D2B"/>
		<stop  offset="0.3913" style="stop-color:#D02032"/>
		<stop  offset="0.4416" style="stop-color:#BF253B"/>
		<stop  offset="0.4846" style="stop-color:#A92A48"/>
		<stop  offset="0.5228" style="stop-color:#8D3157"/>
		<stop  offset="0.5572" style="stop-color:#6D3A6A"/>
		<stop  offset="0.5889" style="stop-color:#474380"/>
		<stop  offset="0.6171" style="stop-color:#1E4E97"/>
		<stop  offset="0.6246" style="stop-color:#12519E"/>
	</linearGradient>
	<path class="st10" d="M863.11,392.43c0-13.26,4.95-27.88,14.96-37.6c7.54-7.2,16.85-11.77,29.57-11.77
		c12.72,0,22.86,6.06,28.51,15.43l-16.73,12.46c-3.53-5.26-7.19-8.57-13.2-8.57c-4.71,0-8.6,2.06-11.78,5.26
		c-5.66,5.37-8.95,14.97-8.95,23.31c0,9.71,5.42,15.54,13.08,15.54c4.95,0,9.19-2.17,13.9-6.29l12.02,14.29
		c-7.07,6.86-15.9,11.31-27.33,11.31C876.77,425.79,863.11,412.99,863.11,392.43z"/>
	
		<linearGradient id="SVGID_12_" gradientUnits="userSpaceOnUse" x1="42.5144" y1="413.3665" x2="1240.0957" y2="408.3766" gradientTransform="matrix(1 0 0 -1 0 794)">
		<stop  offset="0" style="stop-color:#E41B26"/>
		<stop  offset="0.242" style="stop-color:#E21B27"/>
		<stop  offset="0.3292" style="stop-color:#DB1D2B"/>
		<stop  offset="0.3913" style="stop-color:#D02032"/>
		<stop  offset="0.4416" style="stop-color:#BF253B"/>
		<stop  offset="0.4846" style="stop-color:#A92A48"/>
		<stop  offset="0.5228" style="stop-color:#8D3157"/>
		<stop  offset="0.5572" style="stop-color:#6D3A6A"/>
		<stop  offset="0.5889" style="stop-color:#474380"/>
		<stop  offset="0.6171" style="stop-color:#1E4E97"/>
		<stop  offset="0.6246" style="stop-color:#12519E"/>
	</linearGradient>
	<path class="st11" d="M951.82,344.43h21.56l-20.15,79.99h-21.68L951.82,344.43z"/>
	
		<linearGradient id="SVGID_13_" gradientUnits="userSpaceOnUse" x1="42.5598" y1="424.2702" x2="1240.1412" y2="419.2802" gradientTransform="matrix(1 0 0 -1 0 794)">
		<stop  offset="0" style="stop-color:#E41B26"/>
		<stop  offset="0.242" style="stop-color:#E21B27"/>
		<stop  offset="0.3292" style="stop-color:#DB1D2B"/>
		<stop  offset="0.3913" style="stop-color:#D02032"/>
		<stop  offset="0.4416" style="stop-color:#BF253B"/>
		<stop  offset="0.4846" style="stop-color:#A92A48"/>
		<stop  offset="0.5228" style="stop-color:#8D3157"/>
		<stop  offset="0.5572" style="stop-color:#6D3A6A"/>
		<stop  offset="0.5889" style="stop-color:#474380"/>
		<stop  offset="0.6171" style="stop-color:#1E4E97"/>
		<stop  offset="0.6246" style="stop-color:#12519E"/>
	</linearGradient>
	<path class="st12" d="M1051.96,375.97c0,13.03-5.18,28.68-15.32,38.4c-7.3,7.08-17.08,11.54-28.51,11.54
		c-19.79,0-32.99-13.03-32.99-33.03c0-13.03,5.18-28.68,15.32-38.51c7.3-7.09,17.08-11.43,28.51-11.43
		C1038.77,342.94,1051.96,355.97,1051.96,375.97z M1020.86,402.25c5.77-5.6,9.19-17.03,9.19-24.8c0-9.83-4.59-15.54-12.96-15.54
		c-4.24,0-7.78,1.6-10.84,4.69c-5.77,5.6-9.19,17.14-9.19,24.8c0,9.94,4.59,15.54,12.96,15.54
		C1014.15,406.94,1017.8,405.22,1020.86,402.25z M1030.76,321.69l19.56,5.71l-18.97,11.54h-16.61L1030.76,321.69z"/>
	
		<linearGradient id="SVGID_14_" gradientUnits="userSpaceOnUse" x1="42.5169" y1="413.9698" x2="1240.0983" y2="408.9798" gradientTransform="matrix(1 0 0 -1 0 794)">
		<stop  offset="0" style="stop-color:#E41B26"/>
		<stop  offset="0.242" style="stop-color:#E21B27"/>
		<stop  offset="0.3292" style="stop-color:#DB1D2B"/>
		<stop  offset="0.3913" style="stop-color:#D02032"/>
		<stop  offset="0.4416" style="stop-color:#BF253B"/>
		<stop  offset="0.4846" style="stop-color:#A92A48"/>
		<stop  offset="0.5228" style="stop-color:#8D3157"/>
		<stop  offset="0.5572" style="stop-color:#6D3A6A"/>
		<stop  offset="0.5889" style="stop-color:#474380"/>
		<stop  offset="0.6171" style="stop-color:#1E4E97"/>
		<stop  offset="0.6246" style="stop-color:#12519E"/>
	</linearGradient>
	<path class="st13" d="M1073.41,344.43h20.38l15.43,43.08l10.72-43.08h21.32l-20.15,79.99h-19.2l-16.26-44.8l-11.07,44.8h-21.32
		L1073.41,344.43z"/>
	
		<linearGradient id="SVGID_15_" gradientUnits="userSpaceOnUse" x1="42.0918" y1="311.9433" x2="1239.6732" y2="306.9534" gradientTransform="matrix(1 0 0 -1 0 794)">
		<stop  offset="0" style="stop-color:#E41B26"/>
		<stop  offset="0.242" style="stop-color:#E21B27"/>
		<stop  offset="0.3292" style="stop-color:#DB1D2B"/>
		<stop  offset="0.3913" style="stop-color:#D02032"/>
		<stop  offset="0.4416" style="stop-color:#BF253B"/>
		<stop  offset="0.4846" style="stop-color:#A92A48"/>
		<stop  offset="0.5228" style="stop-color:#8D3157"/>
		<stop  offset="0.5572" style="stop-color:#6D3A6A"/>
		<stop  offset="0.5889" style="stop-color:#474380"/>
		<stop  offset="0.6171" style="stop-color:#1E4E97"/>
		<stop  offset="0.6246" style="stop-color:#12519E"/>
	</linearGradient>
	<path class="st14" d="M160.1,442.61h29.45c19.44,0,32.16,9.83,32.16,27.77v0.46c0,19.2-14.37,28.34-32.4,28.57h-8.13v23.2H160.1
		V442.61z M188.61,482.61c7.42,0,11.9-4.23,11.9-10.97v-0.34c0-7.31-4.36-11.08-12.02-11.08h-7.31v22.4h7.43V482.61z"/>
	
		<linearGradient id="SVGID_16_" gradientUnits="userSpaceOnUse" x1="42.094" y1="312.4706" x2="1239.6753" y2="307.4807" gradientTransform="matrix(1 0 0 -1 0 794)">
		<stop  offset="0" style="stop-color:#E41B26"/>
		<stop  offset="0.242" style="stop-color:#E21B27"/>
		<stop  offset="0.3292" style="stop-color:#DB1D2B"/>
		<stop  offset="0.3913" style="stop-color:#D02032"/>
		<stop  offset="0.4416" style="stop-color:#BF253B"/>
		<stop  offset="0.4846" style="stop-color:#A92A48"/>
		<stop  offset="0.5228" style="stop-color:#8D3157"/>
		<stop  offset="0.5572" style="stop-color:#6D3A6A"/>
		<stop  offset="0.5889" style="stop-color:#474380"/>
		<stop  offset="0.6171" style="stop-color:#1E4E97"/>
		<stop  offset="0.6246" style="stop-color:#12519E"/>
	</linearGradient>
	<path class="st15" d="M248.81,442.15h21.44l29.1,80.45h-22.27l-4.83-14.4h-25.92l-4.71,14.4h-21.8L248.81,442.15z M266.96,491.75
		l-7.66-23.43l-7.66,23.43H266.96z"/>
	
		<linearGradient id="SVGID_17_" gradientUnits="userSpaceOnUse" x1="42.0944" y1="312.574" x2="1239.6758" y2="307.5841" gradientTransform="matrix(1 0 0 -1 0 794)">
		<stop  offset="0" style="stop-color:#E41B26"/>
		<stop  offset="0.242" style="stop-color:#E21B27"/>
		<stop  offset="0.3292" style="stop-color:#DB1D2B"/>
		<stop  offset="0.3913" style="stop-color:#D02032"/>
		<stop  offset="0.4416" style="stop-color:#BF253B"/>
		<stop  offset="0.4846" style="stop-color:#A92A48"/>
		<stop  offset="0.5228" style="stop-color:#8D3157"/>
		<stop  offset="0.5572" style="stop-color:#6D3A6A"/>
		<stop  offset="0.5889" style="stop-color:#474380"/>
		<stop  offset="0.6171" style="stop-color:#1E4E97"/>
		<stop  offset="0.6246" style="stop-color:#12519E"/>
	</linearGradient>
	<path class="st16" d="M308.78,442.61h32.4c11.08,0,19.44,2.86,24.74,8.11c4.59,4.46,7.19,10.63,7.19,18.74v0.57
		c0,11.88-6.01,19.31-14.73,23.54l16.97,29.03h-23.92l-14.02-24.8h-7.54v24.8h-21.09L308.78,442.61L308.78,442.61z M340.36,481.46
		c7.19,0,11.43-4,11.43-10.4v-0.23c0-6.86-4.48-10.29-11.55-10.29h-10.37v20.91h10.49V481.46z"/>
	
		<linearGradient id="SVGID_18_" gradientUnits="userSpaceOnUse" x1="42.0967" y1="313.1329" x2="1239.6781" y2="308.1429" gradientTransform="matrix(1 0 0 -1 0 794)">
		<stop  offset="0" style="stop-color:#E41B26"/>
		<stop  offset="0.242" style="stop-color:#E21B27"/>
		<stop  offset="0.3292" style="stop-color:#DB1D2B"/>
		<stop  offset="0.3913" style="stop-color:#D02032"/>
		<stop  offset="0.4416" style="stop-color:#BF253B"/>
		<stop  offset="0.4846" style="stop-color:#A92A48"/>
		<stop  offset="0.5228" style="stop-color:#8D3157"/>
		<stop  offset="0.5572" style="stop-color:#6D3A6A"/>
		<stop  offset="0.5889" style="stop-color:#474380"/>
		<stop  offset="0.6171" style="stop-color:#1E4E97"/>
		<stop  offset="0.6246" style="stop-color:#12519E"/>
	</linearGradient>
	<path class="st17" d="M407.75,442.15h21.44l29.1,80.45h-22.27l-4.83-14.4h-25.92l-4.71,14.4h-21.8L407.75,442.15z M425.89,491.75
		l-7.66-23.43l-7.66,23.43H425.89z"/>
	
		<linearGradient id="SVGID_19_" gradientUnits="userSpaceOnUse" x1="42.0979" y1="313.4109" x2="1239.6793" y2="308.4209" gradientTransform="matrix(1 0 0 -1 0 794)">
		<stop  offset="0" style="stop-color:#E41B26"/>
		<stop  offset="0.242" style="stop-color:#E21B27"/>
		<stop  offset="0.3292" style="stop-color:#DB1D2B"/>
		<stop  offset="0.3913" style="stop-color:#D02032"/>
		<stop  offset="0.4416" style="stop-color:#BF253B"/>
		<stop  offset="0.4846" style="stop-color:#A92A48"/>
		<stop  offset="0.5228" style="stop-color:#8D3157"/>
		<stop  offset="0.5572" style="stop-color:#6D3A6A"/>
		<stop  offset="0.5889" style="stop-color:#474380"/>
		<stop  offset="0.6171" style="stop-color:#1E4E97"/>
		<stop  offset="0.6246" style="stop-color:#12519E"/>
	</linearGradient>
	<path class="st18" d="M498.7,442.61h56.79v18.06h-35.82v13.14h32.28v17.03h-32.28v13.71h36.29v18.06H498.7V442.61z"/>
	
		<linearGradient id="SVGID_20_" gradientUnits="userSpaceOnUse" x1="42.0988" y1="313.6338" x2="1239.6802" y2="308.6439" gradientTransform="matrix(1 0 0 -1 0 794)">
		<stop  offset="0" style="stop-color:#E41B26"/>
		<stop  offset="0.242" style="stop-color:#E21B27"/>
		<stop  offset="0.3292" style="stop-color:#DB1D2B"/>
		<stop  offset="0.3913" style="stop-color:#D02032"/>
		<stop  offset="0.4416" style="stop-color:#BF253B"/>
		<stop  offset="0.4846" style="stop-color:#A92A48"/>
		<stop  offset="0.5228" style="stop-color:#8D3157"/>
		<stop  offset="0.5572" style="stop-color:#6D3A6A"/>
		<stop  offset="0.5889" style="stop-color:#474380"/>
		<stop  offset="0.6171" style="stop-color:#1E4E97"/>
		<stop  offset="0.6246" style="stop-color:#12519E"/>
	</linearGradient>
	<path class="st19" d="M568.8,442.61h21.21v61.48h32.4v18.51h-53.6v-79.99H568.8z"/>
	
		<linearGradient id="SVGID_21_" gradientUnits="userSpaceOnUse" x1="42.1009" y1="314.1322" x2="1239.6821" y2="309.1423" gradientTransform="matrix(1 0 0 -1 0 794)">
		<stop  offset="0" style="stop-color:#E41B26"/>
		<stop  offset="0.242" style="stop-color:#E21B27"/>
		<stop  offset="0.3292" style="stop-color:#DB1D2B"/>
		<stop  offset="0.3913" style="stop-color:#D02032"/>
		<stop  offset="0.4416" style="stop-color:#BF253B"/>
		<stop  offset="0.4846" style="stop-color:#A92A48"/>
		<stop  offset="0.5228" style="stop-color:#8D3157"/>
		<stop  offset="0.5572" style="stop-color:#6D3A6A"/>
		<stop  offset="0.5889" style="stop-color:#474380"/>
		<stop  offset="0.6171" style="stop-color:#1E4E97"/>
		<stop  offset="0.6246" style="stop-color:#12519E"/>
	</linearGradient>
	<path class="st20" d="M662.35,483.41v-1.37c0-24.68,16.61-40.8,38.29-40.8c12.96,0,21.79,4.91,28.51,12.57l-13.67,14.06
		c-3.53-4.11-8.01-7.54-14.49-7.54c-9.66,0-16.85,8.34-16.85,21.94v0.46c0,14.28,7.3,22.17,16.85,22.17
		c7.07,0,11.31-3.66,15.08-7.89l13.43,13.26c-6.72,8-15.9,13.71-29.69,13.71C678.72,523.97,662.35,508.32,662.35,483.41z"/>
	
		<linearGradient id="SVGID_22_" gradientUnits="userSpaceOnUse" x1="42.1029" y1="314.6138" x2="1239.6843" y2="309.6239" gradientTransform="matrix(1 0 0 -1 0 794)">
		<stop  offset="0" style="stop-color:#E41B26"/>
		<stop  offset="0.242" style="stop-color:#E21B27"/>
		<stop  offset="0.3292" style="stop-color:#DB1D2B"/>
		<stop  offset="0.3913" style="stop-color:#D02032"/>
		<stop  offset="0.4416" style="stop-color:#BF253B"/>
		<stop  offset="0.4846" style="stop-color:#A92A48"/>
		<stop  offset="0.5228" style="stop-color:#8D3157"/>
		<stop  offset="0.5572" style="stop-color:#6D3A6A"/>
		<stop  offset="0.5889" style="stop-color:#474380"/>
		<stop  offset="0.6171" style="stop-color:#1E4E97"/>
		<stop  offset="0.6246" style="stop-color:#12519E"/>
	</linearGradient>
	<path class="st21" d="M763.2,442.15h21.44l29.1,80.45h-22.27l-4.83-14.4h-25.92l-4.71,14.4h-21.8L763.2,442.15z M781.34,491.75
		l-7.66-23.43l-7.66,23.43H781.34z"/>
	
		<linearGradient id="SVGID_23_" gradientUnits="userSpaceOnUse" x1="42.1037" y1="314.81" x2="1239.6849" y2="309.8201" gradientTransform="matrix(1 0 0 -1 0 794)">
		<stop  offset="0" style="stop-color:#E41B26"/>
		<stop  offset="0.242" style="stop-color:#E21B27"/>
		<stop  offset="0.3292" style="stop-color:#DB1D2B"/>
		<stop  offset="0.3913" style="stop-color:#D02032"/>
		<stop  offset="0.4416" style="stop-color:#BF253B"/>
		<stop  offset="0.4846" style="stop-color:#A92A48"/>
		<stop  offset="0.5228" style="stop-color:#8D3157"/>
		<stop  offset="0.5572" style="stop-color:#6D3A6A"/>
		<stop  offset="0.5889" style="stop-color:#474380"/>
		<stop  offset="0.6171" style="stop-color:#1E4E97"/>
		<stop  offset="0.6246" style="stop-color:#12519E"/>
	</linearGradient>
	<path class="st22" d="M823.17,442.61h21.8l16.73,29.48l16.61-29.48h21.91v79.99h-20.97v-45.03l-17.55,29.71h-0.35L843.8,477.8v44.8
		h-20.62v-79.99H823.17z"/>
	
		<linearGradient id="SVGID_24_" gradientUnits="userSpaceOnUse" x1="42.1049" y1="315.0904" x2="1239.6863" y2="310.1005" gradientTransform="matrix(1 0 0 -1 0 794)">
		<stop  offset="0" style="stop-color:#E41B26"/>
		<stop  offset="0.242" style="stop-color:#E21B27"/>
		<stop  offset="0.3292" style="stop-color:#DB1D2B"/>
		<stop  offset="0.3913" style="stop-color:#D02032"/>
		<stop  offset="0.4416" style="stop-color:#BF253B"/>
		<stop  offset="0.4846" style="stop-color:#A92A48"/>
		<stop  offset="0.5228" style="stop-color:#8D3157"/>
		<stop  offset="0.5572" style="stop-color:#6D3A6A"/>
		<stop  offset="0.5889" style="stop-color:#474380"/>
		<stop  offset="0.6171" style="stop-color:#1E4E97"/>
		<stop  offset="0.6246" style="stop-color:#12519E"/>
	</linearGradient>
	<path class="st23" d="M915.42,442.61h29.45c19.44,0,32.16,9.83,32.16,27.77v0.46c0,19.2-14.37,28.34-32.4,28.57h-8.13v23.2h-21.09
		v-80H915.42z M943.93,482.61c7.42,0,11.9-4.23,11.9-10.97v-0.34c0-7.31-4.36-11.08-12.02-11.08h-7.31v22.4h7.43V482.61z"/>
	
		<linearGradient id="SVGID_25_" gradientUnits="userSpaceOnUse" x1="42.1065" y1="315.4807" x2="1239.6879" y2="310.4907" gradientTransform="matrix(1 0 0 -1 0 794)">
		<stop  offset="0" style="stop-color:#E41B26"/>
		<stop  offset="0.242" style="stop-color:#E21B27"/>
		<stop  offset="0.3292" style="stop-color:#DB1D2B"/>
		<stop  offset="0.3913" style="stop-color:#D02032"/>
		<stop  offset="0.4416" style="stop-color:#BF253B"/>
		<stop  offset="0.4846" style="stop-color:#A92A48"/>
		<stop  offset="0.5228" style="stop-color:#8D3157"/>
		<stop  offset="0.5572" style="stop-color:#6D3A6A"/>
		<stop  offset="0.5889" style="stop-color:#474380"/>
		<stop  offset="0.6171" style="stop-color:#1E4E97"/>
		<stop  offset="0.6246" style="stop-color:#12519E"/>
	</linearGradient>
	<path class="st24" d="M985.63,483.52v-1.71c0-23.88,16.14-40.68,38.29-40.68c22.27,0,38.17,16.57,38.17,40.57v1.71
		c0,23.88-16.14,40.68-38.29,40.68C1001.54,524.09,985.63,507.52,985.63,483.52z M1040.42,483.29v-1.26
		c0-13.83-6.83-22.28-16.61-22.28s-16.49,8.34-16.49,22.17v1.26c0,13.83,6.83,22.28,16.61,22.28
		C1033.82,505.46,1040.42,497.12,1040.42,483.29z"/>
</g>
</svg>
