<?xml version="1.0" encoding="utf-8"?>
<!-- Generator: Adobe Illustrator 23.0.0, SVG Export Plug-In . SVG Version: 6.00 Build 0)  -->
<svg version="1.1" id="Capa_1" xmlns="http://www.w3.org/2000/svg" xmlns:xlink="http://www.w3.org/1999/xlink" x="0px" y="0px"
	 viewBox="0 0 1224 792" style="enable-background:new 0 0 1224 792;" xml:space="preserve">
<style type="text/css">
	.st0{fill:url(#SVGID_1_);}
	.st1{fill:url(#SVGID_2_);}
	.st2{fill:url(#SVGID_3_);}
	.st3{fill:url(#SVGID_4_);}
	.st4{fill:url(#SVGID_5_);}
	.st5{fill:url(#SVGID_6_);}
	.st6{fill:url(#SVGID_7_);}
	.st7{fill:url(#SVGID_8_);}
	.st8{fill:url(#SVGID_9_);}
	.st9{fill:url(#SVGID_10_);}
	.st10{fill:url(#SVGID_11_);}
	.st11{fill:url(#SVGID_12_);}
	.st12{fill:url(#SVGID_13_);}
	.st13{fill:url(#SVGID_14_);}
	.st14{fill:url(#SVGID_15_);}
	.st15{fill:url(#SVGID_16_);}
	.st16{fill:url(#SVGID_17_);}
	.st17{fill:url(#SVGID_18_);}
	.st18{fill:url(#SVGID_19_);}
	.st19{fill:url(#SVGID_20_);}
	.st20{fill:url(#SVGID_21_);}
</style>
<g>
	
		<linearGradient id="SVGID_1_" gradientUnits="userSpaceOnUse" x1="-221.8604" y1="479.7101" x2="1461.229" y2="406.7762" gradientTransform="matrix(1 0 0 -1 0 794)">
		<stop  offset="0" style="stop-color:#E41B26"/>
		<stop  offset="0.242" style="stop-color:#E21B27"/>
		<stop  offset="0.3292" style="stop-color:#DB1D2B"/>
		<stop  offset="0.3913" style="stop-color:#D02032"/>
		<stop  offset="0.4416" style="stop-color:#BF253B"/>
		<stop  offset="0.4846" style="stop-color:#A92A48"/>
		<stop  offset="0.5228" style="stop-color:#8D3157"/>
		<stop  offset="0.5572" style="stop-color:#6D3A6A"/>
		<stop  offset="0.5889" style="stop-color:#474380"/>
		<stop  offset="0.6171" style="stop-color:#1E4E97"/>
		<stop  offset="0.6246" style="stop-color:#12519E"/>
	</linearGradient>
	<path class="st0" d="M126.95,279.17h71.31v23.38h-44.98v17.01h40.54v22.04h-40.54v17.75h45.57v23.38h-71.9
		C126.95,382.73,126.95,279.17,126.95,279.17z"/>
	
		<linearGradient id="SVGID_2_" gradientUnits="userSpaceOnUse" x1="-221.7359" y1="482.5839" x2="1461.3536" y2="409.6501" gradientTransform="matrix(1 0 0 -1 0 794)">
		<stop  offset="0" style="stop-color:#E41B26"/>
		<stop  offset="0.242" style="stop-color:#E21B27"/>
		<stop  offset="0.3292" style="stop-color:#DB1D2B"/>
		<stop  offset="0.3913" style="stop-color:#D02032"/>
		<stop  offset="0.4416" style="stop-color:#BF253B"/>
		<stop  offset="0.4846" style="stop-color:#A92A48"/>
		<stop  offset="0.5228" style="stop-color:#8D3157"/>
		<stop  offset="0.5572" style="stop-color:#6D3A6A"/>
		<stop  offset="0.5889" style="stop-color:#474380"/>
		<stop  offset="0.6171" style="stop-color:#1E4E97"/>
		<stop  offset="0.6246" style="stop-color:#12519E"/>
	</linearGradient>
	<path class="st1" d="M211.27,279.17h34.03c33.29,0,52.23,20.12,52.23,50.6v1.78c0,30.48-19.09,51.19-52.67,51.19h-33.58
		L211.27,279.17L211.27,279.17z M237.9,302.99v55.93h7.69c14.79,0,24.71-8.73,24.71-27.22v-1.33c0-18.64-9.91-27.37-24.71-27.37
		h-7.69V302.99z"/>
	
		<linearGradient id="SVGID_3_" gradientUnits="userSpaceOnUse" x1="-221.5084" y1="487.834" x2="1461.5812" y2="414.9001" gradientTransform="matrix(1 0 0 -1 0 794)">
		<stop  offset="0" style="stop-color:#E41B26"/>
		<stop  offset="0.242" style="stop-color:#E21B27"/>
		<stop  offset="0.3292" style="stop-color:#DB1D2B"/>
		<stop  offset="0.3913" style="stop-color:#D02032"/>
		<stop  offset="0.4416" style="stop-color:#BF253B"/>
		<stop  offset="0.4846" style="stop-color:#A92A48"/>
		<stop  offset="0.5228" style="stop-color:#8D3157"/>
		<stop  offset="0.5572" style="stop-color:#6D3A6A"/>
		<stop  offset="0.5889" style="stop-color:#474380"/>
		<stop  offset="0.6171" style="stop-color:#1E4E97"/>
		<stop  offset="0.6246" style="stop-color:#12519E"/>
	</linearGradient>
	<path class="st2" d="M308.91,341.75v-62.58h26.78v62.88c0,12.43,6.07,18.35,15.24,18.35c9.32,0,15.24-5.62,15.24-17.9v-63.32h26.93
		v62.14c0,30.03-17.01,43.2-42.31,43.2C325.48,384.51,308.91,371.19,308.91,341.75z"/>
	
		<linearGradient id="SVGID_4_" gradientUnits="userSpaceOnUse" x1="-221.3181" y1="492.228" x2="1461.7714" y2="419.2941" gradientTransform="matrix(1 0 0 -1 0 794)">
		<stop  offset="0" style="stop-color:#E41B26"/>
		<stop  offset="0.242" style="stop-color:#E21B27"/>
		<stop  offset="0.3292" style="stop-color:#DB1D2B"/>
		<stop  offset="0.3913" style="stop-color:#D02032"/>
		<stop  offset="0.4416" style="stop-color:#BF253B"/>
		<stop  offset="0.4846" style="stop-color:#A92A48"/>
		<stop  offset="0.5228" style="stop-color:#8D3157"/>
		<stop  offset="0.5572" style="stop-color:#6D3A6A"/>
		<stop  offset="0.5889" style="stop-color:#474380"/>
		<stop  offset="0.6171" style="stop-color:#1E4E97"/>
		<stop  offset="0.6246" style="stop-color:#12519E"/>
	</linearGradient>
	<path class="st3" d="M404.47,331.99v-1.77c0-31.96,20.86-52.82,48.08-52.82c16.27,0,27.37,6.36,35.8,16.27l-17.16,18.2
		c-4.44-5.33-10.06-9.76-18.2-9.76c-12.13,0-21.16,10.8-21.16,28.41v0.59c0,18.49,9.17,28.7,21.16,28.7
		c8.88,0,14.2-4.73,18.94-10.21l16.87,17.16c-8.43,10.36-19.97,17.75-37.28,17.75C425.04,384.51,404.47,364.24,404.47,331.99z"/>
	
		<linearGradient id="SVGID_5_" gradientUnits="userSpaceOnUse" x1="-221.1731" y1="495.5734" x2="1461.9164" y2="422.6396" gradientTransform="matrix(1 0 0 -1 0 794)">
		<stop  offset="0" style="stop-color:#E41B26"/>
		<stop  offset="0.242" style="stop-color:#E21B27"/>
		<stop  offset="0.3292" style="stop-color:#DB1D2B"/>
		<stop  offset="0.3913" style="stop-color:#D02032"/>
		<stop  offset="0.4416" style="stop-color:#BF253B"/>
		<stop  offset="0.4846" style="stop-color:#A92A48"/>
		<stop  offset="0.5228" style="stop-color:#8D3157"/>
		<stop  offset="0.5572" style="stop-color:#6D3A6A"/>
		<stop  offset="0.5889" style="stop-color:#474380"/>
		<stop  offset="0.6171" style="stop-color:#1E4E97"/>
		<stop  offset="0.6246" style="stop-color:#12519E"/>
	</linearGradient>
	<path class="st4" d="M527.41,278.58h26.93l36.54,104.16h-27.96l-6.07-18.64H524.3l-5.92,18.64h-27.37L527.41,278.58z
		 M550.19,342.79l-9.62-30.33l-9.62,30.33H550.19z"/>
	
		<linearGradient id="SVGID_6_" gradientUnits="userSpaceOnUse" x1="-221.0029" y1="499.5006" x2="1462.0865" y2="426.5667" gradientTransform="matrix(1 0 0 -1 0 794)">
		<stop  offset="0" style="stop-color:#E41B26"/>
		<stop  offset="0.242" style="stop-color:#E21B27"/>
		<stop  offset="0.3292" style="stop-color:#DB1D2B"/>
		<stop  offset="0.3913" style="stop-color:#D02032"/>
		<stop  offset="0.4416" style="stop-color:#BF253B"/>
		<stop  offset="0.4846" style="stop-color:#A92A48"/>
		<stop  offset="0.5228" style="stop-color:#8D3157"/>
		<stop  offset="0.5572" style="stop-color:#6D3A6A"/>
		<stop  offset="0.5889" style="stop-color:#474380"/>
		<stop  offset="0.6171" style="stop-color:#1E4E97"/>
		<stop  offset="0.6246" style="stop-color:#12519E"/>
	</linearGradient>
	<path class="st5" d="M599,279.17h40.69c13.91,0,24.41,3.7,31.07,10.5c5.77,5.77,9.02,13.76,9.02,24.26v0.74
		c0,15.39-7.55,25-18.49,30.48l21.3,37.58h-30.03l-17.61-32.11h-9.47v32.11H599V279.17z M638.65,329.47
		c9.03,0,14.35-5.18,14.35-13.46v-0.3c0-8.88-5.62-13.32-14.5-13.32h-13.02v27.07L638.65,329.47L638.65,329.47z"/>
	
		<linearGradient id="SVGID_7_" gradientUnits="userSpaceOnUse" x1="-220.7666" y1="504.9521" x2="1462.3229" y2="432.0183" gradientTransform="matrix(1 0 0 -1 0 794)">
		<stop  offset="0" style="stop-color:#E41B26"/>
		<stop  offset="0.242" style="stop-color:#E21B27"/>
		<stop  offset="0.3292" style="stop-color:#DB1D2B"/>
		<stop  offset="0.3913" style="stop-color:#D02032"/>
		<stop  offset="0.4416" style="stop-color:#BF253B"/>
		<stop  offset="0.4846" style="stop-color:#A92A48"/>
		<stop  offset="0.5228" style="stop-color:#8D3157"/>
		<stop  offset="0.5572" style="stop-color:#6D3A6A"/>
		<stop  offset="0.5889" style="stop-color:#474380"/>
		<stop  offset="0.6171" style="stop-color:#1E4E97"/>
		<stop  offset="0.6246" style="stop-color:#12519E"/>
	</linearGradient>
	<path class="st6" d="M726.97,279.17h36.99c24.41,0,40.39,12.72,40.39,35.95v0.59c0,24.85-18.05,36.69-40.69,36.99h-10.21v30.03
		h-26.48V279.17z M762.77,330.95c9.32,0,14.94-5.47,14.94-14.2v-0.44c0-9.47-5.47-14.35-15.09-14.35h-9.17v29L762.77,330.95
		L762.77,330.95z"/>
	
		<linearGradient id="SVGID_8_" gradientUnits="userSpaceOnUse" x1="-220.5972" y1="508.8631" x2="1462.4924" y2="435.9292" gradientTransform="matrix(1 0 0 -1 0 794)">
		<stop  offset="0" style="stop-color:#E41B26"/>
		<stop  offset="0.242" style="stop-color:#E21B27"/>
		<stop  offset="0.3292" style="stop-color:#DB1D2B"/>
		<stop  offset="0.3913" style="stop-color:#D02032"/>
		<stop  offset="0.4416" style="stop-color:#BF253B"/>
		<stop  offset="0.4846" style="stop-color:#A92A48"/>
		<stop  offset="0.5228" style="stop-color:#8D3157"/>
		<stop  offset="0.5572" style="stop-color:#6D3A6A"/>
		<stop  offset="0.5889" style="stop-color:#474380"/>
		<stop  offset="0.6171" style="stop-color:#1E4E97"/>
		<stop  offset="0.6246" style="stop-color:#12519E"/>
	</linearGradient>
	<path class="st7" d="M834.67,278.58h26.93l36.54,104.16h-27.96l-6.07-18.64h-32.55l-5.92,18.64h-27.37L834.67,278.58z
		 M857.45,342.79l-9.62-30.33l-9.62,30.33H857.45z"/>
	
		<linearGradient id="SVGID_9_" gradientUnits="userSpaceOnUse" x1="-220.427" y1="512.7902" x2="1462.6625" y2="439.8564" gradientTransform="matrix(1 0 0 -1 0 794)">
		<stop  offset="0" style="stop-color:#E41B26"/>
		<stop  offset="0.242" style="stop-color:#E21B27"/>
		<stop  offset="0.3292" style="stop-color:#DB1D2B"/>
		<stop  offset="0.3913" style="stop-color:#D02032"/>
		<stop  offset="0.4416" style="stop-color:#BF253B"/>
		<stop  offset="0.4846" style="stop-color:#A92A48"/>
		<stop  offset="0.5228" style="stop-color:#8D3157"/>
		<stop  offset="0.5572" style="stop-color:#6D3A6A"/>
		<stop  offset="0.5889" style="stop-color:#474380"/>
		<stop  offset="0.6171" style="stop-color:#1E4E97"/>
		<stop  offset="0.6246" style="stop-color:#12519E"/>
	</linearGradient>
	<path class="st8" d="M906.26,279.17h40.69c13.91,0,24.41,3.7,31.07,10.5c5.77,5.77,9.02,13.76,9.02,24.26v0.74
		c0,15.39-7.55,25-18.49,30.48l21.3,37.58h-30.03l-17.61-32.11h-9.47v32.11h-26.48L906.26,279.17L906.26,279.17z M945.91,329.47
		c9.03,0,14.35-5.18,14.35-13.46v-0.3c0-8.88-5.62-13.32-14.5-13.32h-13.02v27.07L945.91,329.47L945.91,329.47z"/>
	
		<linearGradient id="SVGID_10_" gradientUnits="userSpaceOnUse" x1="-220.237" y1="517.1749" x2="1462.8524" y2="444.241" gradientTransform="matrix(1 0 0 -1 0 794)">
		<stop  offset="0" style="stop-color:#E41B26"/>
		<stop  offset="0.242" style="stop-color:#E21B27"/>
		<stop  offset="0.3292" style="stop-color:#DB1D2B"/>
		<stop  offset="0.3913" style="stop-color:#D02032"/>
		<stop  offset="0.4416" style="stop-color:#BF253B"/>
		<stop  offset="0.4846" style="stop-color:#A92A48"/>
		<stop  offset="0.5228" style="stop-color:#8D3157"/>
		<stop  offset="0.5572" style="stop-color:#6D3A6A"/>
		<stop  offset="0.5889" style="stop-color:#474380"/>
		<stop  offset="0.6171" style="stop-color:#1E4E97"/>
		<stop  offset="0.6246" style="stop-color:#12519E"/>
	</linearGradient>
	<path class="st9" d="M1026.84,278.58h26.93l36.54,104.16h-27.96l-6.07-18.64h-32.55l-5.92,18.64h-27.37L1026.84,278.58z
		 M1049.62,342.79l-9.62-30.33l-9.62,30.33H1049.62z"/>
	
		<linearGradient id="SVGID_11_" gradientUnits="userSpaceOnUse" x1="-227.4695" y1="350.2716" x2="1455.6199" y2="277.3377" gradientTransform="matrix(1 0 0 -1 0 794)">
		<stop  offset="0" style="stop-color:#E41B26"/>
		<stop  offset="0.242" style="stop-color:#E21B27"/>
		<stop  offset="0.3292" style="stop-color:#DB1D2B"/>
		<stop  offset="0.3913" style="stop-color:#D02032"/>
		<stop  offset="0.4416" style="stop-color:#BF253B"/>
		<stop  offset="0.4846" style="stop-color:#A92A48"/>
		<stop  offset="0.5228" style="stop-color:#8D3157"/>
		<stop  offset="0.5572" style="stop-color:#6D3A6A"/>
		<stop  offset="0.5889" style="stop-color:#474380"/>
		<stop  offset="0.6171" style="stop-color:#1E4E97"/>
		<stop  offset="0.6246" style="stop-color:#12519E"/>
	</linearGradient>
	<path class="st10" d="M108.44,430.71H82.13l6.43-25.1h80.64l-6.43,25.1H136.6l-19.89,82.02H88.55L108.44,430.71z"/>
	
		<linearGradient id="SVGID_12_" gradientUnits="userSpaceOnUse" x1="-227.3675" y1="352.6248" x2="1455.7219" y2="279.6909" gradientTransform="matrix(1 0 0 -1 0 794)">
		<stop  offset="0" style="stop-color:#E41B26"/>
		<stop  offset="0.242" style="stop-color:#E21B27"/>
		<stop  offset="0.3292" style="stop-color:#DB1D2B"/>
		<stop  offset="0.3913" style="stop-color:#D02032"/>
		<stop  offset="0.4416" style="stop-color:#BF253B"/>
		<stop  offset="0.4846" style="stop-color:#A92A48"/>
		<stop  offset="0.5228" style="stop-color:#8D3157"/>
		<stop  offset="0.5572" style="stop-color:#6D3A6A"/>
		<stop  offset="0.5889" style="stop-color:#474380"/>
		<stop  offset="0.6171" style="stop-color:#1E4E97"/>
		<stop  offset="0.6246" style="stop-color:#12519E"/>
	</linearGradient>
	<path class="st11" d="M197.04,480.13h-1.68h-7.04l-7.65,32.59h-28.16l26.17-107.12h32.59c16.37,0,27.24,3.52,33.97,10.25
		c5.51,5.51,8.26,13.01,8.26,21.88c0,11.02-3.52,20.51-10.25,27.39c-3.82,3.83-9.18,7.65-17.9,10.56l13.47,37.03h-30.6
		L197.04,480.13z M204.53,457.79c6.89,0,12.09-1.68,15.61-5.05c2.75-2.91,4.44-7.5,4.44-11.78c0-3.37-1.07-5.82-3.06-7.65
		c-2.14-2.3-5.82-3.37-11.02-3.37h-9.79l-6.58,27.85L204.53,457.79L204.53,457.79z"/>
	
		<linearGradient id="SVGID_13_" gradientUnits="userSpaceOnUse" x1="-227.1624" y1="357.3593" x2="1455.9272" y2="284.4254" gradientTransform="matrix(1 0 0 -1 0 794)">
		<stop  offset="0" style="stop-color:#E41B26"/>
		<stop  offset="0.242" style="stop-color:#E21B27"/>
		<stop  offset="0.3292" style="stop-color:#DB1D2B"/>
		<stop  offset="0.3913" style="stop-color:#D02032"/>
		<stop  offset="0.4416" style="stop-color:#BF253B"/>
		<stop  offset="0.4846" style="stop-color:#A92A48"/>
		<stop  offset="0.5228" style="stop-color:#8D3157"/>
		<stop  offset="0.5572" style="stop-color:#6D3A6A"/>
		<stop  offset="0.5889" style="stop-color:#474380"/>
		<stop  offset="0.6171" style="stop-color:#1E4E97"/>
		<stop  offset="0.6246" style="stop-color:#12519E"/>
	</linearGradient>
	<path class="st12" d="M303.38,405h28.46l11.17,107.73h-29.07l-1.38-19.59h-32.29l-10.71,19.59h-29.99L303.38,405z M310.87,470.64
		l-1.53-31.52l-16.07,31.52H310.87z"/>
	
		<linearGradient id="SVGID_14_" gradientUnits="userSpaceOnUse" x1="-226.9484" y1="362.2966" x2="1456.1411" y2="289.3627" gradientTransform="matrix(1 0 0 -1 0 794)">
		<stop  offset="0" style="stop-color:#E41B26"/>
		<stop  offset="0.242" style="stop-color:#E21B27"/>
		<stop  offset="0.3292" style="stop-color:#DB1D2B"/>
		<stop  offset="0.3913" style="stop-color:#D02032"/>
		<stop  offset="0.4416" style="stop-color:#BF253B"/>
		<stop  offset="0.4846" style="stop-color:#A92A48"/>
		<stop  offset="0.5228" style="stop-color:#8D3157"/>
		<stop  offset="0.5572" style="stop-color:#6D3A6A"/>
		<stop  offset="0.5889" style="stop-color:#474380"/>
		<stop  offset="0.6171" style="stop-color:#1E4E97"/>
		<stop  offset="0.6246" style="stop-color:#12519E"/>
	</linearGradient>
	<path class="st13" d="M375.9,405.61h26.47l20.05,57.69l13.93-57.69h27.7l-26.17,107.12h-24.94l-21.12-59.98l-14.38,59.98h-27.7
		L375.9,405.61z"/>
	
		<linearGradient id="SVGID_15_" gradientUnits="userSpaceOnUse" x1="-226.7713" y1="366.3845" x2="1456.3182" y2="293.4507" gradientTransform="matrix(1 0 0 -1 0 794)">
		<stop  offset="0" style="stop-color:#E41B26"/>
		<stop  offset="0.242" style="stop-color:#E21B27"/>
		<stop  offset="0.3292" style="stop-color:#DB1D2B"/>
		<stop  offset="0.3913" style="stop-color:#D02032"/>
		<stop  offset="0.4416" style="stop-color:#BF253B"/>
		<stop  offset="0.4846" style="stop-color:#A92A48"/>
		<stop  offset="0.5228" style="stop-color:#8D3157"/>
		<stop  offset="0.5572" style="stop-color:#6D3A6A"/>
		<stop  offset="0.5889" style="stop-color:#474380"/>
		<stop  offset="0.6171" style="stop-color:#1E4E97"/>
		<stop  offset="0.6246" style="stop-color:#12519E"/>
	</linearGradient>
	<path class="st14" d="M451.64,496.35l17.14-19.74c9.18,9.03,18.21,13.77,26.78,13.77c5.66,0,9.33-3.06,9.33-7.65
		c0-3.83-2.45-6.43-13.77-13.16c-14.54-8.57-22.49-16.83-22.49-30.15c0-9.64,3.67-18.06,9.64-24.02c7.19-7.19,17.6-11.48,30.3-11.48
		c15.91,0,28.62,6.12,37.95,15l-16.83,19.89c-6.73-6.27-14.23-10.87-22.65-10.87c-5.97,0-9.33,3.21-9.33,7.19s2.45,6.27,14.08,13.31
		c13.47,7.96,22.49,16.07,22.49,30.3c0,9.79-3.67,18.21-10.1,24.64c-7.04,7.04-17.9,11.02-30.3,11.02
		C476.88,514.41,462.19,507.68,451.64,496.35z"/>
	
		<linearGradient id="SVGID_16_" gradientUnits="userSpaceOnUse" x1="-226.6099" y1="370.1085" x2="1456.4796" y2="297.1747" gradientTransform="matrix(1 0 0 -1 0 794)">
		<stop  offset="0" style="stop-color:#E41B26"/>
		<stop  offset="0.242" style="stop-color:#E21B27"/>
		<stop  offset="0.3292" style="stop-color:#DB1D2B"/>
		<stop  offset="0.3913" style="stop-color:#D02032"/>
		<stop  offset="0.4416" style="stop-color:#BF253B"/>
		<stop  offset="0.4846" style="stop-color:#A92A48"/>
		<stop  offset="0.5228" style="stop-color:#8D3157"/>
		<stop  offset="0.5572" style="stop-color:#6D3A6A"/>
		<stop  offset="0.5889" style="stop-color:#474380"/>
		<stop  offset="0.6171" style="stop-color:#1E4E97"/>
		<stop  offset="0.6246" style="stop-color:#12519E"/>
	</linearGradient>
	<path class="st15" d="M564.1,405.61h72.99l-6.43,25.1h-44.84l-4.28,18.67h40.4l-6.12,23.87h-40.24l-9.49,39.48h-28.16L564.1,405.61
		z"/>
	
		<linearGradient id="SVGID_17_" gradientUnits="userSpaceOnUse" x1="-226.4356" y1="374.1306" x2="1456.6538" y2="301.1967" gradientTransform="matrix(1 0 0 -1 0 794)">
		<stop  offset="0" style="stop-color:#E41B26"/>
		<stop  offset="0.242" style="stop-color:#E21B27"/>
		<stop  offset="0.3292" style="stop-color:#DB1D2B"/>
		<stop  offset="0.3913" style="stop-color:#D02032"/>
		<stop  offset="0.4416" style="stop-color:#BF253B"/>
		<stop  offset="0.4846" style="stop-color:#A92A48"/>
		<stop  offset="0.5228" style="stop-color:#8D3157"/>
		<stop  offset="0.5572" style="stop-color:#6D3A6A"/>
		<stop  offset="0.5889" style="stop-color:#474380"/>
		<stop  offset="0.6171" style="stop-color:#1E4E97"/>
		<stop  offset="0.6246" style="stop-color:#12519E"/>
	</linearGradient>
	<path class="st16" d="M730.27,447.84c0,17.45-6.73,38.41-19.89,51.42c-9.49,9.49-22.19,15.45-37.03,15.45
		c-25.71,0-42.85-17.44-42.85-44.22c0-17.45,6.73-38.41,19.89-51.57c9.49-9.49,22.19-15.3,37.03-15.3
		C713.13,403.62,730.27,421.06,730.27,447.84z M689.87,483.04c7.5-7.5,11.94-22.8,11.94-33.21c0-13.16-5.97-20.81-16.83-20.81
		c-5.51,0-10.1,2.14-14.08,6.27c-7.5,7.5-11.94,22.95-11.94,33.21c0,13.31,5.97,20.81,16.83,20.81
		C681.15,489.31,685.89,487.02,689.87,483.04z"/>
	
		<linearGradient id="SVGID_18_" gradientUnits="userSpaceOnUse" x1="-226.2887" y1="377.5211" x2="1456.8009" y2="304.5873" gradientTransform="matrix(1 0 0 -1 0 794)">
		<stop  offset="0" style="stop-color:#E41B26"/>
		<stop  offset="0.242" style="stop-color:#E21B27"/>
		<stop  offset="0.3292" style="stop-color:#DB1D2B"/>
		<stop  offset="0.3913" style="stop-color:#D02032"/>
		<stop  offset="0.4416" style="stop-color:#BF253B"/>
		<stop  offset="0.4846" style="stop-color:#A92A48"/>
		<stop  offset="0.5228" style="stop-color:#8D3157"/>
		<stop  offset="0.5572" style="stop-color:#6D3A6A"/>
		<stop  offset="0.5889" style="stop-color:#474380"/>
		<stop  offset="0.6171" style="stop-color:#1E4E97"/>
		<stop  offset="0.6246" style="stop-color:#12519E"/>
	</linearGradient>
	<path class="st17" d="M772.65,480.13h-1.68h-7.04l-7.65,32.59h-28.16l26.17-107.12h32.59c16.37,0,27.24,3.52,33.97,10.25
		c5.51,5.51,8.26,13.01,8.26,21.88c0,11.02-3.52,20.51-10.25,27.39c-3.82,3.83-9.18,7.65-17.9,10.56l13.47,37.03h-30.6
		L772.65,480.13z M780.14,457.79c6.89,0,12.09-1.68,15.61-5.05c2.75-2.91,4.44-7.5,4.44-11.78c0-3.37-1.07-5.82-3.06-7.65
		c-2.14-2.3-5.82-3.37-11.02-3.37h-9.79l-6.58,27.85L780.14,457.79L780.14,457.79z"/>
	
		<linearGradient id="SVGID_19_" gradientUnits="userSpaceOnUse" x1="-226.0488" y1="383.0563" x2="1457.0406" y2="310.1224" gradientTransform="matrix(1 0 0 -1 0 794)">
		<stop  offset="0" style="stop-color:#E41B26"/>
		<stop  offset="0.242" style="stop-color:#E21B27"/>
		<stop  offset="0.3292" style="stop-color:#DB1D2B"/>
		<stop  offset="0.3913" style="stop-color:#D02032"/>
		<stop  offset="0.4416" style="stop-color:#BF253B"/>
		<stop  offset="0.4846" style="stop-color:#A92A48"/>
		<stop  offset="0.5228" style="stop-color:#8D3157"/>
		<stop  offset="0.5572" style="stop-color:#6D3A6A"/>
		<stop  offset="0.5889" style="stop-color:#474380"/>
		<stop  offset="0.6171" style="stop-color:#1E4E97"/>
		<stop  offset="0.6246" style="stop-color:#12519E"/>
	</linearGradient>
	<path class="st18" d="M850.07,405.61h28.31l10.56,40.09l29.84-40.09h31.06l-26.17,107.12h-28l14.54-60.9l-31.68,40.55h-0.46
		l-11.94-40.25l-14.54,60.6h-27.7L850.07,405.61z"/>
	
		<linearGradient id="SVGID_20_" gradientUnits="userSpaceOnUse" x1="-225.8662" y1="387.2719" x2="1457.2233" y2="314.3381" gradientTransform="matrix(1 0 0 -1 0 794)">
		<stop  offset="0" style="stop-color:#E41B26"/>
		<stop  offset="0.242" style="stop-color:#E21B27"/>
		<stop  offset="0.3292" style="stop-color:#DB1D2B"/>
		<stop  offset="0.3913" style="stop-color:#D02032"/>
		<stop  offset="0.4416" style="stop-color:#BF253B"/>
		<stop  offset="0.4846" style="stop-color:#A92A48"/>
		<stop  offset="0.5228" style="stop-color:#8D3157"/>
		<stop  offset="0.5572" style="stop-color:#6D3A6A"/>
		<stop  offset="0.5889" style="stop-color:#474380"/>
		<stop  offset="0.6171" style="stop-color:#1E4E97"/>
		<stop  offset="0.6246" style="stop-color:#12519E"/>
	</linearGradient>
	<path class="st19" d="M994.97,405h28.46l11.17,107.73h-29.07l-1.38-19.59h-32.29l-10.71,19.59h-29.99L994.97,405z M1002.47,470.64
		l-1.53-31.52l-16.07,31.52H1002.47z"/>
	
		<linearGradient id="SVGID_21_" gradientUnits="userSpaceOnUse" x1="-225.7017" y1="391.0677" x2="1457.3879" y2="318.1339" gradientTransform="matrix(1 0 0 -1 0 794)">
		<stop  offset="0" style="stop-color:#E41B26"/>
		<stop  offset="0.242" style="stop-color:#E21B27"/>
		<stop  offset="0.3292" style="stop-color:#DB1D2B"/>
		<stop  offset="0.3913" style="stop-color:#D02032"/>
		<stop  offset="0.4416" style="stop-color:#BF253B"/>
		<stop  offset="0.4846" style="stop-color:#A92A48"/>
		<stop  offset="0.5228" style="stop-color:#8D3157"/>
		<stop  offset="0.5572" style="stop-color:#6D3A6A"/>
		<stop  offset="0.5889" style="stop-color:#474380"/>
		<stop  offset="0.6171" style="stop-color:#1E4E97"/>
		<stop  offset="0.6246" style="stop-color:#12519E"/>
	</linearGradient>
	<path class="st20" d="M1085.85,480.13h-1.68h-7.04l-7.65,32.59h-28.16l26.17-107.12h32.59c16.37,0,27.24,3.52,33.97,10.25
		c5.51,5.51,8.26,13.01,8.26,21.88c0,11.02-3.52,20.51-10.25,27.39c-3.82,3.83-9.18,7.65-17.9,10.56l13.47,37.03h-30.6
		L1085.85,480.13z M1093.35,457.79c6.89,0,12.09-1.68,15.61-5.05c2.75-2.91,4.44-7.5,4.44-11.78c0-3.37-1.07-5.82-3.06-7.65
		c-2.14-2.3-5.82-3.37-11.02-3.37h-9.79l-6.58,27.85L1093.35,457.79L1093.35,457.79z"/>
</g>
</svg>
