<?xml version="1.0" encoding="utf-8"?>
<!-- Generator: Adobe Illustrator 23.0.0, SVG Export Plug-In . SVG Version: 6.00 Build 0)  -->
<svg version="1.1" id="Capa_1" xmlns="http://www.w3.org/2000/svg" xmlns:xlink="http://www.w3.org/1999/xlink" x="0px" y="0px"
	 viewBox="0 0 1224 792" style="enable-background:new 0 0 1224 792;" xml:space="preserve">
<style type="text/css">
	.st0{fill:url(#SVGID_1_);}
	.st1{fill:url(#SVGID_2_);}
	.st2{fill:url(#SVGID_3_);}
	.st3{fill:url(#SVGID_4_);}
	.st4{fill:url(#SVGID_5_);}
	.st5{fill:url(#SVGID_6_);}
	.st6{fill:url(#SVGID_7_);}
	.st7{fill:url(#SVGID_8_);}
	.st8{fill:url(#SVGID_9_);}
	.st9{fill:url(#SVGID_10_);}
	.st10{fill:url(#SVGID_11_);}
	.st11{fill:url(#SVGID_12_);}
	.st12{fill:url(#SVGID_13_);}
	.st13{fill:url(#SVGID_14_);}
	.st14{fill:url(#SVGID_15_);}
	.st15{fill:url(#SVGID_16_);}
	.st16{fill:url(#SVGID_17_);}
	.st17{fill:url(#SVGID_18_);}
	.st18{fill:url(#SVGID_19_);}
	.st19{fill:url(#SVGID_20_);}
	.st20{fill:url(#SVGID_21_);}
</style>
<g>
	
		<linearGradient id="SVGID_1_" gradientUnits="userSpaceOnUse" x1="-62.7374" y1="476.65" x2="1188.6927" y2="476.65" gradientTransform="matrix(1 0 0 -1 0 794)">
		<stop  offset="0" style="stop-color:#E41B26"/>
		<stop  offset="0.242" style="stop-color:#E21B27"/>
		<stop  offset="0.3292" style="stop-color:#DB1D2B"/>
		<stop  offset="0.3913" style="stop-color:#D02032"/>
		<stop  offset="0.4416" style="stop-color:#BF253B"/>
		<stop  offset="0.4846" style="stop-color:#A92A48"/>
		<stop  offset="0.5228" style="stop-color:#8D3157"/>
		<stop  offset="0.5572" style="stop-color:#6D3A6A"/>
		<stop  offset="0.5889" style="stop-color:#474380"/>
		<stop  offset="0.6171" style="stop-color:#1E4E97"/>
		<stop  offset="0.6246" style="stop-color:#12519E"/>
	</linearGradient>
	<path class="st0" d="M167.41,353.35L181.28,335c8.23,6.58,17.62,11.07,27.44,11.07c6.93,0,10.54-2.94,10.54-7.14v-0.14
		c0-3.92-3.03-6.3-14.88-10.37c-19.06-6.3-32.5-13.03-32.5-30.82v-0.42c0-17.79,14.01-30.26,36.11-30.26
		c13.58,0,25.56,3.64,36.11,11.91l-13.14,18.77c-6.93-5.18-15.31-8.97-23.54-8.97c-5.92,0-9.24,2.8-9.24,6.44v0.14
		c0,4.34,3.18,6.58,16.03,11.21c19.21,6.02,31.2,13.59,31.2,30.26v0.28c0,19.05-15.17,30.82-36.83,30.82
		C193.55,367.78,179.26,363.3,167.41,353.35z"/>
	
		<linearGradient id="SVGID_2_" gradientUnits="userSpaceOnUse" x1="-62.7374" y1="476.655" x2="1188.6927" y2="476.655" gradientTransform="matrix(1 0 0 -1 0 794)">
		<stop  offset="0" style="stop-color:#E41B26"/>
		<stop  offset="0.242" style="stop-color:#E21B27"/>
		<stop  offset="0.3292" style="stop-color:#DB1D2B"/>
		<stop  offset="0.3913" style="stop-color:#D02032"/>
		<stop  offset="0.4416" style="stop-color:#BF253B"/>
		<stop  offset="0.4846" style="stop-color:#A92A48"/>
		<stop  offset="0.5228" style="stop-color:#8D3157"/>
		<stop  offset="0.5572" style="stop-color:#6D3A6A"/>
		<stop  offset="0.5889" style="stop-color:#474380"/>
		<stop  offset="0.6171" style="stop-color:#1E4E97"/>
		<stop  offset="0.6246" style="stop-color:#12519E"/>
	</linearGradient>
	<path class="st1" d="M256.52,268.32h69.61v22.13h-43.91v16.11h39.57v20.87h-39.57v16.81h44.48v22.13h-70.19L256.52,268.32
		L256.52,268.32z"/>
	
		<linearGradient id="SVGID_3_" gradientUnits="userSpaceOnUse" x1="-62.7374" y1="476.65" x2="1188.6927" y2="476.65" gradientTransform="matrix(1 0 0 -1 0 794)">
		<stop  offset="0" style="stop-color:#E41B26"/>
		<stop  offset="0.242" style="stop-color:#E21B27"/>
		<stop  offset="0.3292" style="stop-color:#DB1D2B"/>
		<stop  offset="0.3913" style="stop-color:#D02032"/>
		<stop  offset="0.4416" style="stop-color:#BF253B"/>
		<stop  offset="0.4846" style="stop-color:#A92A48"/>
		<stop  offset="0.5228" style="stop-color:#8D3157"/>
		<stop  offset="0.5572" style="stop-color:#6D3A6A"/>
		<stop  offset="0.5889" style="stop-color:#474380"/>
		<stop  offset="0.6171" style="stop-color:#1E4E97"/>
		<stop  offset="0.6246" style="stop-color:#12519E"/>
	</linearGradient>
	<path class="st2" d="M338.83,268.32h39.72c13.58,0,23.83,3.5,30.33,9.95c5.63,5.46,8.81,13.03,8.81,22.97v0.7
		c0,14.57-7.37,23.68-18.05,28.86l20.8,35.58h-29.32l-17.19-30.4h-9.24v30.4h-25.85L338.83,268.32L338.83,268.32z M377.54,315.95
		c8.81,0,14.01-4.9,14.01-12.75v-0.28c0-8.4-5.49-12.61-14.15-12.61h-12.71v25.64H377.54z"/>
	
		<linearGradient id="SVGID_4_" gradientUnits="userSpaceOnUse" x1="-62.7374" y1="476.37" x2="1188.6927" y2="476.37" gradientTransform="matrix(1 0 0 -1 0 794)">
		<stop  offset="0" style="stop-color:#E41B26"/>
		<stop  offset="0.242" style="stop-color:#E21B27"/>
		<stop  offset="0.3292" style="stop-color:#DB1D2B"/>
		<stop  offset="0.3913" style="stop-color:#D02032"/>
		<stop  offset="0.4416" style="stop-color:#BF253B"/>
		<stop  offset="0.4846" style="stop-color:#A92A48"/>
		<stop  offset="0.5228" style="stop-color:#8D3157"/>
		<stop  offset="0.5572" style="stop-color:#6D3A6A"/>
		<stop  offset="0.5889" style="stop-color:#474380"/>
		<stop  offset="0.6171" style="stop-color:#1E4E97"/>
		<stop  offset="0.6246" style="stop-color:#12519E"/>
	</linearGradient>
	<path class="st3" d="M420.14,268.32h28.31l18.63,61.08l18.49-61.08h27.73l-34.08,98.62h-24.99L420.14,268.32z"/>
	
		<linearGradient id="SVGID_5_" gradientUnits="userSpaceOnUse" x1="-62.7374" y1="476.65" x2="1188.6927" y2="476.65" gradientTransform="matrix(1 0 0 -1 0 794)">
		<stop  offset="0" style="stop-color:#E41B26"/>
		<stop  offset="0.242" style="stop-color:#E21B27"/>
		<stop  offset="0.3292" style="stop-color:#DB1D2B"/>
		<stop  offset="0.3913" style="stop-color:#D02032"/>
		<stop  offset="0.4416" style="stop-color:#BF253B"/>
		<stop  offset="0.4846" style="stop-color:#A92A48"/>
		<stop  offset="0.5228" style="stop-color:#8D3157"/>
		<stop  offset="0.5572" style="stop-color:#6D3A6A"/>
		<stop  offset="0.5889" style="stop-color:#474380"/>
		<stop  offset="0.6171" style="stop-color:#1E4E97"/>
		<stop  offset="0.6246" style="stop-color:#12519E"/>
	</linearGradient>
	<path class="st4" d="M521.81,268.32h26v98.06h-26V268.32z"/>
	
		<linearGradient id="SVGID_6_" gradientUnits="userSpaceOnUse" x1="-62.7374" y1="476.65" x2="1188.6927" y2="476.65" gradientTransform="matrix(1 0 0 -1 0 794)">
		<stop  offset="0" style="stop-color:#E41B26"/>
		<stop  offset="0.242" style="stop-color:#E21B27"/>
		<stop  offset="0.3292" style="stop-color:#DB1D2B"/>
		<stop  offset="0.3913" style="stop-color:#D02032"/>
		<stop  offset="0.4416" style="stop-color:#BF253B"/>
		<stop  offset="0.4846" style="stop-color:#A92A48"/>
		<stop  offset="0.5228" style="stop-color:#8D3157"/>
		<stop  offset="0.5572" style="stop-color:#6D3A6A"/>
		<stop  offset="0.5889" style="stop-color:#474380"/>
		<stop  offset="0.6171" style="stop-color:#1E4E97"/>
		<stop  offset="0.6246" style="stop-color:#12519E"/>
	</linearGradient>
	<path class="st5" d="M563.4,268.32h39.72c13.58,0,23.83,3.5,30.33,9.95c5.63,5.46,8.81,13.03,8.81,22.97v0.7
		c0,14.57-7.37,23.68-18.05,28.86l20.8,35.58h-29.32l-17.19-30.4h-9.24v30.4H563.4V268.32z M602.11,315.95
		c8.81,0,14.01-4.9,14.01-12.75v-0.28c0-8.4-5.49-12.61-14.15-12.61h-12.71v25.64H602.11z"/>
	
		<linearGradient id="SVGID_7_" gradientUnits="userSpaceOnUse" x1="-62.7374" y1="476.65" x2="1188.6927" y2="476.65" gradientTransform="matrix(1 0 0 -1 0 794)">
		<stop  offset="0" style="stop-color:#E41B26"/>
		<stop  offset="0.242" style="stop-color:#E21B27"/>
		<stop  offset="0.3292" style="stop-color:#DB1D2B"/>
		<stop  offset="0.3913" style="stop-color:#D02032"/>
		<stop  offset="0.4416" style="stop-color:#BF253B"/>
		<stop  offset="0.4846" style="stop-color:#A92A48"/>
		<stop  offset="0.5228" style="stop-color:#8D3157"/>
		<stop  offset="0.5572" style="stop-color:#6D3A6A"/>
		<stop  offset="0.5889" style="stop-color:#474380"/>
		<stop  offset="0.6171" style="stop-color:#1E4E97"/>
		<stop  offset="0.6246" style="stop-color:#12519E"/>
	</linearGradient>
	<path class="st6" d="M688.32,268.32h36.11c23.83,0,39.43,12.05,39.43,34.04v0.56c0,23.53-17.62,34.74-39.72,35.02h-9.97v28.44
		h-25.85L688.32,268.32L688.32,268.32z M723.27,317.35c9.1,0,14.59-5.18,14.59-13.45v-0.42c0-8.97-5.34-13.59-14.73-13.59h-8.95
		v27.46L723.27,317.35L723.27,317.35z"/>
	
		<linearGradient id="SVGID_8_" gradientUnits="userSpaceOnUse" x1="-62.7374" y1="476.93" x2="1188.6927" y2="476.93" gradientTransform="matrix(1 0 0 -1 0 794)">
		<stop  offset="0" style="stop-color:#E41B26"/>
		<stop  offset="0.242" style="stop-color:#E21B27"/>
		<stop  offset="0.3292" style="stop-color:#DB1D2B"/>
		<stop  offset="0.3913" style="stop-color:#D02032"/>
		<stop  offset="0.4416" style="stop-color:#BF253B"/>
		<stop  offset="0.4846" style="stop-color:#A92A48"/>
		<stop  offset="0.5228" style="stop-color:#8D3157"/>
		<stop  offset="0.5572" style="stop-color:#6D3A6A"/>
		<stop  offset="0.5889" style="stop-color:#474380"/>
		<stop  offset="0.6171" style="stop-color:#1E4E97"/>
		<stop  offset="0.6246" style="stop-color:#12519E"/>
	</linearGradient>
	<path class="st7" d="M793.46,267.76h26.29l35.67,98.62h-27.3l-5.92-17.65h-31.77l-5.78,17.65h-26.72L793.46,267.76z M815.7,328.55
		l-9.39-28.72l-9.39,28.72H815.7z"/>
	
		<linearGradient id="SVGID_9_" gradientUnits="userSpaceOnUse" x1="-62.7374" y1="476.65" x2="1188.6927" y2="476.65" gradientTransform="matrix(1 0 0 -1 0 794)">
		<stop  offset="0" style="stop-color:#E41B26"/>
		<stop  offset="0.242" style="stop-color:#E21B27"/>
		<stop  offset="0.3292" style="stop-color:#DB1D2B"/>
		<stop  offset="0.3913" style="stop-color:#D02032"/>
		<stop  offset="0.4416" style="stop-color:#BF253B"/>
		<stop  offset="0.4846" style="stop-color:#A92A48"/>
		<stop  offset="0.5228" style="stop-color:#8D3157"/>
		<stop  offset="0.5572" style="stop-color:#6D3A6A"/>
		<stop  offset="0.5889" style="stop-color:#474380"/>
		<stop  offset="0.6171" style="stop-color:#1E4E97"/>
		<stop  offset="0.6246" style="stop-color:#12519E"/>
	</linearGradient>
	<path class="st8" d="M863.35,268.32h39.72c13.58,0,23.83,3.5,30.33,9.95c5.63,5.46,8.81,13.03,8.81,22.97v0.7
		c0,14.57-7.37,23.68-18.05,28.86l20.8,35.58h-29.32l-17.19-30.4h-9.24v30.4h-25.85v-98.06H863.35z M902.06,315.95
		c8.81,0,14.01-4.9,14.01-12.75v-0.28c0-8.4-5.49-12.61-14.15-12.61H889.2v25.64H902.06z"/>
	
		<linearGradient id="SVGID_10_" gradientUnits="userSpaceOnUse" x1="-62.7374" y1="476.93" x2="1188.6927" y2="476.93" gradientTransform="matrix(1 0 0 -1 0 794)">
		<stop  offset="0" style="stop-color:#E41B26"/>
		<stop  offset="0.242" style="stop-color:#E21B27"/>
		<stop  offset="0.3292" style="stop-color:#DB1D2B"/>
		<stop  offset="0.3913" style="stop-color:#D02032"/>
		<stop  offset="0.4416" style="stop-color:#BF253B"/>
		<stop  offset="0.4846" style="stop-color:#A92A48"/>
		<stop  offset="0.5228" style="stop-color:#8D3157"/>
		<stop  offset="0.5572" style="stop-color:#6D3A6A"/>
		<stop  offset="0.5889" style="stop-color:#474380"/>
		<stop  offset="0.6171" style="stop-color:#1E4E97"/>
		<stop  offset="0.6246" style="stop-color:#12519E"/>
	</linearGradient>
	<path class="st9" d="M981.05,267.76h26.29l35.67,98.62h-27.3l-5.92-17.65h-31.77l-5.78,17.65h-26.72L981.05,267.76z
		 M1003.29,328.55l-9.39-28.72l-9.39,28.72H1003.29z"/>
	
		<linearGradient id="SVGID_11_" gradientUnits="userSpaceOnUse" x1="-62.7374" y1="356.78" x2="1188.6927" y2="356.78" gradientTransform="matrix(1 0 0 -1 0 794)">
		<stop  offset="0" style="stop-color:#E41B26"/>
		<stop  offset="0.242" style="stop-color:#E21B27"/>
		<stop  offset="0.3292" style="stop-color:#DB1D2B"/>
		<stop  offset="0.3913" style="stop-color:#D02032"/>
		<stop  offset="0.4416" style="stop-color:#BF253B"/>
		<stop  offset="0.4846" style="stop-color:#A92A48"/>
		<stop  offset="0.5228" style="stop-color:#8D3157"/>
		<stop  offset="0.5572" style="stop-color:#6D3A6A"/>
		<stop  offset="0.5889" style="stop-color:#474380"/>
		<stop  offset="0.6171" style="stop-color:#1E4E97"/>
		<stop  offset="0.6246" style="stop-color:#12519E"/>
	</linearGradient>
	<path class="st10" d="M136.51,411.16h-24.84l6.07-22.97h76.11l-6.07,22.97h-24.7l-18.77,75.09h-26.57L136.51,411.16z"/>
	
		<linearGradient id="SVGID_12_" gradientUnits="userSpaceOnUse" x1="-62.7374" y1="356.775" x2="1188.6927" y2="356.775" gradientTransform="matrix(1 0 0 -1 0 794)">
		<stop  offset="0" style="stop-color:#E41B26"/>
		<stop  offset="0.242" style="stop-color:#E21B27"/>
		<stop  offset="0.3292" style="stop-color:#DB1D2B"/>
		<stop  offset="0.3913" style="stop-color:#D02032"/>
		<stop  offset="0.4416" style="stop-color:#BF253B"/>
		<stop  offset="0.4846" style="stop-color:#A92A48"/>
		<stop  offset="0.5228" style="stop-color:#8D3157"/>
		<stop  offset="0.5572" style="stop-color:#6D3A6A"/>
		<stop  offset="0.5889" style="stop-color:#474380"/>
		<stop  offset="0.6171" style="stop-color:#1E4E97"/>
		<stop  offset="0.6246" style="stop-color:#12519E"/>
	</linearGradient>
	<path class="st11" d="M220.13,456.41h-1.59h-6.64l-7.22,29.84H178.1l24.7-98.06h30.76c15.45,0,25.71,3.22,32.06,9.39
		c5.2,5.04,7.8,11.91,7.8,20.03c0,10.09-3.32,18.77-9.68,25.08c-3.61,3.5-8.67,7-16.9,9.67l12.71,33.9h-28.88L220.13,456.41z
		 M227.21,435.95c6.5,0,11.41-1.54,14.73-4.62c2.6-2.66,4.19-6.86,4.19-10.79c0-3.08-1.01-5.32-2.89-7
		c-2.02-2.1-5.49-3.08-10.4-3.08h-9.24l-6.21,25.5h9.82V435.95z"/>
	
		<linearGradient id="SVGID_13_" gradientUnits="userSpaceOnUse" x1="-62.7374" y1="357.07" x2="1188.6927" y2="357.07" gradientTransform="matrix(1 0 0 -1 0 794)">
		<stop  offset="0" style="stop-color:#E41B26"/>
		<stop  offset="0.242" style="stop-color:#E21B27"/>
		<stop  offset="0.3292" style="stop-color:#DB1D2B"/>
		<stop  offset="0.3913" style="stop-color:#D02032"/>
		<stop  offset="0.4416" style="stop-color:#BF253B"/>
		<stop  offset="0.4846" style="stop-color:#A92A48"/>
		<stop  offset="0.5228" style="stop-color:#8D3157"/>
		<stop  offset="0.5572" style="stop-color:#6D3A6A"/>
		<stop  offset="0.5889" style="stop-color:#474380"/>
		<stop  offset="0.6171" style="stop-color:#1E4E97"/>
		<stop  offset="0.6246" style="stop-color:#12519E"/>
	</linearGradient>
	<path class="st12" d="M320.5,387.62h26.86l10.54,98.62h-27.44l-1.3-17.93h-30.47l-10.11,17.93h-28.31L320.5,387.62z M327.58,447.72
		l-1.44-28.86l-15.16,28.86L327.58,447.72L327.58,447.72z"/>
	
		<linearGradient id="SVGID_14_" gradientUnits="userSpaceOnUse" x1="-62.7374" y1="356.79" x2="1188.6927" y2="356.79" gradientTransform="matrix(1 0 0 -1 0 794)">
		<stop  offset="0" style="stop-color:#E41B26"/>
		<stop  offset="0.242" style="stop-color:#E21B27"/>
		<stop  offset="0.3292" style="stop-color:#DB1D2B"/>
		<stop  offset="0.3913" style="stop-color:#D02032"/>
		<stop  offset="0.4416" style="stop-color:#BF253B"/>
		<stop  offset="0.4846" style="stop-color:#A92A48"/>
		<stop  offset="0.5228" style="stop-color:#8D3157"/>
		<stop  offset="0.5572" style="stop-color:#6D3A6A"/>
		<stop  offset="0.5889" style="stop-color:#474380"/>
		<stop  offset="0.6171" style="stop-color:#1E4E97"/>
		<stop  offset="0.6246" style="stop-color:#12519E"/>
	</linearGradient>
	<path class="st13" d="M388.95,388.18h24.99L432.85,441L446,388.18h26.14l-24.7,98.06H423.9l-19.93-54.91l-13.58,54.91h-26.14
		L388.95,388.18z"/>
	
		<linearGradient id="SVGID_15_" gradientUnits="userSpaceOnUse" x1="-62.7374" y1="356.78" x2="1188.6927" y2="356.78" gradientTransform="matrix(1 0 0 -1 0 794)">
		<stop  offset="0" style="stop-color:#E41B26"/>
		<stop  offset="0.242" style="stop-color:#E21B27"/>
		<stop  offset="0.3292" style="stop-color:#DB1D2B"/>
		<stop  offset="0.3913" style="stop-color:#D02032"/>
		<stop  offset="0.4416" style="stop-color:#BF253B"/>
		<stop  offset="0.4846" style="stop-color:#A92A48"/>
		<stop  offset="0.5228" style="stop-color:#8D3157"/>
		<stop  offset="0.5572" style="stop-color:#6D3A6A"/>
		<stop  offset="0.5889" style="stop-color:#474380"/>
		<stop  offset="0.6171" style="stop-color:#1E4E97"/>
		<stop  offset="0.6246" style="stop-color:#12519E"/>
	</linearGradient>
	<path class="st14" d="M460.43,471.26l16.18-18.07c8.67,8.26,17.19,12.61,25.27,12.61c5.34,0,8.81-2.8,8.81-7
		c0-3.5-2.31-5.88-13-12.05c-13.72-7.84-21.23-15.41-21.23-27.6c0-8.83,3.47-16.53,9.1-21.99c6.79-6.58,16.61-10.51,28.6-10.51
		c15.02,0,27.01,5.6,35.82,13.73l-15.89,18.21c-6.35-5.74-13.43-9.95-21.37-9.95c-5.63,0-8.81,2.94-8.81,6.58
		c0,3.64,2.31,5.74,13.29,12.19c12.71,7.28,21.23,14.71,21.23,27.74c0,8.97-3.47,16.67-9.53,22.55c-6.64,6.44-16.9,10.09-28.6,10.09
		C484.26,487.79,470.4,481.62,460.43,471.26z"/>
	
		<linearGradient id="SVGID_16_" gradientUnits="userSpaceOnUse" x1="-62.7374" y1="356.795" x2="1188.6927" y2="356.795" gradientTransform="matrix(1 0 0 -1 0 794)">
		<stop  offset="0" style="stop-color:#E41B26"/>
		<stop  offset="0.242" style="stop-color:#E21B27"/>
		<stop  offset="0.3292" style="stop-color:#DB1D2B"/>
		<stop  offset="0.3913" style="stop-color:#D02032"/>
		<stop  offset="0.4416" style="stop-color:#BF253B"/>
		<stop  offset="0.4846" style="stop-color:#A92A48"/>
		<stop  offset="0.5228" style="stop-color:#8D3157"/>
		<stop  offset="0.5572" style="stop-color:#6D3A6A"/>
		<stop  offset="0.5889" style="stop-color:#474380"/>
		<stop  offset="0.6171" style="stop-color:#1E4E97"/>
		<stop  offset="0.6246" style="stop-color:#12519E"/>
	</linearGradient>
	<path class="st15" d="M566.58,388.18h68.89l-6.07,22.97h-42.32l-4.04,17.09h38.13l-5.78,21.85h-37.98l-8.95,36.14h-26.57
		L566.58,388.18z"/>
	
		<linearGradient id="SVGID_17_" gradientUnits="userSpaceOnUse" x1="-62.7374" y1="356.78" x2="1188.6927" y2="356.78" gradientTransform="matrix(1 0 0 -1 0 794)">
		<stop  offset="0" style="stop-color:#E41B26"/>
		<stop  offset="0.242" style="stop-color:#E21B27"/>
		<stop  offset="0.3292" style="stop-color:#DB1D2B"/>
		<stop  offset="0.3913" style="stop-color:#D02032"/>
		<stop  offset="0.4416" style="stop-color:#BF253B"/>
		<stop  offset="0.4846" style="stop-color:#A92A48"/>
		<stop  offset="0.5228" style="stop-color:#8D3157"/>
		<stop  offset="0.5572" style="stop-color:#6D3A6A"/>
		<stop  offset="0.5889" style="stop-color:#474380"/>
		<stop  offset="0.6171" style="stop-color:#1E4E97"/>
		<stop  offset="0.6246" style="stop-color:#12519E"/>
	</linearGradient>
	<path class="st16" d="M723.42,426.85c0,15.97-6.35,35.16-18.77,47.07c-8.95,8.68-20.94,14.15-34.95,14.15
		c-24.26,0-40.44-15.97-40.44-40.48c0-15.97,6.35-35.16,18.78-47.21c8.95-8.68,20.94-14.01,34.95-14.01
		C707.24,386.36,723.42,402.33,723.42,426.85z M685.29,459.07c7.08-6.86,11.26-20.87,11.26-30.4c0-12.05-5.63-19.05-15.89-19.05
		c-5.2,0-9.53,1.96-13.29,5.74c-7.08,6.86-11.26,21.01-11.26,30.4c0,12.19,5.63,19.05,15.89,19.05
		C677.06,464.81,681.54,462.71,685.29,459.07z"/>
	
		<linearGradient id="SVGID_18_" gradientUnits="userSpaceOnUse" x1="-62.7374" y1="356.775" x2="1188.6927" y2="356.775" gradientTransform="matrix(1 0 0 -1 0 794)">
		<stop  offset="0" style="stop-color:#E41B26"/>
		<stop  offset="0.242" style="stop-color:#E21B27"/>
		<stop  offset="0.3292" style="stop-color:#DB1D2B"/>
		<stop  offset="0.3913" style="stop-color:#D02032"/>
		<stop  offset="0.4416" style="stop-color:#BF253B"/>
		<stop  offset="0.4846" style="stop-color:#A92A48"/>
		<stop  offset="0.5228" style="stop-color:#8D3157"/>
		<stop  offset="0.5572" style="stop-color:#6D3A6A"/>
		<stop  offset="0.5889" style="stop-color:#474380"/>
		<stop  offset="0.6171" style="stop-color:#1E4E97"/>
		<stop  offset="0.6246" style="stop-color:#12519E"/>
	</linearGradient>
	<path class="st17" d="M763.42,456.41h-1.59h-6.64l-7.22,29.84H721.4l24.7-98.06h30.76c15.45,0,25.71,3.22,32.06,9.39
		c5.2,5.04,7.8,11.91,7.8,20.03c0,10.09-3.32,18.77-9.68,25.08c-3.61,3.5-8.67,7-16.9,9.67l12.71,33.9h-28.88L763.42,456.41z
		 M770.49,435.95c6.5,0,11.41-1.54,14.73-4.62c2.6-2.66,4.19-6.86,4.19-10.79c0-3.08-1.01-5.32-2.89-7
		c-2.02-2.1-5.49-3.08-10.4-3.08h-9.24l-6.21,25.5h9.82V435.95z"/>
	
		<linearGradient id="SVGID_19_" gradientUnits="userSpaceOnUse" x1="-62.7374" y1="356.79" x2="1188.6927" y2="356.79" gradientTransform="matrix(1 0 0 -1 0 794)">
		<stop  offset="0" style="stop-color:#E41B26"/>
		<stop  offset="0.242" style="stop-color:#E21B27"/>
		<stop  offset="0.3292" style="stop-color:#DB1D2B"/>
		<stop  offset="0.3913" style="stop-color:#D02032"/>
		<stop  offset="0.4416" style="stop-color:#BF253B"/>
		<stop  offset="0.4846" style="stop-color:#A92A48"/>
		<stop  offset="0.5228" style="stop-color:#8D3157"/>
		<stop  offset="0.5572" style="stop-color:#6D3A6A"/>
		<stop  offset="0.5889" style="stop-color:#474380"/>
		<stop  offset="0.6171" style="stop-color:#1E4E97"/>
		<stop  offset="0.6246" style="stop-color:#12519E"/>
	</linearGradient>
	<path class="st18" d="M836.49,388.18h26.72l9.97,36.7l28.16-36.7h29.32l-24.7,98.06h-26.43l13.72-55.75l-29.9,37.12h-0.43
		l-11.27-36.84l-13.72,55.47h-26.14L836.49,388.18z"/>
	
		<linearGradient id="SVGID_20_" gradientUnits="userSpaceOnUse" x1="-62.7374" y1="357.07" x2="1188.6927" y2="357.07" gradientTransform="matrix(1 0 0 -1 0 794)">
		<stop  offset="0" style="stop-color:#E41B26"/>
		<stop  offset="0.242" style="stop-color:#E21B27"/>
		<stop  offset="0.3292" style="stop-color:#DB1D2B"/>
		<stop  offset="0.3913" style="stop-color:#D02032"/>
		<stop  offset="0.4416" style="stop-color:#BF253B"/>
		<stop  offset="0.4846" style="stop-color:#A92A48"/>
		<stop  offset="0.5228" style="stop-color:#8D3157"/>
		<stop  offset="0.5572" style="stop-color:#6D3A6A"/>
		<stop  offset="0.5889" style="stop-color:#474380"/>
		<stop  offset="0.6171" style="stop-color:#1E4E97"/>
		<stop  offset="0.6246" style="stop-color:#12519E"/>
	</linearGradient>
	<path class="st19" d="M973.25,387.62h26.86l10.54,98.62h-27.44l-1.3-17.93h-30.47l-10.11,17.93h-28.31L973.25,387.62z
		 M980.33,447.72l-1.44-28.86l-15.16,28.86L980.33,447.72L980.33,447.72z"/>
	
		<linearGradient id="SVGID_21_" gradientUnits="userSpaceOnUse" x1="-62.7374" y1="356.775" x2="1188.6927" y2="356.775" gradientTransform="matrix(1 0 0 -1 0 794)">
		<stop  offset="0" style="stop-color:#E41B26"/>
		<stop  offset="0.242" style="stop-color:#E21B27"/>
		<stop  offset="0.3292" style="stop-color:#DB1D2B"/>
		<stop  offset="0.3913" style="stop-color:#D02032"/>
		<stop  offset="0.4416" style="stop-color:#BF253B"/>
		<stop  offset="0.4846" style="stop-color:#A92A48"/>
		<stop  offset="0.5228" style="stop-color:#8D3157"/>
		<stop  offset="0.5572" style="stop-color:#6D3A6A"/>
		<stop  offset="0.5889" style="stop-color:#474380"/>
		<stop  offset="0.6171" style="stop-color:#1E4E97"/>
		<stop  offset="0.6246" style="stop-color:#12519E"/>
	</linearGradient>
	<path class="st20" d="M1059.03,456.41h-1.59h-6.64l-7.22,29.84h-26.57l24.7-98.06h30.76c15.45,0,25.71,3.22,32.06,9.39
		c5.2,5.04,7.8,11.91,7.8,20.03c0,10.09-3.32,18.77-9.68,25.08c-3.61,3.5-8.67,7-16.9,9.67l12.71,33.9h-28.88L1059.03,456.41z
		 M1066.11,435.95c6.5,0,11.41-1.54,14.73-4.62c2.6-2.66,4.19-6.86,4.19-10.79c0-3.08-1.01-5.32-2.89-7
		c-2.02-2.1-5.49-3.08-10.4-3.08h-9.24l-6.21,25.5h9.82V435.95z"/>
</g>
</svg>
