<?xml version="1.0" encoding="utf-8"?>
<!-- Generator: Adobe Illustrator 23.0.0, SVG Export Plug-In . SVG Version: 6.00 Build 0)  -->
<svg version="1.1" id="Capa_1" xmlns="http://www.w3.org/2000/svg" xmlns:xlink="http://www.w3.org/1999/xlink" x="0px" y="0px"
	 viewBox="0 0 1194 876" style="enable-background:new 0 0 1194 876;" xml:space="preserve">
<style type="text/css">
	.st0{opacity:0.31;}
	.st1{clip-path:url(#SVGID_6_);fill:none;}
	.st2{fill:#D20F12;}
	.st3{fill:url(#SVGID_13_);}
	.st4{clip-path:url(#SVGID_15_);}
	.st5{fill:#FA060A;}
	.st6{fill:#16348F;}
	.st7{fill:#FFFFFF;}
	.st8{fill:url(#SVGID_20_);}
	.st9{fill:url(#SVGID_23_);}
	.st10{fill:none;stroke:#FFFFFF;stroke-width:10.2498;stroke-miterlimit:10;}
	.st11{fill:url(#SVGID_24_);}
	.st12{fill:url(#SVGID_25_);}
	.st13{fill:url(#SVGID_26_);}
	.st14{fill:url(#SVGID_27_);}
	.st15{fill:url(#SVGID_28_);}
	.st16{fill:url(#SVGID_29_);}
	.st17{fill:url(#SVGID_30_);}
	.st18{opacity:0.15;}
	.st19{fill:url(#SVGID_33_);}
	.st20{fill:url(#SVGID_34_);}
	.st21{fill:url(#SVGID_35_);}
	.st22{fill:url(#SVGID_36_);}
	.st23{fill:url(#SVGID_37_);}
	.st24{fill:url(#SVGID_38_);}
	.st25{fill:url(#SVGID_39_);}
	.st26{fill:url(#SVGID_40_);}
	.st27{fill:url(#SVGID_41_);}
	.st28{fill:url(#SVGID_42_);}
	.st29{fill:url(#SVGID_43_);}
	.st30{fill:url(#SVGID_44_);}
	.st31{fill:url(#SVGID_45_);}
	.st32{fill:url(#SVGID_46_);}
	.st33{fill:url(#SVGID_47_);}
	.st34{fill:url(#SVGID_48_);}
	.st35{fill:url(#SVGID_49_);}
	.st36{fill:url(#SVGID_50_);}
	.st37{fill:url(#SVGID_51_);}
	.st38{fill:url(#SVGID_52_);}
	.st39{fill:url(#SVGID_53_);}
	.st40{fill:url(#SVGID_54_);}
	.st41{fill:url(#SVGID_55_);}
	.st42{fill:url(#SVGID_56_);}
	.st43{fill:url(#SVGID_57_);}
	.st44{fill:url(#SVGID_58_);}
	.st45{fill:url(#SVGID_59_);}
	.st46{fill:url(#SVGID_60_);}
	.st47{fill:url(#SVGID_61_);}
	.st48{fill:url(#SVGID_62_);}
	.st49{fill:url(#SVGID_63_);}
	.st50{fill:url(#SVGID_64_);}
	.st51{fill:url(#SVGID_65_);}
	.st52{fill:url(#SVGID_66_);}
	.st53{fill:url(#SVGID_67_);}
	.st54{fill:url(#SVGID_68_);}
	.st55{fill:url(#SVGID_69_);}
	.st56{fill:url(#SVGID_70_);}
	.st57{fill:url(#SVGID_71_);}
	.st58{fill:url(#SVGID_72_);}
	.st59{fill:none;}
	.st60{fill:url(#SVGID_73_);}
	.st61{fill:none;stroke:#000000;stroke-miterlimit:10;}
	.st62{fill:#606060;}
	.st63{fill:url(#SVGID_78_);}
	.st64{fill:url(#SVGID_79_);}
	.st65{fill:url(#SVGID_80_);}
	.st66{fill:url(#SVGID_81_);}
	.st67{fill:url(#SVGID_82_);}
	.st68{fill:url(#SVGID_83_);}
	.st69{fill:url(#SVGID_84_);}
	.st70{fill:url(#SVGID_85_);}
	.st71{fill:url(#SVGID_86_);}
	.st72{fill:url(#SVGID_87_);}
	.st73{fill:url(#SVGID_88_);}
	.st74{fill:url(#SVGID_89_);}
	.st75{fill:url(#SVGID_90_);}
	.st76{fill:url(#SVGID_91_);}
	.st77{fill:url(#SVGID_92_);}
	.st78{fill:url(#SVGID_93_);}
	.st79{fill:url(#SVGID_94_);}
	.st80{fill:url(#SVGID_95_);}
	.st81{fill:url(#SVGID_96_);}
	.st82{fill:url(#SVGID_97_);}
	.st83{fill:url(#SVGID_98_);}
	.st84{fill:url(#SVGID_99_);}
	.st85{fill:url(#SVGID_100_);}
	.st86{fill:url(#SVGID_101_);}
	.st87{fill:url(#SVGID_102_);}
	.st88{fill:url(#SVGID_107_);}
	.st89{fill:url(#SVGID_110_);}
	.st90{clip-path:url(#SVGID_112_);fill:none;}
	.st91{fill:url(#SVGID_113_);}
	.st92{fill:url(#SVGID_114_);}
	.st93{fill:url(#SVGID_115_);}
	.st94{fill:url(#SVGID_118_);}
	.st95{clip-path:url(#SVGID_120_);fill:none;}
	.st96{fill:url(#SVGID_121_);}
	.st97{fill:url(#SVGID_122_);}
	.st98{opacity:0.8;}
	.st99{fill:#FA0009;}
	.st100{fill:url(#SVGID_123_);}
	.st101{fill:url(#SVGID_124_);}
	.st102{fill:url(#SVGID_125_);}
	.st103{fill:url(#SVGID_126_);}
	.st104{fill:url(#SVGID_127_);}
	.st105{fill:url(#SVGID_128_);}
	.st106{fill:url(#SVGID_129_);}
	.st107{fill:url(#SVGID_130_);}
	.st108{fill:url(#SVGID_131_);}
	.st109{fill:url(#SVGID_132_);}
	.st110{fill:url(#SVGID_133_);}
	.st111{fill:url(#SVGID_134_);}
	.st112{fill:url(#SVGID_135_);}
	.st113{fill:url(#SVGID_136_);}
	.st114{fill:url(#SVGID_137_);}
	.st115{fill:url(#SVGID_138_);}
	.st116{fill:url(#SVGID_139_);}
	.st117{fill:url(#SVGID_140_);}
	.st118{fill:url(#SVGID_141_);}
	.st119{fill:url(#SVGID_142_);}
	.st120{fill:url(#SVGID_143_);}
	.st121{fill:url(#SVGID_144_);}
	.st122{fill:url(#SVGID_145_);}
	.st123{fill:url(#SVGID_146_);}
	.st124{fill:url(#SVGID_147_);}
	.st125{fill:url(#SVGID_148_);}
	.st126{fill:url(#SVGID_149_);}
	.st127{fill:url(#SVGID_150_);}
	.st128{fill:url(#SVGID_151_);}
	.st129{fill:url(#SVGID_152_);}
	.st130{fill:url(#SVGID_153_);}
	.st131{fill:url(#SVGID_154_);}
	.st132{fill:url(#SVGID_155_);}
	.st133{fill:url(#SVGID_156_);}
	.st134{fill:url(#SVGID_157_);}
	.st135{fill:url(#SVGID_158_);}
	.st136{fill:url(#SVGID_159_);}
	.st137{fill:url(#SVGID_160_);}
	.st138{fill:url(#SVGID_161_);}
	.st139{fill:url(#SVGID_162_);}
	.st140{fill:url(#SVGID_163_);}
	.st141{fill:url(#SVGID_164_);}
	.st142{fill:url(#SVGID_165_);}
	.st143{fill:url(#SVGID_166_);}
	.st144{fill:url(#SVGID_167_);}
	.st145{fill:url(#SVGID_170_);}
	.st146{fill:url(#SVGID_171_);}
	.st147{fill:url(#SVGID_172_);}
	.st148{fill:url(#SVGID_173_);}
	.st149{fill:url(#SVGID_174_);}
	.st150{fill:url(#SVGID_175_);}
	.st151{fill:url(#SVGID_176_);}
	.st152{fill:url(#SVGID_177_);}
	.st153{fill:url(#SVGID_178_);}
	.st154{fill:url(#SVGID_179_);}
	.st155{fill:url(#SVGID_180_);}
	.st156{fill:url(#SVGID_181_);}
	.st157{fill:url(#SVGID_182_);}
	.st158{fill:url(#SVGID_183_);}
	.st159{fill:url(#SVGID_184_);}
	.st160{fill:url(#SVGID_185_);}
	.st161{fill:url(#SVGID_186_);}
	.st162{fill:url(#SVGID_187_);}
	.st163{fill:url(#SVGID_188_);}
	.st164{fill:url(#SVGID_189_);}
	.st165{fill:url(#SVGID_190_);}
	.st166{fill:url(#SVGID_191_);}
	.st167{fill:url(#SVGID_192_);}
	.st168{fill:url(#SVGID_193_);}
	.st169{fill:url(#SVGID_194_);}
	.st170{fill:url(#SVGID_195_);}
	.st171{fill:#F5F5F5;}
	.st172{fill:url(#SVGID_196_);}
	.st173{fill:url(#SVGID_197_);}
	.st174{fill:url(#SVGID_198_);}
	.st175{fill:url(#SVGID_199_);}
	.st176{fill:url(#SVGID_200_);}
	.st177{fill:url(#SVGID_201_);}
	.st178{fill:url(#SVGID_202_);}
	.st179{fill:url(#SVGID_203_);}
	.st180{fill:url(#SVGID_204_);}
	.st181{fill:url(#SVGID_205_);}
	.st182{fill:url(#SVGID_206_);}
	.st183{fill:url(#SVGID_207_);}
	.st184{fill:url(#SVGID_208_);}
	.st185{fill:url(#SVGID_209_);}
	.st186{fill:url(#SVGID_210_);}
	.st187{fill:url(#SVGID_211_);}
	.st188{fill:url(#SVGID_212_);}
	.st189{fill:url(#SVGID_213_);}
	.st190{fill:url(#SVGID_214_);}
	.st191{fill-rule:evenodd;clip-rule:evenodd;fill:url(#SVGID_215_);}
	.st192{fill-rule:evenodd;clip-rule:evenodd;fill:#FFFFFF;}
	.st193{fill:url(#SVGID_216_);}
	.st194{fill:url(#SVGID_217_);}
	.st195{fill:url(#SVGID_218_);}
	.st196{fill:url(#SVGID_219_);}
	.st197{fill:url(#SVGID_220_);}
	.st198{fill:url(#SVGID_221_);}
	.st199{fill:url(#SVGID_222_);}
	.st200{fill:url(#SVGID_223_);}
	.st201{fill:url(#SVGID_224_);}
	.st202{fill:url(#SVGID_225_);}
	.st203{fill:url(#SVGID_226_);}
	.st204{fill:url(#SVGID_233_);}
	.st205{fill:url(#SVGID_234_);}
	.st206{fill:url(#SVGID_235_);}
	.st207{fill:url(#SVGID_236_);}
	.st208{fill:url(#SVGID_237_);}
	.st209{fill:url(#SVGID_238_);}
	.st210{fill:url(#SVGID_239_);}
	.st211{fill:url(#SVGID_240_);}
	.st212{fill:url(#SVGID_241_);}
	.st213{fill:url(#SVGID_242_);}
	.st214{fill:url(#SVGID_243_);}
	.st215{fill:url(#SVGID_244_);}
	.st216{fill:url(#SVGID_245_);}
	.st217{fill:url(#SVGID_246_);}
	.st218{fill:url(#SVGID_247_);}
	.st219{fill:url(#SVGID_248_);}
	.st220{fill:url(#SVGID_249_);}
	.st221{fill:url(#SVGID_250_);}
	.st222{clip-path:url(#SVGID_252_);fill:none;}
	.st223{fill:url(#SVGID_253_);}
	.st224{fill:url(#SVGID_256_);}
	.st225{fill:url(#SVGID_257_);}
	.st226{fill:url(#SVGID_258_);}
	.st227{fill:url(#SVGID_259_);}
	.st228{fill:url(#SVGID_260_);}
	.st229{fill:url(#SVGID_261_);}
	.st230{fill:url(#SVGID_262_);}
	.st231{fill:url(#SVGID_263_);}
	.st232{fill:url(#SVGID_264_);}
	.st233{fill:url(#SVGID_265_);}
</style>
<g>
	<g>
		<linearGradient id="SVGID_2_" gradientUnits="userSpaceOnUse" x1="573.3165" y1="344.4724" x2="573.3165" y2="583.3012">
			<stop  offset="0" style="stop-color:#F5F5F5"/>
			<stop  offset="1" style="stop-color:#E8E8E8"/>
		</linearGradient>
		<path style="fill:url(#SVGID_2_);" d="M1058.63,502.8c0,46.71-38.22,84.92-84.92,84.92H172.92c-46.71,0-84.92-38.22-84.92-84.92
			v-72.81c0-46.71,38.22-84.92,84.92-84.92h800.79c46.71,0,84.92,38.22,84.92,84.92V502.8z"/>
	</g>
	<linearGradient id="SVGID_4_" gradientUnits="userSpaceOnUse" x1="635.0834" y1="460.321" x2="1153.0123" y2="460.321">
		<stop  offset="0" style="stop-color:#FD0E12"/>
		<stop  offset="0.0793" style="stop-color:#F80F15"/>
		<stop  offset="0.169" style="stop-color:#EB111C"/>
		<stop  offset="0.2637" style="stop-color:#D41529"/>
		<stop  offset="0.362" style="stop-color:#B41A3B"/>
		<stop  offset="0.463" style="stop-color:#8C2052"/>
		<stop  offset="0.5662" style="stop-color:#5A296E"/>
		<stop  offset="0.6695" style="stop-color:#20328F"/>
		<stop  offset="0.679" style="stop-color:#1A3392"/>
	</linearGradient>
	<rect x="790.32" y="322" style="fill:url(#SVGID_4_);" width="178.01" height="276.64"/>
	<polygon class="st6" points="763.13,345.07 790.32,322 790.32,345.07 	"/>
	<polygon class="st6" points="763.13,587.6 790.32,598.64 790.32,587.6 	"/>
	<rect x="782.13" y="345.53" class="st171" width="8.19" height="253.73"/>
	<polygon class="st59" points="914.44,434.53 843.78,434.53 878.78,466.53 	"/>
	<polygon class="st171" points="878.93,490.35 852.87,466.53 821.9,466.53 878.8,518.56 936.76,466.53 905.46,466.53 	"/>
	<polygon class="st171" points="878.93,438.32 852.87,414.51 821.9,414.51 878.8,466.53 936.76,414.51 905.46,414.51 	"/>
	<g>
		<g>
			<g>
				<linearGradient id="SVGID_6_" gradientUnits="userSpaceOnUse" x1="-164.3134" y1="468.6342" x2="743.6606" y2="465.4371">
					<stop  offset="0" style="stop-color:#FD0E12"/>
					<stop  offset="0.0793" style="stop-color:#F80F15"/>
					<stop  offset="0.169" style="stop-color:#EB111C"/>
					<stop  offset="0.2637" style="stop-color:#D41529"/>
					<stop  offset="0.362" style="stop-color:#B41A3B"/>
					<stop  offset="0.463" style="stop-color:#8C2052"/>
					<stop  offset="0.5662" style="stop-color:#5A296E"/>
					<stop  offset="0.6695" style="stop-color:#20328F"/>
					<stop  offset="0.679" style="stop-color:#1A3392"/>
				</linearGradient>
				<path style="fill:url(#SVGID_6_);" d="M170.37,427.85h22.04c14.11,0,22.74,3.73,28.22,8.94c5.83,5.54,8.4,13.23,8.4,22.85
					c0,11.31-4.43,25.45-14.11,34.73c-8.63,8.37-20.41,12.67-37.2,12.67h-27.29L170.37,427.85z M191.13,446.4h-4.2l-10.38,42.08h4.2
					c7.46,0,13.88-2.15,18.31-6.33c5.25-5.2,8.05-14.25,8.05-21.04c0-5.2-1.52-8.71-3.85-10.97S197.19,446.4,191.13,446.4z"/>
				<linearGradient id="SVGID_8_" gradientUnits="userSpaceOnUse" x1="-164.3123" y1="468.9663" x2="743.6617" y2="465.7692">
					<stop  offset="0" style="stop-color:#FD0E12"/>
					<stop  offset="0.0793" style="stop-color:#F80F15"/>
					<stop  offset="0.169" style="stop-color:#EB111C"/>
					<stop  offset="0.2637" style="stop-color:#D41529"/>
					<stop  offset="0.362" style="stop-color:#B41A3B"/>
					<stop  offset="0.463" style="stop-color:#8C2052"/>
					<stop  offset="0.5662" style="stop-color:#5A296E"/>
					<stop  offset="0.6695" style="stop-color:#20328F"/>
					<stop  offset="0.679" style="stop-color:#1A3392"/>
				</linearGradient>
				<path style="fill:url(#SVGID_8_);" d="M250.26,427.85h55.86l-4.66,17.99h-34.64l-3.03,12.9h31.14l-4.43,16.97h-31.14
					l-3.27,13.35h35.34l-4.78,17.99h-56.33L250.26,427.85z"/>
				<linearGradient id="SVGID_10_" gradientUnits="userSpaceOnUse" x1="-164.3114" y1="469.2053" x2="743.6626" y2="466.0081">
					<stop  offset="0" style="stop-color:#FD0E12"/>
					<stop  offset="0.0793" style="stop-color:#F80F15"/>
					<stop  offset="0.169" style="stop-color:#EB111C"/>
					<stop  offset="0.2637" style="stop-color:#D41529"/>
					<stop  offset="0.362" style="stop-color:#B41A3B"/>
					<stop  offset="0.463" style="stop-color:#8C2052"/>
					<stop  offset="0.5662" style="stop-color:#5A296E"/>
					<stop  offset="0.6695" style="stop-color:#20328F"/>
					<stop  offset="0.679" style="stop-color:#1A3392"/>
				</linearGradient>
				<path style="fill:url(#SVGID_10_);" d="M298.66,494.93l13.06-14.59c7,6.67,13.88,10.18,20.41,10.18c4.32,0,7.11-2.26,7.11-5.66
					c0-2.83-1.87-4.75-10.5-9.73c-11.08-6.33-17.14-12.44-17.14-22.29c0-7.13,2.8-13.35,7.35-17.76c5.48-5.32,13.41-8.49,23.09-8.49
					c12.13,0,21.81,4.53,28.92,11.09l-12.83,14.71c-5.13-4.64-10.85-8.03-17.26-8.03c-4.55,0-7.11,2.38-7.11,5.32
					s1.87,4.64,10.73,9.84c10.26,5.88,17.14,11.88,17.14,22.4c0,7.24-2.8,13.46-7.7,18.21c-5.36,5.2-13.64,8.15-23.09,8.15
					C317.9,508.28,306.7,503.3,298.66,494.93z"/>
				<linearGradient id="SVGID_12_" gradientUnits="userSpaceOnUse" x1="-164.3105" y1="469.4683" x2="743.6635" y2="466.2712">
					<stop  offset="0" style="stop-color:#FD0E12"/>
					<stop  offset="0.0793" style="stop-color:#F80F15"/>
					<stop  offset="0.169" style="stop-color:#EB111C"/>
					<stop  offset="0.2637" style="stop-color:#D41529"/>
					<stop  offset="0.362" style="stop-color:#B41A3B"/>
					<stop  offset="0.463" style="stop-color:#8C2052"/>
					<stop  offset="0.5662" style="stop-color:#5A296E"/>
					<stop  offset="0.6695" style="stop-color:#20328F"/>
					<stop  offset="0.679" style="stop-color:#1A3392"/>
				</linearGradient>
				<path style="fill:url(#SVGID_12_);" d="M372.13,475.36c0-13.12,4.9-27.6,14.81-37.22c7.46-7.13,16.68-11.65,29.27-11.65
					c12.59,0,22.62,5.99,28.22,15.27l-16.56,12.33c-3.5-5.2-7.11-8.48-13.06-8.48c-4.66,0-8.51,2.04-11.66,5.2
					c-5.6,5.32-8.86,14.82-8.86,23.08c0,9.62,5.36,15.38,12.94,15.38c4.9,0,9.1-2.15,13.76-6.22l11.9,14.14
					c-7,6.79-15.74,11.2-27.06,11.2C385.66,508.39,372.13,495.72,372.13,475.36z"/>
				<linearGradient id="SVGID_13_" gradientUnits="userSpaceOnUse" x1="-164.3102" y1="469.5454" x2="743.6638" y2="466.3483">
					<stop  offset="0" style="stop-color:#FD0E12"/>
					<stop  offset="0.0793" style="stop-color:#F80F15"/>
					<stop  offset="0.169" style="stop-color:#EB111C"/>
					<stop  offset="0.2637" style="stop-color:#D41529"/>
					<stop  offset="0.362" style="stop-color:#B41A3B"/>
					<stop  offset="0.463" style="stop-color:#8C2052"/>
					<stop  offset="0.5662" style="stop-color:#5A296E"/>
					<stop  offset="0.6695" style="stop-color:#20328F"/>
					<stop  offset="0.679" style="stop-color:#1A3392"/>
				</linearGradient>
				<path class="st3" d="M482.1,427.4h21.69l8.51,79.64h-22.16l-1.05-14.48H464.5l-8.16,14.48h-22.86L482.1,427.4z M487.82,475.93
					l-1.17-23.3l-12.24,23.3H487.82z"/>
				<linearGradient id="SVGID_15_" gradientUnits="userSpaceOnUse" x1="-164.3086" y1="470.0042" x2="743.6654" y2="466.8071">
					<stop  offset="0" style="stop-color:#FD0E12"/>
					<stop  offset="0.0793" style="stop-color:#F80F15"/>
					<stop  offset="0.169" style="stop-color:#EB111C"/>
					<stop  offset="0.2637" style="stop-color:#D41529"/>
					<stop  offset="0.362" style="stop-color:#B41A3B"/>
					<stop  offset="0.463" style="stop-color:#8C2052"/>
					<stop  offset="0.5662" style="stop-color:#5A296E"/>
					<stop  offset="0.6695" style="stop-color:#20328F"/>
					<stop  offset="0.679" style="stop-color:#1A3392"/>
				</linearGradient>
				<path style="fill:url(#SVGID_15_);" d="M554.3,482.94h-1.28h-5.36l-5.83,24.09h-21.46l19.94-79.18h24.84
					c12.48,0,20.76,2.6,25.89,7.58c4.2,4.07,6.3,9.61,6.3,16.18c0,8.14-2.68,15.16-7.81,20.25c-2.92,2.83-7,5.66-13.64,7.81
					l10.26,27.38h-23.32L554.3,482.94z M560.01,466.42c5.25,0,9.21-1.24,11.9-3.73c2.1-2.15,3.38-5.54,3.38-8.71
					c0-2.49-0.82-4.3-2.33-5.66c-1.63-1.7-4.43-2.49-8.4-2.49h-7.46l-5.02,20.59H560.01z"/>
				<linearGradient id="SVGID_17_" gradientUnits="userSpaceOnUse" x1="-164.3076" y1="470.2871" x2="743.6664" y2="467.0901">
					<stop  offset="0" style="stop-color:#FD0E12"/>
					<stop  offset="0.0793" style="stop-color:#F80F15"/>
					<stop  offset="0.169" style="stop-color:#EB111C"/>
					<stop  offset="0.2637" style="stop-color:#D41529"/>
					<stop  offset="0.362" style="stop-color:#B41A3B"/>
					<stop  offset="0.463" style="stop-color:#8C2052"/>
					<stop  offset="0.5662" style="stop-color:#5A296E"/>
					<stop  offset="0.6695" style="stop-color:#20328F"/>
					<stop  offset="0.679" style="stop-color:#1A3392"/>
				</linearGradient>
				<path style="fill:url(#SVGID_17_);" d="M602.93,475.81c0-13.01,5.13-27.49,14.81-36.76c8.16-7.92,19.13-12.56,31.95-12.56
					c13.18,0,22.74,4.98,28.57,10.97l-13.99,14.48c-3.97-3.62-9.21-6.67-15.86-6.67c-5.95,0-10.96,2.26-14.69,6
					c-5.83,5.66-8.98,15.72-8.98,23.64c0,10.18,6.41,15.38,14.46,15.38c2.92,0,5.37-0.56,7.23-1.24l3.03-12.33h-12.25l4.2-16.06
					h32.3l-10.73,41.4c-7,3.73-15.51,6.33-25.54,6.33C619.84,508.39,602.93,498.1,602.93,475.81z"/>
				<linearGradient id="SVGID_19_" gradientUnits="userSpaceOnUse" x1="-164.3073" y1="470.3782" x2="743.6667" y2="467.1811">
					<stop  offset="0" style="stop-color:#FD0E12"/>
					<stop  offset="0.0793" style="stop-color:#F80F15"/>
					<stop  offset="0.169" style="stop-color:#EB111C"/>
					<stop  offset="0.2637" style="stop-color:#D41529"/>
					<stop  offset="0.362" style="stop-color:#B41A3B"/>
					<stop  offset="0.463" style="stop-color:#8C2052"/>
					<stop  offset="0.5662" style="stop-color:#5A296E"/>
					<stop  offset="0.6695" style="stop-color:#20328F"/>
					<stop  offset="0.679" style="stop-color:#1A3392"/>
				</linearGradient>
				<path style="fill:url(#SVGID_19_);" d="M718.62,427.4h21.69l8.51,79.64h-22.16l-1.05-14.48h-24.61l-8.16,14.48h-22.86
					L718.62,427.4z M724.33,475.93l-1.17-23.3l-12.25,23.3H724.33z"/>
			</g>
		</g>
	</g>
</g>
</svg>
