<?xml version="1.0" encoding="utf-8"?>
<!-- Generator: Adobe Illustrator 23.0.0, SVG Export Plug-In . SVG Version: 6.00 Build 0)  -->
<svg version="1.1" id="Capa_1" xmlns="http://www.w3.org/2000/svg" xmlns:xlink="http://www.w3.org/1999/xlink" x="0px" y="0px"
	 viewBox="0 0 520 495" style="enable-background:new 0 0 520 495;" xml:space="preserve">
<style type="text/css">
	.st0{opacity:0.31;}
	.st1{clip-path:url(#SVGID_6_);fill:none;}
	.st2{fill:#D20F12;}
	.st3{fill:url(#SVGID_13_);}
	.st4{clip-path:url(#SVGID_15_);}
	.st5{fill:#FA060A;}
	.st6{fill:#16348F;}
	.st7{fill:#FFFFFF;}
	.st8{fill:url(#SVGID_20_);}
	.st9{fill:url(#SVGID_23_);}
	.st10{fill:none;stroke:#FFFFFF;stroke-width:10.2498;stroke-miterlimit:10;}
	.st11{fill:url(#SVGID_24_);}
	.st12{fill:url(#SVGID_25_);}
	.st13{fill:url(#SVGID_26_);}
	.st14{fill:url(#SVGID_27_);}
	.st15{fill:url(#SVGID_28_);}
	.st16{fill:url(#SVGID_29_);}
	.st17{fill:url(#SVGID_30_);}
	.st18{opacity:0.15;}
	.st19{fill:url(#SVGID_33_);}
	.st20{fill:url(#SVGID_34_);}
	.st21{fill:url(#SVGID_35_);}
	.st22{fill:url(#SVGID_36_);}
	.st23{fill:url(#SVGID_37_);}
	.st24{fill:url(#SVGID_38_);}
	.st25{fill:url(#SVGID_39_);}
	.st26{fill:url(#SVGID_40_);}
	.st27{fill:url(#SVGID_41_);}
	.st28{fill:url(#SVGID_42_);}
	.st29{fill:url(#SVGID_43_);}
	.st30{fill:url(#SVGID_44_);}
	.st31{fill:url(#SVGID_45_);}
	.st32{fill:url(#SVGID_46_);}
	.st33{fill:url(#SVGID_47_);}
	.st34{fill:url(#SVGID_48_);}
	.st35{fill:url(#SVGID_49_);}
	.st36{fill:url(#SVGID_50_);}
	.st37{fill:url(#SVGID_51_);}
	.st38{fill:url(#SVGID_52_);}
	.st39{fill:url(#SVGID_53_);}
	.st40{fill:url(#SVGID_54_);}
	.st41{fill:url(#SVGID_55_);}
	.st42{fill:url(#SVGID_56_);}
	.st43{fill:url(#SVGID_57_);}
	.st44{fill:url(#SVGID_58_);}
	.st45{fill:url(#SVGID_59_);}
	.st46{fill:url(#SVGID_60_);}
	.st47{fill:url(#SVGID_61_);}
	.st48{fill:url(#SVGID_62_);}
	.st49{fill:url(#SVGID_63_);}
	.st50{fill:url(#SVGID_64_);}
	.st51{fill:url(#SVGID_65_);}
	.st52{fill:url(#SVGID_66_);}
	.st53{fill:url(#SVGID_67_);}
	.st54{fill:url(#SVGID_68_);}
	.st55{fill:url(#SVGID_69_);}
	.st56{fill:url(#SVGID_70_);}
	.st57{fill:url(#SVGID_71_);}
	.st58{fill:url(#SVGID_72_);}
	.st59{fill:none;}
	.st60{fill:url(#SVGID_73_);}
	.st61{fill:none;stroke:#000000;stroke-miterlimit:10;}
	.st62{fill:#606060;}
	.st63{fill:url(#SVGID_78_);}
	.st64{fill:url(#SVGID_79_);}
	.st65{fill:url(#SVGID_80_);}
	.st66{fill:url(#SVGID_81_);}
	.st67{fill:url(#SVGID_82_);}
	.st68{fill:url(#SVGID_83_);}
	.st69{fill:url(#SVGID_84_);}
	.st70{fill:url(#SVGID_85_);}
	.st71{fill:url(#SVGID_86_);}
	.st72{fill:url(#SVGID_87_);}
	.st73{fill:url(#SVGID_88_);}
	.st74{fill:url(#SVGID_89_);}
	.st75{fill:url(#SVGID_90_);}
	.st76{fill:url(#SVGID_91_);}
	.st77{fill:url(#SVGID_92_);}
	.st78{fill:url(#SVGID_93_);}
	.st79{fill:url(#SVGID_94_);}
	.st80{fill:url(#SVGID_95_);}
	.st81{fill:url(#SVGID_96_);}
	.st82{fill:url(#SVGID_97_);}
	.st83{fill:url(#SVGID_98_);}
	.st84{fill:url(#SVGID_99_);}
	.st85{fill:url(#SVGID_100_);}
	.st86{fill:url(#SVGID_101_);}
	.st87{fill:url(#SVGID_102_);}
	.st88{fill:url(#SVGID_107_);}
	.st89{fill:url(#SVGID_110_);}
	.st90{clip-path:url(#SVGID_112_);fill:none;}
	.st91{fill:url(#SVGID_113_);}
	.st92{fill:url(#SVGID_114_);}
	.st93{fill:url(#SVGID_115_);}
	.st94{fill:url(#SVGID_118_);}
	.st95{clip-path:url(#SVGID_120_);fill:none;}
	.st96{fill:url(#SVGID_121_);}
	.st97{fill:url(#SVGID_122_);}
	.st98{opacity:0.8;}
	.st99{fill:#FA0009;}
	.st100{fill:url(#SVGID_123_);}
	.st101{fill:url(#SVGID_124_);}
	.st102{fill:url(#SVGID_125_);}
	.st103{fill:url(#SVGID_126_);}
	.st104{fill:url(#SVGID_127_);}
	.st105{fill:url(#SVGID_128_);}
	.st106{fill:url(#SVGID_129_);}
	.st107{fill:url(#SVGID_130_);}
	.st108{fill:url(#SVGID_131_);}
	.st109{fill:url(#SVGID_132_);}
	.st110{fill:url(#SVGID_133_);}
	.st111{fill:url(#SVGID_134_);}
	.st112{fill:url(#SVGID_135_);}
	.st113{fill:url(#SVGID_136_);}
	.st114{fill:url(#SVGID_137_);}
	.st115{fill:url(#SVGID_138_);}
	.st116{fill:url(#SVGID_139_);}
	.st117{fill:url(#SVGID_140_);}
	.st118{fill:url(#SVGID_141_);}
	.st119{fill:url(#SVGID_142_);}
	.st120{fill:url(#SVGID_143_);}
	.st121{fill:url(#SVGID_144_);}
	.st122{fill:url(#SVGID_145_);}
	.st123{fill:url(#SVGID_146_);}
	.st124{fill:url(#SVGID_147_);}
	.st125{fill:url(#SVGID_148_);}
	.st126{fill:url(#SVGID_149_);}
	.st127{fill:url(#SVGID_150_);}
	.st128{fill:url(#SVGID_151_);}
	.st129{fill:url(#SVGID_152_);}
	.st130{fill:url(#SVGID_153_);}
	.st131{fill:url(#SVGID_154_);}
	.st132{fill:url(#SVGID_155_);}
	.st133{fill:url(#SVGID_156_);}
	.st134{fill:url(#SVGID_157_);}
	.st135{fill:url(#SVGID_158_);}
	.st136{fill:url(#SVGID_159_);}
	.st137{fill:url(#SVGID_160_);}
	.st138{fill:url(#SVGID_161_);}
	.st139{fill:url(#SVGID_162_);}
	.st140{fill:url(#SVGID_163_);}
	.st141{fill:url(#SVGID_164_);}
	.st142{fill:url(#SVGID_165_);}
	.st143{fill:url(#SVGID_166_);}
	.st144{fill:url(#SVGID_167_);}
	.st145{fill:url(#SVGID_170_);}
	.st146{fill:url(#SVGID_171_);}
	.st147{fill:url(#SVGID_172_);}
	.st148{fill:url(#SVGID_173_);}
	.st149{fill:url(#SVGID_174_);}
	.st150{fill:url(#SVGID_175_);}
	.st151{fill:url(#SVGID_176_);}
	.st152{fill:url(#SVGID_177_);}
	.st153{fill:url(#SVGID_178_);}
	.st154{fill:url(#SVGID_179_);}
	.st155{fill:url(#SVGID_180_);}
	.st156{fill:url(#SVGID_181_);}
	.st157{fill:url(#SVGID_182_);}
	.st158{fill:url(#SVGID_183_);}
	.st159{fill:url(#SVGID_184_);}
	.st160{fill:url(#SVGID_185_);}
	.st161{fill:url(#SVGID_186_);}
	.st162{fill:url(#SVGID_187_);}
	.st163{fill:url(#SVGID_188_);}
	.st164{fill:url(#SVGID_189_);}
	.st165{fill:url(#SVGID_190_);}
	.st166{fill:url(#SVGID_191_);}
	.st167{fill:url(#SVGID_192_);}
	.st168{fill:url(#SVGID_193_);}
	.st169{fill:url(#SVGID_194_);}
	.st170{fill:url(#SVGID_195_);}
	.st171{fill:#F5F5F5;}
	.st172{fill:url(#SVGID_196_);}
	.st173{fill:url(#SVGID_197_);}
	.st174{fill:url(#SVGID_198_);}
	.st175{fill:url(#SVGID_199_);}
	.st176{fill:url(#SVGID_200_);}
	.st177{fill:url(#SVGID_201_);}
	.st178{fill:url(#SVGID_202_);}
	.st179{fill:url(#SVGID_203_);}
	.st180{fill:url(#SVGID_204_);}
	.st181{fill:url(#SVGID_205_);}
	.st182{fill:url(#SVGID_206_);}
	.st183{fill:url(#SVGID_207_);}
	.st184{fill:url(#SVGID_208_);}
	.st185{fill:url(#SVGID_209_);}
	.st186{fill:url(#SVGID_210_);}
	.st187{fill:url(#SVGID_211_);}
	.st188{fill:url(#SVGID_212_);}
	.st189{fill:url(#SVGID_213_);}
	.st190{fill:url(#SVGID_214_);}
	.st191{fill-rule:evenodd;clip-rule:evenodd;fill:url(#SVGID_215_);}
	.st192{fill-rule:evenodd;clip-rule:evenodd;fill:#FFFFFF;}
	.st193{fill-rule:evenodd;clip-rule:evenodd;fill:url(#SVGID_216_);}
	.st194{fill:url(#SVGID_217_);}
	.st195{fill:url(#SVGID_218_);}
	.st196{fill:url(#SVGID_219_);}
	.st197{fill:url(#SVGID_220_);}
	.st198{fill:url(#SVGID_221_);}
	.st199{fill:url(#SVGID_222_);}
	.st200{fill:url(#SVGID_223_);}
	.st201{fill:url(#SVGID_224_);}
	.st202{fill:url(#SVGID_225_);}
	.st203{fill:url(#SVGID_226_);}
	.st204{fill:url(#SVGID_227_);}
	.st205{fill:url(#SVGID_234_);}
	.st206{fill:url(#SVGID_235_);}
	.st207{fill:url(#SVGID_236_);}
	.st208{fill:url(#SVGID_237_);}
	.st209{fill:url(#SVGID_238_);}
	.st210{fill:url(#SVGID_239_);}
	.st211{fill:url(#SVGID_240_);}
	.st212{fill:url(#SVGID_241_);}
	.st213{fill:url(#SVGID_242_);}
	.st214{fill:url(#SVGID_243_);}
	.st215{fill:url(#SVGID_244_);}
	.st216{fill:url(#SVGID_245_);}
	.st217{fill:url(#SVGID_246_);}
	.st218{fill:url(#SVGID_247_);}
	.st219{fill:url(#SVGID_248_);}
	.st220{fill:url(#SVGID_249_);}
	.st221{fill:url(#SVGID_250_);}
	.st222{fill:url(#SVGID_251_);}
	.st223{clip-path:url(#SVGID_253_);fill:none;}
	.st224{fill:url(#SVGID_254_);}
	.st225{fill:url(#SVGID_257_);}
	.st226{fill:url(#SVGID_258_);}
	.st227{fill:url(#SVGID_259_);}
	.st228{fill:url(#SVGID_260_);}
	.st229{fill:url(#SVGID_261_);}
	.st230{fill:url(#SVGID_262_);}
	.st231{fill:url(#SVGID_263_);}
	.st232{fill:url(#SVGID_264_);}
	.st233{fill:url(#SVGID_265_);}
	.st234{fill:url(#SVGID_266_);}
	.st235{fill:url(#SVGID_267_);}
	.st236{fill:url(#SVGID_268_);}
	.st237{fill:url(#SVGID_269_);}
	.st238{fill:url(#SVGID_270_);}
	.st239{fill:url(#SVGID_271_);}
	.st240{fill:url(#SVGID_272_);}
	.st241{fill:url(#SVGID_273_);}
	.st242{fill:url(#SVGID_274_);}
	.st243{fill:url(#SVGID_275_);}
	.st244{fill:url(#SVGID_276_);}
</style>
<g>
	<linearGradient id="SVGID_2_" gradientUnits="userSpaceOnUse" x1="-424.5776" y1="432.3482" x2="1048.3796" y2="34.9923">
		<stop  offset="0" style="stop-color:#FD0E12"/>
		<stop  offset="0.2382" style="stop-color:#FB0E13"/>
		<stop  offset="0.3241" style="stop-color:#F40F17"/>
		<stop  offset="0.3853" style="stop-color:#E8111E"/>
		<stop  offset="0.4348" style="stop-color:#D81427"/>
		<stop  offset="0.4771" style="stop-color:#C21834"/>
		<stop  offset="0.5147" style="stop-color:#A61C43"/>
		<stop  offset="0.5486" style="stop-color:#862155"/>
		<stop  offset="0.5798" style="stop-color:#60286A"/>
		<stop  offset="0.6076" style="stop-color:#372E82"/>
		<stop  offset="0.6246" style="stop-color:#1A3392"/>
	</linearGradient>
	<path style="fill:url(#SVGID_2_);" d="M260.1,81.26c52.31,0,58.51,0.21,79.16,1.18c19.11,0.9,29.47,4.2,36.38,6.99
		c9.14,3.68,15.68,8.08,22.53,15.18c6.86,7.1,11.1,13.86,14.65,23.33c2.68,7.15,5.87,17.91,6.74,37.7
		c0.95,21.4,1.14,27.82,1.14,82.01c0,54.19-0.2,60.62-1.14,82.02c-0.87,19.79-4.07,30.53-6.74,37.69
		c-3.55,9.47-7.8,16.23-14.65,23.33c-6.85,7.1-13.38,11.5-22.53,15.18c-6.9,2.78-17.27,6.09-36.38,6.99
		c-20.65,0.97-26.84,1.18-79.16,1.18s-58.5-0.21-79.15-1.18c-19.11-0.91-29.47-4.21-36.38-6.99c-9.14-3.68-15.67-8.08-22.52-15.18
		c-6.86-7.11-11.1-13.87-14.65-23.33c-2.68-7.16-5.87-17.9-6.74-37.69c-0.95-21.4-1.15-27.82-1.15-82.02
		c0-54.19,0.2-60.6,1.15-82.01c0.87-19.79,4.06-30.54,6.74-37.7c3.55-9.47,7.8-16.23,14.65-23.33c6.85-7.11,13.38-11.5,22.52-15.18
		c6.91-2.79,17.28-6.09,36.38-6.99C201.59,81.46,207.79,81.26,260.1,81.26 M260.1,44.68c-53.2,0-59.87,0.24-80.76,1.22
		c-20.86,0.99-35.09,4.42-47.56,9.43c-12.88,5.19-23.8,12.13-34.7,23.41c-10.89,11.29-17.59,22.61-22.59,35.95
		c-4.85,12.91-8.15,27.67-9.11,49.27c-0.96,21.65-1.18,28.55-1.18,83.67c0,55.13,0.22,62.03,1.18,83.68
		c0.95,21.61,4.26,36.36,9.11,49.27c5,13.34,11.7,24.66,22.59,35.95c10.89,11.28,21.82,18.22,34.7,23.41
		c12.46,5.01,26.7,8.44,47.56,9.43c20.89,0.98,27.57,1.22,80.76,1.22c53.2,0,59.88-0.24,80.77-1.22
		c20.85-0.99,35.09-4.43,47.56-9.43c12.88-5.19,23.8-12.13,34.7-23.41c10.89-11.29,17.59-22.61,22.59-35.95
		c4.85-12.91,8.15-27.67,9.11-49.27c0.96-21.65,1.18-28.55,1.18-83.68c0-55.12-0.22-62.03-1.18-83.67
		c-0.95-21.61-4.26-36.36-9.11-49.27c-5.01-13.34-11.7-24.66-22.59-35.95c-10.89-11.28-21.82-18.22-34.7-23.41
		c-12.46-5.01-26.7-8.44-47.56-9.43C319.97,44.92,313.3,44.68,260.1,44.68"/>
	<linearGradient id="SVGID_4_" gradientUnits="userSpaceOnUse" x1="-424.5773" y1="432.3494" x2="1048.3799" y2="34.9935">
		<stop  offset="0" style="stop-color:#FD0E12"/>
		<stop  offset="0.2382" style="stop-color:#FB0E13"/>
		<stop  offset="0.3241" style="stop-color:#F40F17"/>
		<stop  offset="0.3853" style="stop-color:#E8111E"/>
		<stop  offset="0.4348" style="stop-color:#D81427"/>
		<stop  offset="0.4771" style="stop-color:#C21834"/>
		<stop  offset="0.5147" style="stop-color:#A61C43"/>
		<stop  offset="0.5486" style="stop-color:#862155"/>
		<stop  offset="0.5798" style="stop-color:#60286A"/>
		<stop  offset="0.6076" style="stop-color:#372E82"/>
		<stop  offset="0.6246" style="stop-color:#1A3392"/>
	</linearGradient>
	<path style="fill:url(#SVGID_4_);" d="M260.1,143.42c-55.55,0-100.6,46.67-100.6,104.22c0,57.57,45.04,104.23,100.6,104.23
		c55.56,0,100.6-46.66,100.6-104.23C360.7,190.09,315.66,143.42,260.1,143.42 M260.1,315.3c-36.06,0-65.3-30.29-65.3-67.66
		s29.23-67.65,65.3-67.65s65.3,30.29,65.3,67.65S296.16,315.3,260.1,315.3"/>
	<linearGradient id="SVGID_6_" gradientUnits="userSpaceOnUse" x1="-444.7279" y1="357.6532" x2="1028.2292" y2="-39.7027">
		<stop  offset="0" style="stop-color:#FD0E12"/>
		<stop  offset="0.2382" style="stop-color:#FB0E13"/>
		<stop  offset="0.3241" style="stop-color:#F40F17"/>
		<stop  offset="0.3853" style="stop-color:#E8111E"/>
		<stop  offset="0.4348" style="stop-color:#D81427"/>
		<stop  offset="0.4771" style="stop-color:#C21834"/>
		<stop  offset="0.5147" style="stop-color:#A61C43"/>
		<stop  offset="0.5486" style="stop-color:#862155"/>
		<stop  offset="0.5798" style="stop-color:#60286A"/>
		<stop  offset="0.6076" style="stop-color:#372E82"/>
		<stop  offset="0.6246" style="stop-color:#1A3392"/>
	</linearGradient>
	<path style="fill:url(#SVGID_6_);" d="M388.17,139.31c0,13.45-10.52,24.35-23.5,24.35c-12.98,0-23.5-10.9-23.5-24.35
		s10.52-24.36,23.5-24.36C377.66,114.95,388.17,125.86,388.17,139.31"/>
</g>
</svg>
