<?xml version="1.0" encoding="utf-8"?>
<!-- Generator: Adobe Illustrator 23.0.0, SVG Export Plug-In . SVG Version: 6.00 Build 0)  -->
<svg version="1.1" id="Capa_1" xmlns="http://www.w3.org/2000/svg" xmlns:xlink="http://www.w3.org/1999/xlink" x="0px" y="0px"
	 viewBox="0 0 1194 495" style="enable-background:new 0 0 1194 495;" xml:space="preserve">
<style type="text/css">
	.st0{opacity:0.31;}
	.st1{clip-path:url(#SVGID_6_);fill:none;}
	.st2{fill:#D20F12;}
	.st3{fill:url(#SVGID_13_);}
	.st4{clip-path:url(#SVGID_15_);}
	.st5{fill:#FA060A;}
	.st6{fill:#16348F;}
	.st7{fill:#FFFFFF;}
	.st8{fill:url(#SVGID_20_);}
	.st9{fill:url(#SVGID_23_);}
	.st10{fill:none;stroke:#FFFFFF;stroke-width:10.2498;stroke-miterlimit:10;}
	.st11{fill:url(#SVGID_24_);}
	.st12{fill:url(#SVGID_25_);}
	.st13{fill:url(#SVGID_26_);}
	.st14{fill:url(#SVGID_27_);}
	.st15{fill:url(#SVGID_28_);}
	.st16{fill:url(#SVGID_29_);}
	.st17{fill:url(#SVGID_30_);}
	.st18{opacity:0.15;}
	.st19{fill:url(#SVGID_33_);}
	.st20{fill:url(#SVGID_34_);}
	.st21{fill:url(#SVGID_35_);}
	.st22{fill:url(#SVGID_36_);}
	.st23{fill:url(#SVGID_37_);}
	.st24{fill:url(#SVGID_38_);}
	.st25{fill:url(#SVGID_39_);}
	.st26{fill:url(#SVGID_40_);}
	.st27{fill:url(#SVGID_41_);}
	.st28{fill:url(#SVGID_42_);}
	.st29{fill:url(#SVGID_43_);}
	.st30{fill:url(#SVGID_44_);}
	.st31{fill:url(#SVGID_45_);}
	.st32{fill:url(#SVGID_46_);}
	.st33{fill:url(#SVGID_47_);}
	.st34{fill:url(#SVGID_48_);}
	.st35{fill:url(#SVGID_49_);}
	.st36{fill:url(#SVGID_50_);}
	.st37{fill:url(#SVGID_51_);}
	.st38{fill:url(#SVGID_52_);}
	.st39{fill:url(#SVGID_53_);}
	.st40{fill:url(#SVGID_54_);}
	.st41{fill:url(#SVGID_55_);}
	.st42{fill:url(#SVGID_56_);}
	.st43{fill:url(#SVGID_57_);}
	.st44{fill:url(#SVGID_58_);}
	.st45{fill:url(#SVGID_59_);}
	.st46{fill:url(#SVGID_60_);}
	.st47{fill:url(#SVGID_61_);}
	.st48{fill:url(#SVGID_62_);}
	.st49{fill:url(#SVGID_63_);}
	.st50{fill:url(#SVGID_64_);}
	.st51{fill:url(#SVGID_65_);}
	.st52{fill:url(#SVGID_66_);}
	.st53{fill:url(#SVGID_67_);}
	.st54{fill:url(#SVGID_68_);}
	.st55{fill:url(#SVGID_69_);}
	.st56{fill:url(#SVGID_70_);}
	.st57{fill:url(#SVGID_71_);}
	.st58{fill:url(#SVGID_72_);}
	.st59{fill:none;}
	.st60{fill:url(#SVGID_73_);}
	.st61{fill:none;stroke:#000000;stroke-miterlimit:10;}
	.st62{fill:#606060;}
	.st63{fill:url(#SVGID_78_);}
	.st64{fill:url(#SVGID_79_);}
	.st65{fill:url(#SVGID_80_);}
	.st66{fill:url(#SVGID_81_);}
	.st67{fill:url(#SVGID_82_);}
	.st68{fill:url(#SVGID_83_);}
	.st69{fill:url(#SVGID_84_);}
	.st70{fill:url(#SVGID_85_);}
	.st71{fill:url(#SVGID_86_);}
	.st72{fill:url(#SVGID_87_);}
	.st73{fill:url(#SVGID_88_);}
	.st74{fill:url(#SVGID_89_);}
	.st75{fill:url(#SVGID_90_);}
	.st76{fill:url(#SVGID_91_);}
	.st77{fill:url(#SVGID_92_);}
	.st78{fill:url(#SVGID_93_);}
	.st79{fill:url(#SVGID_94_);}
	.st80{fill:url(#SVGID_95_);}
	.st81{fill:url(#SVGID_96_);}
	.st82{fill:url(#SVGID_97_);}
	.st83{fill:url(#SVGID_98_);}
	.st84{fill:url(#SVGID_99_);}
	.st85{fill:url(#SVGID_100_);}
	.st86{fill:url(#SVGID_101_);}
	.st87{fill:url(#SVGID_102_);}
	.st88{fill:url(#SVGID_107_);}
	.st89{fill:url(#SVGID_110_);}
	.st90{clip-path:url(#SVGID_112_);fill:none;}
	.st91{fill:url(#SVGID_113_);}
	.st92{fill:url(#SVGID_114_);}
	.st93{fill:url(#SVGID_115_);}
	.st94{fill:url(#SVGID_118_);}
	.st95{clip-path:url(#SVGID_120_);fill:none;}
	.st96{fill:url(#SVGID_121_);}
	.st97{fill:url(#SVGID_122_);}
	.st98{opacity:0.8;}
	.st99{fill:#FA0009;}
	.st100{fill:url(#SVGID_123_);}
	.st101{fill:url(#SVGID_124_);}
	.st102{fill:url(#SVGID_125_);}
	.st103{fill:url(#SVGID_126_);}
	.st104{fill:url(#SVGID_127_);}
	.st105{fill:url(#SVGID_128_);}
	.st106{fill:url(#SVGID_129_);}
	.st107{fill:url(#SVGID_130_);}
	.st108{fill:url(#SVGID_131_);}
	.st109{fill:url(#SVGID_132_);}
	.st110{fill:url(#SVGID_133_);}
	.st111{fill:url(#SVGID_134_);}
	.st112{fill:url(#SVGID_135_);}
	.st113{fill:url(#SVGID_136_);}
	.st114{fill:url(#SVGID_137_);}
	.st115{fill:url(#SVGID_138_);}
	.st116{fill:url(#SVGID_139_);}
	.st117{fill:url(#SVGID_140_);}
	.st118{fill:url(#SVGID_141_);}
	.st119{fill:url(#SVGID_142_);}
	.st120{fill:url(#SVGID_143_);}
	.st121{fill:url(#SVGID_144_);}
	.st122{fill:url(#SVGID_145_);}
	.st123{fill:url(#SVGID_146_);}
	.st124{fill:url(#SVGID_147_);}
	.st125{fill:url(#SVGID_148_);}
	.st126{fill:url(#SVGID_149_);}
	.st127{fill:url(#SVGID_150_);}
	.st128{fill:url(#SVGID_151_);}
	.st129{fill:url(#SVGID_152_);}
	.st130{fill:url(#SVGID_153_);}
	.st131{fill:url(#SVGID_154_);}
	.st132{fill:url(#SVGID_155_);}
	.st133{fill:url(#SVGID_156_);}
	.st134{fill:url(#SVGID_157_);}
	.st135{fill:url(#SVGID_158_);}
	.st136{fill:url(#SVGID_159_);}
	.st137{fill:url(#SVGID_160_);}
	.st138{fill:url(#SVGID_161_);}
	.st139{fill:url(#SVGID_162_);}
	.st140{fill:url(#SVGID_163_);}
	.st141{fill:url(#SVGID_164_);}
	.st142{fill:url(#SVGID_165_);}
	.st143{fill:url(#SVGID_166_);}
	.st144{fill:url(#SVGID_167_);}
	.st145{fill:url(#SVGID_170_);}
	.st146{fill:url(#SVGID_171_);}
	.st147{fill:url(#SVGID_172_);}
	.st148{fill:url(#SVGID_173_);}
	.st149{fill:url(#SVGID_174_);}
	.st150{fill:url(#SVGID_175_);}
	.st151{fill:url(#SVGID_176_);}
	.st152{fill:url(#SVGID_177_);}
	.st153{fill:url(#SVGID_178_);}
	.st154{fill:url(#SVGID_179_);}
	.st155{fill:url(#SVGID_180_);}
	.st156{fill:url(#SVGID_181_);}
	.st157{fill:url(#SVGID_182_);}
	.st158{fill:url(#SVGID_183_);}
	.st159{fill:url(#SVGID_184_);}
	.st160{fill:url(#SVGID_185_);}
	.st161{fill:url(#SVGID_186_);}
	.st162{fill:url(#SVGID_187_);}
	.st163{fill:url(#SVGID_188_);}
	.st164{fill:url(#SVGID_189_);}
	.st165{fill:url(#SVGID_190_);}
	.st166{fill:url(#SVGID_191_);}
	.st167{fill:url(#SVGID_192_);}
	.st168{fill:url(#SVGID_193_);}
	.st169{fill:url(#SVGID_194_);}
	.st170{fill:url(#SVGID_195_);}
	.st171{fill:#F5F5F5;}
	.st172{fill:url(#SVGID_196_);}
	.st173{fill:url(#SVGID_197_);}
	.st174{fill:url(#SVGID_198_);}
	.st175{fill:url(#SVGID_199_);}
	.st176{fill:url(#SVGID_200_);}
	.st177{fill:url(#SVGID_201_);}
	.st178{fill:url(#SVGID_202_);}
	.st179{fill:url(#SVGID_203_);}
	.st180{fill:url(#SVGID_204_);}
	.st181{fill:url(#SVGID_205_);}
	.st182{fill:url(#SVGID_206_);}
	.st183{fill:url(#SVGID_207_);}
	.st184{fill:url(#SVGID_208_);}
	.st185{fill:url(#SVGID_209_);}
	.st186{fill:url(#SVGID_210_);}
	.st187{fill:url(#SVGID_211_);}
	.st188{fill:url(#SVGID_212_);}
	.st189{fill:url(#SVGID_213_);}
	.st190{fill:url(#SVGID_214_);}
	.st191{fill-rule:evenodd;clip-rule:evenodd;fill:url(#SVGID_215_);}
	.st192{fill-rule:evenodd;clip-rule:evenodd;fill:#FFFFFF;}
	.st193{fill:url(#SVGID_216_);}
	.st194{fill:url(#SVGID_217_);}
	.st195{fill:url(#SVGID_218_);}
	.st196{fill:url(#SVGID_219_);}
	.st197{fill:url(#SVGID_220_);}
	.st198{fill:url(#SVGID_221_);}
	.st199{fill:url(#SVGID_222_);}
	.st200{fill:url(#SVGID_223_);}
	.st201{fill:url(#SVGID_224_);}
	.st202{fill:url(#SVGID_225_);}
	.st203{fill:url(#SVGID_226_);}
	.st204{fill:url(#SVGID_233_);}
	.st205{fill:url(#SVGID_234_);}
	.st206{fill:url(#SVGID_235_);}
	.st207{fill:url(#SVGID_236_);}
	.st208{fill:url(#SVGID_237_);}
	.st209{fill:url(#SVGID_238_);}
	.st210{fill:url(#SVGID_239_);}
	.st211{fill:url(#SVGID_240_);}
	.st212{fill:url(#SVGID_241_);}
	.st213{fill:url(#SVGID_242_);}
	.st214{fill:url(#SVGID_243_);}
	.st215{fill:url(#SVGID_244_);}
	.st216{fill:url(#SVGID_245_);}
	.st217{fill:url(#SVGID_246_);}
	.st218{fill:url(#SVGID_247_);}
	.st219{fill:url(#SVGID_248_);}
	.st220{fill:url(#SVGID_249_);}
	.st221{fill:url(#SVGID_250_);}
	.st222{clip-path:url(#SVGID_252_);fill:none;}
	.st223{fill:url(#SVGID_253_);}
	.st224{fill:url(#SVGID_256_);}
	.st225{fill:url(#SVGID_257_);}
	.st226{fill:url(#SVGID_258_);}
	.st227{fill:url(#SVGID_259_);}
	.st228{fill:url(#SVGID_260_);}
	.st229{fill:url(#SVGID_261_);}
	.st230{fill:url(#SVGID_262_);}
	.st231{fill:url(#SVGID_263_);}
	.st232{fill:url(#SVGID_264_);}
	.st233{fill:url(#SVGID_265_);}
</style>
<g>
	<path class="st7" d="M63.6,325.71H42.7l5.1-19.33h64.03l-5.1,19.33H85.95l-15.8,63.17H47.8L63.6,325.71z"/>
	<path class="st7" d="M136.99,363.78h-1.34h-5.59l-6.08,25.1h-22.36l20.78-82.5h25.88c13,0,21.63,2.71,26.97,7.9
		c4.37,4.24,6.56,10.02,6.56,16.85c0,8.49-2.79,15.79-8.14,21.1c-3.04,2.95-7.29,5.89-14.22,8.13l10.69,28.52h-24.3L136.99,363.78z
		 M142.94,346.57c5.47,0,9.6-1.3,12.39-3.89c2.19-2.24,3.52-5.77,3.52-9.07c0-2.59-0.85-4.48-2.43-5.89
		c-1.7-1.77-4.62-2.59-8.75-2.59h-7.78l-5.22,21.45H142.94z"/>
	<path class="st7" d="M224.47,305.91h22.6l8.87,82.97h-23.09l-1.09-15.09h-25.64l-8.5,15.09H173.8L224.47,305.91z M230.42,356.47
		l-1.21-24.28l-12.76,24.28H230.42z"/>
	<path class="st7" d="M285.1,306.38h21.02l15.92,44.43l11.06-44.43h21.99l-20.78,82.5H314.5l-16.77-46.2l-11.42,46.2h-21.99
		L285.1,306.38z"/>
	<path class="st7" d="M348.28,376.27l13.61-15.2c7.29,6.95,14.46,10.61,21.26,10.61c4.5,0,7.41-2.36,7.41-5.89
		c0-2.95-1.94-4.95-10.94-10.14c-11.54-6.6-17.86-12.96-17.86-23.22c0-7.43,2.92-13.91,7.65-18.5c5.71-5.54,13.97-8.84,24.06-8.84
		c12.64,0,22.72,4.71,30.13,11.55l-13.36,15.32c-5.35-4.83-11.3-8.37-17.98-8.37c-4.74,0-7.41,2.48-7.41,5.54s1.94,4.83,11.18,10.25
		c10.69,6.13,17.86,12.38,17.86,23.34c0,7.54-2.92,14.03-8.02,18.98c-5.59,5.42-14.22,8.49-24.06,8.49
		C368.33,390.18,356.67,384.99,348.28,376.27z"/>
	<path class="st7" d="M440.63,306.38h57.96l-5.1,19.33h-35.6l-3.4,14.38h32.08l-4.86,18.39h-31.96l-7.53,30.41h-22.36L440.63,306.38
		z"/>
	<path class="st7" d="M575.62,338.91c0,13.44-5.35,29.58-15.8,39.6c-7.53,7.31-17.62,11.9-29.4,11.9
		c-20.41,0-34.02-13.44-34.02-34.06c0-13.44,5.35-29.58,15.79-39.72c7.53-7.31,17.62-11.79,29.4-11.79
		C562.01,304.85,575.62,318.29,575.62,338.91z M543.54,366.02c5.95-5.78,9.48-17.56,9.48-25.57c0-10.14-4.74-16.03-13.36-16.03
		c-4.37,0-8.02,1.65-11.18,4.83c-5.95,5.77-9.48,17.68-9.48,25.57c0,10.25,4.74,16.03,13.37,16.03
		C536.62,370.85,540.38,369.08,543.54,366.02z"/>
	<path class="st7" d="M612.31,363.78h-1.34h-5.59l-6.07,25.1h-22.36l20.78-82.5h25.88c13,0,21.63,2.71,26.97,7.9
		c4.37,4.24,6.56,10.02,6.56,16.85c0,8.49-2.79,15.79-8.14,21.1c-3.04,2.95-7.29,5.89-14.22,8.13l10.69,28.52h-24.3L612.31,363.78z
		 M618.27,346.57c5.47,0,9.6-1.3,12.39-3.89c2.19-2.24,3.52-5.77,3.52-9.07c0-2.59-0.85-4.48-2.43-5.89
		c-1.7-1.77-4.62-2.59-8.75-2.59h-7.78l-5.22,21.45H618.27z"/>
	<path class="st7" d="M676.83,306.38h22.48l8.38,30.88l23.69-30.88h24.67l-20.78,82.5h-22.23l11.54-46.91l-25.15,31.23h-0.36
		l-9.48-31l-11.54,46.67h-21.99L676.83,306.38z"/>
	<path class="st7" d="M794.94,305.91h22.6l8.87,82.97h-23.09l-1.09-15.09h-25.64l-8.5,15.09h-23.81L794.94,305.91z M800.89,356.47
		l-1.21-24.28l-12.76,24.28H800.89z"/>
	<path class="st7" d="M836.13,355.88c0-13.67,5.1-28.76,15.43-38.77c7.78-7.43,17.37-12.14,30.5-12.14
		c13.12,0,23.57,6.25,29.4,15.91l-17.25,12.85c-3.64-5.42-7.41-8.84-13.61-8.84c-4.86,0-8.87,2.12-12.15,5.42
		c-5.83,5.54-9.23,15.44-9.23,24.04c0,10.02,5.59,16.03,13.49,16.03c5.1,0,9.48-2.24,14.34-6.48l12.39,14.73
		c-7.29,7.07-16.4,11.67-28.19,11.67C850.22,390.3,836.13,377.1,836.13,355.88z"/>
	<path class="st7" d="M927.62,306.38h22.23l-20.78,82.5h-22.36L927.62,306.38z"/>
	<path class="st7" d="M1030.9,338.91c0,13.44-5.35,29.58-15.8,39.6c-7.53,7.31-17.62,11.9-29.4,11.9
		c-20.41,0-34.02-13.44-34.02-34.06c0-13.44,5.35-29.58,15.8-39.72c7.53-7.31,17.62-11.79,29.4-11.79
		C1017.29,304.85,1030.9,318.29,1030.9,338.91z M998.82,366.02c5.95-5.78,9.48-17.56,9.48-25.57c0-10.14-4.74-16.03-13.36-16.03
		c-4.37,0-8.02,1.65-11.18,4.83c-5.95,5.77-9.48,17.68-9.48,25.57c0,10.25,4.74,16.03,13.36,16.03
		C991.9,370.85,995.66,369.08,998.82,366.02z M1009.03,282.93l20.17,5.89l-19.56,11.9H992.5L1009.03,282.93z"/>
	<path class="st7" d="M1053.01,306.38h21.02l15.92,44.43l11.06-44.43H1123l-20.78,82.5h-19.8l-16.77-46.2l-11.42,46.2h-21.99
		L1053.01,306.38z"/>
	<path class="st7" d="M111.11,407.64h30.37c20.05,0,33.17,10.14,33.17,28.64v0.47c0,19.8-14.82,29.23-33.41,29.46h-8.38v23.92
		h-21.75V407.64z M140.51,448.89c7.66,0,12.27-4.36,12.27-11.31v-0.35c0-7.54-4.5-11.43-12.39-11.43h-7.53v23.1H140.51z"/>
	<path class="st7" d="M202.6,407.17h22.11l30.01,82.97h-22.96l-4.98-14.85h-26.73l-4.86,14.85h-22.48L202.6,407.17z M221.31,458.32
		l-7.9-24.16l-7.9,24.16H221.31z"/>
	<path class="st7" d="M264.45,407.64h33.41c11.42,0,20.05,2.95,25.52,8.37c4.74,4.6,7.41,10.96,7.41,19.33v0.59
		c0,12.26-6.2,19.92-15.19,24.28l17.5,29.94h-24.67l-14.46-25.58h-7.78v25.58h-21.75V407.64z M297.01,447.71
		c7.41,0,11.79-4.12,11.79-10.72v-0.24c0-7.07-4.62-10.61-11.91-10.61h-10.69v21.57H297.01z"/>
	<path class="st7" d="M366.51,407.17h22.11l30.01,82.97h-22.96l-4.98-14.85h-26.73l-4.86,14.85h-22.48L366.51,407.17z
		 M385.22,458.32l-7.9-24.16l-7.9,24.16H385.22z"/>
	<path class="st7" d="M460.31,407.64h58.56v18.62h-36.94v13.55h33.29v17.56h-33.29v14.14h37.42v18.62h-59.05V407.64z"/>
	<path class="st7" d="M532.61,407.64h21.87v63.41h33.41v19.09h-55.28V407.64z"/>
	<path class="st7" d="M629.08,449.71v-1.42c0-25.46,17.13-42.07,39.49-42.07c13.36,0,22.48,5.07,29.4,12.96l-14.09,14.5
		c-3.64-4.24-8.26-7.78-14.95-7.78c-9.96,0-17.37,8.6-17.37,22.63v0.47c0,14.73,7.53,22.86,17.37,22.86
		c7.29,0,11.66-3.77,15.55-8.13l13.85,13.67c-6.93,8.25-16.4,14.14-30.62,14.14C645.97,491.55,629.08,475.41,629.08,449.71z"/>
	<path class="st7" d="M733.09,407.17h22.11l30.01,82.97h-22.96l-4.98-14.85h-26.73l-4.86,14.85H703.2L733.09,407.17z M751.8,458.32
		l-7.9-24.16l-7.9,24.16H751.8z"/>
	<path class="st7" d="M794.94,407.64h22.48l17.25,30.41l17.13-30.41h22.6v82.5h-21.63V443.7l-18.1,30.64h-0.36l-18.1-30.41v46.2
		h-21.26V407.64z"/>
	<path class="st7" d="M890.08,407.64h30.37c20.05,0,33.17,10.14,33.17,28.64v0.47c0,19.8-14.82,29.23-33.41,29.46h-8.38v23.92
		h-21.75V407.64z M919.48,448.89c7.66,0,12.27-4.36,12.27-11.31v-0.35c0-7.54-4.5-11.43-12.39-11.43h-7.53v23.1H919.48z"/>
	<path class="st7" d="M962.49,449.83v-1.77c0-24.63,16.65-41.96,39.49-41.96c22.96,0,39.37,17.09,39.37,41.84v1.77
		c0,24.63-16.65,41.96-39.49,41.96C978.9,491.67,962.49,474.58,962.49,449.83z M1018.99,449.6v-1.3c0-14.26-7.05-22.98-17.13-22.98
		c-10.09,0-17.01,8.6-17.01,22.86v1.3c0,14.26,7.05,22.98,17.13,22.98C1012.19,472.46,1018.99,463.86,1018.99,449.6z"/>
</g>
<g>
	<path class="st7" d="M711.86,147.55v-42.17c0-16.14-13.13-29.28-29.26-29.28V32.19c0-4.04-3.28-7.08-7.32-7.08h-29.26
		c-4.04,0-7.32,3.04-7.32,7.08v44.12h-31.23l-13.03-40.83c-4.98-14.96-18.93-25-34.69-25h-60.02c-4.04,0-7.32,3.03-7.32,7.07v139.06
		c0,28.25,22.97,51.31,51.2,51.31c23.15,0,42.73-15.49,49.05-36.52h38.74c1.44,0,2.86-0.42,4.06-1.22l20.09-13.4h10.67
		c-3.51,5.03-5.57,11.45-5.57,18.22c0,18.16,14.77,32.9,32.92,32.9c18.15,0,32.92-14.8,32.92-32.96
		C726.49,163.53,720.67,153.46,711.86,147.55L711.86,147.55z M653.34,39.74h14.63v36.57h-14.63V39.74z M580.54,40.01l11.58,36.29
		h-56.56c-2.92-14.63-14.21-25.83-28.52-28.75V25.11h52.71C569.21,25.11,577.58,31.12,580.54,40.01L580.54,40.01z M507.05,62.81
		c6.2,2.21,11.07,7.1,13.28,13.5h-13.28V62.81z M543.62,193.2c-20.17,0-36.57-16.42-36.57-36.59c0-20.18,16.41-36.6,36.57-36.6
		c20.16,0,36.57,16.42,36.57,36.6C580.19,176.79,563.78,193.2,543.62,193.2L543.62,193.2z M653.34,142.14
		c-1.44,0-2.86,0.34-4.06,1.15l-20.1,13.36l-34.36-0.02v-0.02c0-28.25-22.97-51.23-51.2-51.23c-14.32,0-27.27,5.93-36.57,15.44
		V90.94H682.6c8.07,0,14.63,6.36,14.63,14.44v36.77H653.34z M693.57,193.2c-10.08,0-18.29-8.21-18.29-18.3
		c0-10.09,8.2-18.3,18.29-18.3c10.08,0,18.29,8.21,18.29,18.3C711.86,184.99,703.65,193.2,693.57,193.2L693.57,193.2z M693.57,193.2
		"/>
</g>
</svg>
