<?xml version="1.0" encoding="utf-8"?>
<!-- Generator: Adobe Illustrator 23.0.0, SVG Export Plug-In . SVG Version: 6.00 Build 0)  -->
<svg version="1.1" id="Capa_1" xmlns="http://www.w3.org/2000/svg" xmlns:xlink="http://www.w3.org/1999/xlink" x="0px" y="0px"
	 viewBox="0 0 1194 495" style="enable-background:new 0 0 1194 495;" xml:space="preserve">
<style type="text/css">
	.st0{opacity:0.31;}
	.st1{clip-path:url(#SVGID_6_);fill:none;}
	.st2{fill:#D20F12;}
	.st3{fill:url(#SVGID_13_);}
	.st4{clip-path:url(#SVGID_15_);}
	.st5{fill:#FA060A;}
	.st6{fill:#16348F;}
	.st7{fill:#FFFFFF;}
	.st8{fill:url(#SVGID_20_);}
	.st9{fill:url(#SVGID_23_);}
	.st10{fill:none;stroke:#FFFFFF;stroke-width:10.2498;stroke-miterlimit:10;}
	.st11{fill:url(#SVGID_24_);}
	.st12{fill:url(#SVGID_25_);}
	.st13{fill:url(#SVGID_26_);}
	.st14{fill:url(#SVGID_27_);}
	.st15{fill:url(#SVGID_28_);}
	.st16{fill:url(#SVGID_29_);}
	.st17{fill:url(#SVGID_30_);}
	.st18{opacity:0.15;}
	.st19{fill:url(#SVGID_33_);}
	.st20{fill:url(#SVGID_34_);}
	.st21{fill:url(#SVGID_35_);}
	.st22{fill:url(#SVGID_36_);}
	.st23{fill:url(#SVGID_37_);}
	.st24{fill:url(#SVGID_38_);}
	.st25{fill:url(#SVGID_39_);}
	.st26{fill:url(#SVGID_40_);}
	.st27{fill:url(#SVGID_41_);}
	.st28{fill:url(#SVGID_42_);}
	.st29{fill:url(#SVGID_43_);}
	.st30{fill:url(#SVGID_44_);}
	.st31{fill:url(#SVGID_45_);}
	.st32{fill:url(#SVGID_46_);}
	.st33{fill:url(#SVGID_47_);}
	.st34{fill:url(#SVGID_48_);}
	.st35{fill:url(#SVGID_49_);}
	.st36{fill:url(#SVGID_50_);}
	.st37{fill:url(#SVGID_51_);}
	.st38{fill:url(#SVGID_52_);}
	.st39{fill:url(#SVGID_53_);}
	.st40{fill:url(#SVGID_54_);}
	.st41{fill:url(#SVGID_55_);}
	.st42{fill:url(#SVGID_56_);}
	.st43{fill:url(#SVGID_57_);}
	.st44{fill:url(#SVGID_58_);}
	.st45{fill:url(#SVGID_59_);}
	.st46{fill:url(#SVGID_60_);}
	.st47{fill:url(#SVGID_61_);}
	.st48{fill:url(#SVGID_62_);}
	.st49{fill:url(#SVGID_63_);}
	.st50{fill:url(#SVGID_64_);}
	.st51{fill:url(#SVGID_65_);}
	.st52{fill:url(#SVGID_66_);}
	.st53{fill:url(#SVGID_67_);}
	.st54{fill:url(#SVGID_68_);}
	.st55{fill:url(#SVGID_69_);}
	.st56{fill:url(#SVGID_70_);}
	.st57{fill:url(#SVGID_71_);}
	.st58{fill:url(#SVGID_72_);}
	.st59{fill:none;}
	.st60{fill:url(#SVGID_73_);}
	.st61{fill:none;stroke:#000000;stroke-miterlimit:10;}
	.st62{fill:#606060;}
	.st63{fill:url(#SVGID_78_);}
	.st64{fill:url(#SVGID_79_);}
	.st65{fill:url(#SVGID_80_);}
	.st66{fill:url(#SVGID_81_);}
	.st67{fill:url(#SVGID_82_);}
	.st68{fill:url(#SVGID_83_);}
	.st69{fill:url(#SVGID_84_);}
	.st70{fill:url(#SVGID_85_);}
	.st71{fill:url(#SVGID_86_);}
	.st72{fill:url(#SVGID_87_);}
	.st73{fill:url(#SVGID_88_);}
	.st74{fill:url(#SVGID_89_);}
	.st75{fill:url(#SVGID_90_);}
	.st76{fill:url(#SVGID_91_);}
	.st77{fill:url(#SVGID_92_);}
	.st78{fill:url(#SVGID_93_);}
	.st79{fill:url(#SVGID_94_);}
	.st80{fill:url(#SVGID_95_);}
	.st81{fill:url(#SVGID_96_);}
	.st82{fill:url(#SVGID_97_);}
	.st83{fill:url(#SVGID_98_);}
	.st84{fill:url(#SVGID_99_);}
	.st85{fill:url(#SVGID_100_);}
	.st86{fill:url(#SVGID_101_);}
	.st87{fill:url(#SVGID_102_);}
	.st88{fill:url(#SVGID_107_);}
	.st89{fill:url(#SVGID_110_);}
	.st90{clip-path:url(#SVGID_112_);fill:none;}
	.st91{fill:url(#SVGID_113_);}
	.st92{fill:url(#SVGID_114_);}
	.st93{fill:url(#SVGID_115_);}
	.st94{fill:url(#SVGID_118_);}
	.st95{clip-path:url(#SVGID_120_);fill:none;}
	.st96{fill:url(#SVGID_121_);}
	.st97{fill:url(#SVGID_122_);}
	.st98{opacity:0.8;}
	.st99{fill:#FA0009;}
	.st100{fill:url(#SVGID_123_);}
	.st101{fill:url(#SVGID_124_);}
	.st102{fill:url(#SVGID_125_);}
	.st103{fill:url(#SVGID_126_);}
	.st104{fill:url(#SVGID_127_);}
	.st105{fill:url(#SVGID_128_);}
	.st106{fill:url(#SVGID_129_);}
	.st107{fill:url(#SVGID_130_);}
	.st108{fill:url(#SVGID_131_);}
	.st109{fill:url(#SVGID_132_);}
	.st110{fill:url(#SVGID_133_);}
	.st111{fill:url(#SVGID_134_);}
	.st112{fill:url(#SVGID_135_);}
	.st113{fill:url(#SVGID_136_);}
	.st114{fill:url(#SVGID_137_);}
	.st115{fill:url(#SVGID_138_);}
	.st116{fill:url(#SVGID_139_);}
	.st117{fill:url(#SVGID_140_);}
	.st118{fill:url(#SVGID_141_);}
	.st119{fill:url(#SVGID_142_);}
	.st120{fill:url(#SVGID_143_);}
	.st121{fill:url(#SVGID_144_);}
	.st122{fill:url(#SVGID_145_);}
	.st123{fill:url(#SVGID_146_);}
	.st124{fill:url(#SVGID_147_);}
	.st125{fill:url(#SVGID_148_);}
	.st126{fill:url(#SVGID_149_);}
	.st127{fill:url(#SVGID_150_);}
	.st128{fill:url(#SVGID_151_);}
	.st129{fill:url(#SVGID_152_);}
	.st130{fill:url(#SVGID_153_);}
	.st131{fill:url(#SVGID_154_);}
	.st132{fill:url(#SVGID_155_);}
	.st133{fill:url(#SVGID_156_);}
	.st134{fill:url(#SVGID_157_);}
	.st135{fill:url(#SVGID_158_);}
	.st136{fill:url(#SVGID_159_);}
	.st137{fill:url(#SVGID_160_);}
	.st138{fill:url(#SVGID_161_);}
	.st139{fill:url(#SVGID_162_);}
	.st140{fill:url(#SVGID_163_);}
	.st141{fill:url(#SVGID_164_);}
	.st142{fill:url(#SVGID_165_);}
	.st143{fill:url(#SVGID_166_);}
	.st144{fill:url(#SVGID_167_);}
	.st145{fill:url(#SVGID_170_);}
	.st146{fill:url(#SVGID_171_);}
	.st147{fill:url(#SVGID_172_);}
	.st148{fill:url(#SVGID_173_);}
	.st149{fill:url(#SVGID_174_);}
	.st150{fill:url(#SVGID_175_);}
	.st151{fill:url(#SVGID_176_);}
	.st152{fill:url(#SVGID_177_);}
	.st153{fill:url(#SVGID_178_);}
	.st154{fill:url(#SVGID_179_);}
	.st155{fill:url(#SVGID_180_);}
	.st156{fill:url(#SVGID_181_);}
	.st157{fill:url(#SVGID_182_);}
	.st158{fill:url(#SVGID_183_);}
	.st159{fill:url(#SVGID_184_);}
	.st160{fill:url(#SVGID_185_);}
	.st161{fill:url(#SVGID_186_);}
	.st162{fill:url(#SVGID_187_);}
	.st163{fill:url(#SVGID_188_);}
	.st164{fill:url(#SVGID_189_);}
	.st165{fill:url(#SVGID_190_);}
	.st166{fill:url(#SVGID_191_);}
	.st167{fill:url(#SVGID_192_);}
	.st168{fill:url(#SVGID_193_);}
	.st169{fill:url(#SVGID_194_);}
	.st170{fill:url(#SVGID_195_);}
	.st171{fill:#F5F5F5;}
	.st172{fill:url(#SVGID_196_);}
	.st173{fill:url(#SVGID_197_);}
	.st174{fill:url(#SVGID_198_);}
	.st175{fill:url(#SVGID_199_);}
	.st176{fill:url(#SVGID_200_);}
	.st177{fill:url(#SVGID_201_);}
	.st178{fill:url(#SVGID_202_);}
	.st179{fill:url(#SVGID_203_);}
	.st180{fill:url(#SVGID_204_);}
	.st181{fill:url(#SVGID_205_);}
	.st182{fill:url(#SVGID_206_);}
	.st183{fill:url(#SVGID_207_);}
	.st184{fill:url(#SVGID_208_);}
	.st185{fill:url(#SVGID_209_);}
	.st186{fill:url(#SVGID_210_);}
	.st187{fill:url(#SVGID_211_);}
	.st188{fill:url(#SVGID_212_);}
	.st189{fill:url(#SVGID_213_);}
	.st190{fill:url(#SVGID_214_);}
	.st191{fill-rule:evenodd;clip-rule:evenodd;fill:url(#SVGID_215_);}
	.st192{fill-rule:evenodd;clip-rule:evenodd;fill:#FFFFFF;}
	.st193{fill:url(#SVGID_216_);}
	.st194{fill:url(#SVGID_217_);}
	.st195{fill:url(#SVGID_218_);}
	.st196{fill:url(#SVGID_219_);}
	.st197{fill:url(#SVGID_220_);}
	.st198{fill:url(#SVGID_221_);}
	.st199{fill:url(#SVGID_222_);}
	.st200{fill:url(#SVGID_223_);}
	.st201{fill:url(#SVGID_224_);}
	.st202{fill:url(#SVGID_225_);}
	.st203{fill:url(#SVGID_226_);}
	.st204{fill:url(#SVGID_233_);}
	.st205{fill:url(#SVGID_234_);}
	.st206{fill:url(#SVGID_235_);}
	.st207{fill:url(#SVGID_236_);}
	.st208{fill:url(#SVGID_237_);}
	.st209{fill:url(#SVGID_238_);}
	.st210{fill:url(#SVGID_239_);}
	.st211{fill:url(#SVGID_240_);}
	.st212{fill:url(#SVGID_241_);}
	.st213{fill:url(#SVGID_242_);}
	.st214{fill:url(#SVGID_243_);}
	.st215{fill:url(#SVGID_244_);}
	.st216{fill:url(#SVGID_245_);}
	.st217{fill:url(#SVGID_246_);}
	.st218{fill:url(#SVGID_247_);}
	.st219{fill:url(#SVGID_248_);}
	.st220{fill:url(#SVGID_249_);}
	.st221{fill:url(#SVGID_250_);}
	.st222{clip-path:url(#SVGID_252_);fill:none;}
	.st223{fill:url(#SVGID_253_);}
	.st224{fill:url(#SVGID_256_);}
	.st225{fill:url(#SVGID_257_);}
	.st226{fill:url(#SVGID_258_);}
	.st227{fill:url(#SVGID_259_);}
	.st228{fill:url(#SVGID_260_);}
	.st229{fill:url(#SVGID_261_);}
	.st230{fill:url(#SVGID_262_);}
	.st231{fill:url(#SVGID_263_);}
	.st232{fill:url(#SVGID_264_);}
	.st233{fill:url(#SVGID_265_);}
</style>
<g>
	<g>
		<path class="st7" d="M615.8,108.32c0.59,1.15,1.76,1.81,2.97,1.81c0.5,0,1.02-0.12,1.5-0.36c0.2-0.1,19.74-10.03,29.38-13.07
			c1.75-0.55,2.72-2.42,2.16-4.17c-0.55-1.75-2.4-2.72-4.17-2.17c-10.15,3.21-29.57,13.07-30.39,13.49
			C615.62,104.69,614.97,106.69,615.8,108.32L615.8,108.32z M615.8,108.32"/>
		<path class="st7" d="M618.76,70.29c0.5,0,1.02-0.12,1.5-0.36c0.2-0.1,19.74-10.03,29.38-13.07c1.75-0.55,2.72-2.42,2.16-4.17
			c-0.55-1.75-2.4-2.72-4.17-2.17c-10.15,3.21-29.57,13.07-30.39,13.49c-1.63,0.83-2.29,2.83-1.46,4.47
			C616.38,69.62,617.55,70.29,618.76,70.29L618.76,70.29z M618.76,70.29"/>
		<path class="st7" d="M706.77,50.46c-1.84,0-3.32,1.49-3.32,3.32v129.51c0,5.49-4.47,9.96-9.96,9.96h-79.7v-7.64
			c4.84-1.69,17.45-5.64,29.88-5.64c28.93,0,48.57,6.41,48.76,6.47c1,0.33,2.11,0.17,2.99-0.46c0.87-0.62,1.38-1.63,1.38-2.69V37.18
			c0-1.56-1.08-2.91-2.6-3.24c0,0-2.6-0.58-7.05-1.4c-1.8-0.33-3.53,0.86-3.87,2.66c-0.33,1.81,0.86,3.54,2.66,3.87
			c1.7,0.31,3.12,0.59,4.21,0.81v139c-7.52-1.97-24.23-5.55-46.49-5.55c-14.47,0-28.68,4.75-33.08,6.36
			c-3.91-1.73-15.72-6.36-30.02-6.36c-22.87,0-41.71,3.77-49.81,5.69V39.75c6.63-1.63,26.22-5.89,49.81-5.89
			c12.11,0,22.49,3.77,26.57,5.47v130.68c0,1.2,0.64,2.3,1.68,2.89c1.04,0.59,2.32,0.58,3.35-0.04c0.33-0.2,33.23-19.85,62.43-29.58
			c1.36-0.46,2.27-1.72,2.27-3.15V3.97c0-1.09-0.53-2.11-1.43-2.73c-0.89-0.62-2.03-0.76-3.06-0.38
			c-26.57,9.97-53.45,26.69-53.72,26.86c-1.55,0.97-2.03,3.02-1.05,4.58c0.97,1.55,3.02,2.03,4.58,1.06
			c0.25-0.16,23.63-14.71,48.05-24.53v128.92c-22.67,7.88-46.33,20.74-56.45,26.5V37.18c0-1.26-0.71-2.41-1.84-2.97
			c-0.57-0.28-14.18-6.99-31.37-6.99c-30.01,0-53.07,6.49-54.05,6.77c-1.42,0.4-2.41,1.71-2.41,3.19v146.11
			c0,1.04,0.49,2.02,1.32,2.65c0.59,0.44,1.29,0.67,2,0.67c0.31,0,0.61-0.04,0.91-0.13c0.23-0.06,23.19-6.51,52.22-6.51
			c12.14,0,22.52,3.78,26.57,5.48v7.81h-79.7c-5.49,0-9.96-4.47-9.96-9.96V53.78c0-1.83-1.49-3.32-3.32-3.32
			c-1.83,0-3.32,1.49-3.32,3.32v129.51c0,9.16,7.45,16.6,16.6,16.6h166.04c9.15,0,16.6-7.45,16.6-16.6V53.78
			C710.09,51.95,708.6,50.46,706.77,50.46L706.77,50.46z M706.77,50.46"/>
		<path class="st7" d="M615.8,88.4c0.59,1.15,1.76,1.81,2.97,1.81c0.5,0,1.02-0.12,1.5-0.36c0.2-0.1,19.74-10.03,29.38-13.07
			c1.75-0.55,2.72-2.42,2.16-4.17c-0.55-1.75-2.4-2.72-4.17-2.17c-10.15,3.21-29.57,13.07-30.39,13.49
			C615.62,84.76,614.97,86.76,615.8,88.4L615.8,88.4z M615.8,88.4"/>
		<path class="st7" d="M615.8,128.44c0.59,1.15,1.76,1.81,2.97,1.81c0.5,0,1.02-0.12,1.5-0.36c0.2-0.1,19.74-10.03,29.38-13.07
			c1.75-0.55,2.72-2.42,2.16-4.17c-0.55-1.75-2.4-2.72-4.17-2.17c-10.15,3.21-29.57,13.07-30.39,13.49
			C615.62,124.81,614.97,126.8,615.8,128.44L615.8,128.44z M615.8,128.44"/>
		<path class="st7" d="M582.99,75.65c-20.51-4.81-43.81,1.32-44.79,1.58c-1.77,0.48-2.82,2.3-2.35,4.07c0.4,1.48,1.74,2.46,3.2,2.46
			c0.29,0,0.58-0.04,0.86-0.11c0.22-0.06,22.66-5.96,41.55-1.53c1.78,0.41,3.57-0.69,3.99-2.48
			C585.88,77.86,584.77,76.08,582.99,75.65L582.99,75.65z M582.99,75.65"/>
		<path class="st7" d="M582.99,95.58c-20.51-4.81-43.81,1.32-44.79,1.58c-1.77,0.48-2.82,2.3-2.35,4.07c0.4,1.48,1.74,2.46,3.2,2.46
			c0.29,0,0.58-0.04,0.86-0.11c0.22-0.06,22.66-5.96,41.55-1.53c1.78,0.41,3.57-0.69,3.99-2.48C585.88,97.79,584.77,96,582.99,95.58
			L582.99,95.58z M582.99,95.58"/>
		<path class="st7" d="M615.8,148.37c0.59,1.15,1.76,1.81,2.97,1.81c0.5,0,1.02-0.12,1.5-0.36c0.2-0.1,19.74-10.03,29.38-13.07
			c1.75-0.55,2.72-2.42,2.16-4.17c-0.55-1.75-2.4-2.72-4.17-2.17c-10.15,3.21-29.57,13.07-30.39,13.49
			C615.62,144.73,614.97,146.73,615.8,148.37L615.8,148.37z M615.8,148.37"/>
		<path class="st7" d="M582.99,115.5c-20.51-4.81-43.81,1.31-44.79,1.58c-1.77,0.48-2.82,2.29-2.35,4.07
			c0.4,1.48,1.74,2.46,3.2,2.46c0.29,0,0.58-0.04,0.86-0.12c0.22-0.06,22.66-5.96,41.55-1.53c1.78,0.42,3.57-0.69,3.99-2.48
			C585.88,117.71,584.77,115.92,582.99,115.5L582.99,115.5z M582.99,115.5"/>
		<path class="st7" d="M582.99,155.35c-20.51-4.81-43.81,1.32-44.79,1.58c-1.77,0.48-2.82,2.3-2.35,4.07
			c0.4,1.48,1.74,2.46,3.2,2.46c0.29,0,0.58-0.04,0.86-0.12c0.22-0.06,22.66-5.96,41.55-1.53c1.78,0.41,3.57-0.69,3.99-2.48
			C585.88,157.56,584.77,155.77,582.99,155.35L582.99,155.35z M582.99,155.35"/>
		<path class="st7" d="M582.99,135.43c-20.51-4.81-43.81,1.31-44.79,1.58c-1.77,0.47-2.82,2.29-2.35,4.07
			c0.4,1.48,1.74,2.46,3.2,2.46c0.29,0,0.58-0.04,0.86-0.12c0.22-0.06,22.66-5.96,41.55-1.53c1.78,0.42,3.57-0.69,3.99-2.48
			C585.88,137.63,584.77,135.85,582.99,135.43L582.99,135.43z M582.99,135.43"/>
	</g>
	<g>
		<path class="st7" d="M81.93,243.14h76.25v24.99h-48.09v18.19h43.35v23.57h-43.35v18.98h48.72v24.99H81.93V243.14z"/>
		<path class="st7" d="M172.09,243.14h36.39c35.59,0,55.84,21.51,55.84,54.1v1.9c0,32.59-20.41,54.74-56.32,54.74h-35.91V243.14z
			 M200.56,268.61v59.8h8.23c15.82,0,26.42-9.33,26.42-29.11v-1.42c0-19.93-10.6-29.27-26.42-29.27H200.56z"/>
		<path class="st7" d="M276.49,310.06v-66.92h28.63v67.23c0,13.29,6.49,19.62,16.29,19.62c9.97,0,16.29-6.01,16.29-19.14v-67.71
			h28.79v66.44c0,32.11-18.19,46.19-45.24,46.19S276.49,341.54,276.49,310.06z"/>
		<path class="st7" d="M378.67,299.62v-1.9c0-34.17,22.31-56.48,51.41-56.48c17.4,0,29.27,6.8,38.28,17.4l-18.35,19.46
			c-4.75-5.69-10.76-10.44-19.46-10.44c-12.97,0-22.62,11.55-22.62,30.37v0.63c0,19.77,9.81,30.69,22.62,30.69
			c9.49,0,15.19-5.06,20.25-10.92l18.03,18.35c-9.02,11.07-21.36,18.98-39.87,18.98C400.66,355.78,378.67,334.1,378.67,299.62z"/>
		<path class="st7" d="M510.12,242.51h28.79l39.07,111.37h-29.9l-6.49-19.93h-34.8l-6.33,19.93h-29.27L510.12,242.51z
			 M534.49,311.16l-10.28-32.43l-10.28,32.43H534.49z"/>
		<path class="st7" d="M586.68,243.14h43.5c14.87,0,26.1,3.96,33.22,11.23c6.17,6.17,9.65,14.71,9.65,25.94v0.79
			c0,16.45-8.07,26.74-19.77,32.59l22.78,40.18h-32.11l-18.83-34.33H615v34.33h-28.32V243.14z M629.08,296.93
			c9.65,0,15.34-5.54,15.34-14.4v-0.32c0-9.49-6.01-14.24-15.5-14.24H615v28.95H629.08z"/>
		<path class="st7" d="M723.51,243.14h39.55c26.1,0,43.19,13.6,43.19,38.44v0.63c0,26.58-19.3,39.23-43.5,39.55h-10.92v32.11h-28.32
			V243.14z M761.79,298.51c9.97,0,15.98-5.85,15.98-15.19v-0.47c0-10.12-5.85-15.35-16.14-15.35h-9.81v31.01H761.79z"/>
		<path class="st7" d="M838.67,242.51h28.79l39.07,111.37h-29.9l-6.49-19.93h-34.8l-6.33,19.93h-29.27L838.67,242.51z
			 M863.03,311.16l-10.28-32.43l-10.28,32.43H863.03z"/>
		<path class="st7" d="M915.22,243.14h43.5c14.87,0,26.1,3.96,33.22,11.23c6.17,6.17,9.65,14.71,9.65,25.94v0.79
			c0,16.45-8.07,26.74-19.77,32.59l22.78,40.18h-32.11l-18.83-34.33h-10.12v34.33h-28.32V243.14z M957.62,296.93
			c9.65,0,15.34-5.54,15.34-14.4v-0.32c0-9.49-6.01-14.24-15.5-14.24h-13.92v28.95H957.62z"/>
		<path class="st7" d="M1044.15,242.51h28.79l39.07,111.37h-29.9l-6.49-19.93h-34.8l-6.33,19.93h-29.27L1044.15,242.51z
			 M1068.51,311.16l-10.28-32.43l-10.28,32.43H1068.51z"/>
		<path class="st7" d="M62.14,405.17H34l6.87-26.83h86.23l-6.87,26.83H92.25l-21.27,87.7H40.87L62.14,405.17z"/>
		<path class="st7" d="M156.87,458.02h-1.8h-7.53l-8.18,34.85h-30.11l27.98-114.53h34.85c17.51,0,29.13,3.76,36.32,10.96
			c5.89,5.89,8.84,13.91,8.84,23.4c0,11.78-3.76,21.93-10.96,29.29c-4.09,4.09-9.82,8.18-19.14,11.29l14.4,39.6h-32.72
			L156.87,458.02z M164.89,434.13c7.36,0,12.93-1.8,16.69-5.4c2.94-3.11,4.74-8.02,4.74-12.6c0-3.6-1.15-6.22-3.27-8.18
			c-2.29-2.45-6.22-3.6-11.78-3.6H160.8l-7.04,29.78H164.89z"/>
		<path class="st7" d="M270.58,377.68h30.43l11.94,115.19h-31.09l-1.47-20.94h-34.52l-11.45,20.94h-32.07L270.58,377.68z
			 M278.59,447.88l-1.64-33.71l-17.18,33.71H278.59z"/>
		<path class="st7" d="M348.12,378.34h28.31l21.43,61.69l14.89-61.69h29.62l-27.98,114.53h-26.67l-22.58-64.14l-15.38,64.14h-29.61
			L348.12,378.34z"/>
		<path class="st7" d="M429.1,475.37l18.33-21.11c9.82,9.65,19.47,14.73,28.63,14.73c6.05,0,9.98-3.27,9.98-8.18
			c0-4.09-2.62-6.87-14.73-14.07c-15.54-9.16-24.05-18-24.05-32.23c0-10.31,3.93-19.31,10.31-25.69
			c7.69-7.69,18.82-12.27,32.4-12.27c17.02,0,30.6,6.54,40.58,16.03l-18,21.27c-7.2-6.71-15.22-11.62-24.22-11.62
			c-6.38,0-9.98,3.44-9.98,7.69c0,4.26,2.62,6.71,15.05,14.24c14.4,8.51,24.05,17.18,24.05,32.4c0,10.47-3.93,19.47-10.8,26.34
			c-7.53,7.53-19.14,11.78-32.4,11.78C456.1,494.67,440.39,487.47,429.1,475.37z"/>
		<path class="st7" d="M549.36,378.34h78.05l-6.87,26.83h-47.94l-4.58,19.96h43.2l-6.55,25.52h-43.03l-10.14,42.21h-30.11
			L549.36,378.34z"/>
		<path class="st7" d="M727.04,423.5c0,18.65-7.2,41.07-21.27,54.98c-10.14,10.14-23.73,16.53-39.6,16.53
			c-27.49,0-45.81-18.65-45.81-47.29c0-18.65,7.2-41.07,21.27-55.14c10.14-10.14,23.73-16.36,39.6-16.36
			C708.71,376.21,727.04,394.86,727.04,423.5z M683.84,461.13c8.02-8.02,12.76-24.38,12.76-35.51c0-14.07-6.38-22.25-18-22.25
			c-5.89,0-10.8,2.29-15.05,6.71c-8.02,8.02-12.76,24.54-12.76,35.51c0,14.23,6.38,22.25,18,22.25
			C674.52,467.84,679.59,465.38,683.84,461.13z"/>
		<path class="st7" d="M772.35,458.02h-1.8h-7.53l-8.18,34.85h-30.11l27.98-114.53h34.85c17.51,0,29.12,3.76,36.32,10.96
			c5.89,5.89,8.84,13.91,8.84,23.4c0,11.78-3.76,21.93-10.96,29.29c-4.09,4.09-9.82,8.18-19.14,11.29l14.4,39.6h-32.72
			L772.35,458.02z M780.37,434.13c7.36,0,12.93-1.8,16.69-5.4c2.94-3.11,4.74-8.02,4.74-12.6c0-3.6-1.15-6.22-3.27-8.18
			c-2.29-2.45-6.22-3.6-11.78-3.6h-10.47l-7.04,29.78H780.37z"/>
		<path class="st7" d="M855.13,378.34h30.27l11.29,42.87l31.91-42.87h33.21l-27.98,114.53h-29.94l15.54-65.12l-33.87,43.36h-0.49
			l-12.76-43.03l-15.54,64.79h-29.61L855.13,378.34z"/>
		<path class="st7" d="M1010.07,377.68h30.43l11.94,115.19h-31.09l-1.47-20.94h-34.52l-11.45,20.94h-32.07L1010.07,377.68z
			 M1018.09,447.88l-1.64-33.71l-17.18,33.71H1018.09z"/>
		<path class="st7" d="M1107.25,458.02h-1.8h-7.53l-8.18,34.85h-30.11l27.98-114.53h34.85c17.51,0,29.12,3.76,36.32,10.96
			c5.89,5.89,8.84,13.91,8.84,23.4c0,11.78-3.76,21.93-10.96,29.29c-4.09,4.09-9.82,8.18-19.14,11.29l14.4,39.6h-32.72
			L1107.25,458.02z M1115.27,434.13c7.36,0,12.93-1.8,16.69-5.4c2.94-3.11,4.74-8.02,4.74-12.6c0-3.6-1.15-6.22-3.27-8.18
			c-2.29-2.45-6.22-3.6-11.78-3.6h-10.47l-7.04,29.78H1115.27z"/>
	</g>
</g>
</svg>
