<?xml version="1.0" encoding="utf-8"?>
<!-- Generator: Adobe Illustrator 23.0.0, SVG Export Plug-In . SVG Version: 6.00 Build 0)  -->
<svg version="1.1" id="Capa_1" xmlns="http://www.w3.org/2000/svg" xmlns:xlink="http://www.w3.org/1999/xlink" x="0px" y="0px"
	 viewBox="0 0 1194 495" style="enable-background:new 0 0 1194 495;" xml:space="preserve">
<style type="text/css">
	.st0{opacity:0.31;}
	.st1{clip-path:url(#SVGID_6_);fill:none;}
	.st2{fill:#D20F12;}
	.st3{fill:url(#SVGID_13_);}
	.st4{clip-path:url(#SVGID_15_);}
	.st5{fill:#FA060A;}
	.st6{fill:#16348F;}
	.st7{fill:#FFFFFF;}
	.st8{fill:url(#SVGID_20_);}
	.st9{fill:url(#SVGID_23_);}
	.st10{fill:none;stroke:#FFFFFF;stroke-width:10.2498;stroke-miterlimit:10;}
	.st11{fill:url(#SVGID_24_);}
	.st12{fill:url(#SVGID_25_);}
	.st13{fill:url(#SVGID_26_);}
	.st14{fill:url(#SVGID_27_);}
	.st15{fill:url(#SVGID_28_);}
	.st16{fill:url(#SVGID_29_);}
	.st17{fill:url(#SVGID_30_);}
	.st18{opacity:0.15;}
	.st19{fill:url(#SVGID_33_);}
	.st20{fill:url(#SVGID_34_);}
	.st21{fill:url(#SVGID_35_);}
	.st22{fill:url(#SVGID_36_);}
	.st23{fill:url(#SVGID_37_);}
	.st24{fill:url(#SVGID_38_);}
	.st25{fill:url(#SVGID_39_);}
	.st26{fill:url(#SVGID_40_);}
	.st27{fill:url(#SVGID_41_);}
	.st28{fill:url(#SVGID_42_);}
	.st29{fill:url(#SVGID_43_);}
	.st30{fill:url(#SVGID_44_);}
	.st31{fill:url(#SVGID_45_);}
	.st32{fill:url(#SVGID_46_);}
	.st33{fill:url(#SVGID_47_);}
	.st34{fill:url(#SVGID_48_);}
	.st35{fill:url(#SVGID_49_);}
	.st36{fill:url(#SVGID_50_);}
	.st37{fill:url(#SVGID_51_);}
	.st38{fill:url(#SVGID_52_);}
	.st39{fill:url(#SVGID_53_);}
	.st40{fill:url(#SVGID_54_);}
	.st41{fill:url(#SVGID_55_);}
	.st42{fill:url(#SVGID_56_);}
	.st43{fill:url(#SVGID_57_);}
	.st44{fill:url(#SVGID_58_);}
	.st45{fill:url(#SVGID_59_);}
	.st46{fill:url(#SVGID_60_);}
	.st47{fill:url(#SVGID_61_);}
	.st48{fill:url(#SVGID_62_);}
	.st49{fill:url(#SVGID_63_);}
	.st50{fill:url(#SVGID_64_);}
	.st51{fill:url(#SVGID_65_);}
	.st52{fill:url(#SVGID_66_);}
	.st53{fill:url(#SVGID_67_);}
	.st54{fill:url(#SVGID_68_);}
	.st55{fill:url(#SVGID_69_);}
	.st56{fill:url(#SVGID_70_);}
	.st57{fill:url(#SVGID_71_);}
	.st58{fill:url(#SVGID_72_);}
	.st59{fill:none;}
	.st60{fill:url(#SVGID_73_);}
	.st61{fill:none;stroke:#000000;stroke-miterlimit:10;}
	.st62{fill:#606060;}
	.st63{fill:url(#SVGID_78_);}
	.st64{fill:url(#SVGID_79_);}
	.st65{fill:url(#SVGID_80_);}
	.st66{fill:url(#SVGID_81_);}
	.st67{fill:url(#SVGID_82_);}
	.st68{fill:url(#SVGID_83_);}
	.st69{fill:url(#SVGID_84_);}
	.st70{fill:url(#SVGID_85_);}
	.st71{fill:url(#SVGID_86_);}
	.st72{fill:url(#SVGID_87_);}
	.st73{fill:url(#SVGID_88_);}
	.st74{fill:url(#SVGID_89_);}
	.st75{fill:url(#SVGID_90_);}
	.st76{fill:url(#SVGID_91_);}
	.st77{fill:url(#SVGID_92_);}
	.st78{fill:url(#SVGID_93_);}
	.st79{fill:url(#SVGID_94_);}
	.st80{fill:url(#SVGID_95_);}
	.st81{fill:url(#SVGID_96_);}
	.st82{fill:url(#SVGID_97_);}
	.st83{fill:url(#SVGID_98_);}
	.st84{fill:url(#SVGID_99_);}
	.st85{fill:url(#SVGID_100_);}
	.st86{fill:url(#SVGID_101_);}
	.st87{fill:url(#SVGID_102_);}
	.st88{fill:url(#SVGID_107_);}
	.st89{fill:url(#SVGID_110_);}
	.st90{clip-path:url(#SVGID_112_);fill:none;}
	.st91{fill:url(#SVGID_113_);}
	.st92{fill:url(#SVGID_114_);}
	.st93{fill:url(#SVGID_115_);}
	.st94{fill:url(#SVGID_118_);}
	.st95{clip-path:url(#SVGID_120_);fill:none;}
	.st96{fill:url(#SVGID_121_);}
	.st97{fill:url(#SVGID_122_);}
	.st98{opacity:0.8;}
	.st99{fill:#FA0009;}
	.st100{fill:url(#SVGID_123_);}
	.st101{fill:url(#SVGID_124_);}
	.st102{fill:url(#SVGID_125_);}
	.st103{fill:url(#SVGID_126_);}
	.st104{fill:url(#SVGID_127_);}
	.st105{fill:url(#SVGID_128_);}
	.st106{fill:url(#SVGID_129_);}
	.st107{fill:url(#SVGID_130_);}
	.st108{fill:url(#SVGID_131_);}
	.st109{fill:url(#SVGID_132_);}
	.st110{fill:url(#SVGID_133_);}
	.st111{fill:url(#SVGID_134_);}
	.st112{fill:url(#SVGID_135_);}
	.st113{fill:url(#SVGID_136_);}
	.st114{fill:url(#SVGID_137_);}
	.st115{fill:url(#SVGID_138_);}
	.st116{fill:url(#SVGID_139_);}
	.st117{fill:url(#SVGID_140_);}
	.st118{fill:url(#SVGID_141_);}
	.st119{fill:url(#SVGID_142_);}
	.st120{fill:url(#SVGID_143_);}
	.st121{fill:url(#SVGID_144_);}
	.st122{fill:url(#SVGID_145_);}
	.st123{fill:url(#SVGID_146_);}
	.st124{fill:url(#SVGID_147_);}
	.st125{fill:url(#SVGID_148_);}
	.st126{fill:url(#SVGID_149_);}
	.st127{fill:url(#SVGID_150_);}
	.st128{fill:url(#SVGID_151_);}
	.st129{fill:url(#SVGID_152_);}
	.st130{fill:url(#SVGID_153_);}
	.st131{fill:url(#SVGID_154_);}
	.st132{fill:url(#SVGID_155_);}
	.st133{fill:url(#SVGID_156_);}
	.st134{fill:url(#SVGID_157_);}
	.st135{fill:url(#SVGID_158_);}
	.st136{fill:url(#SVGID_159_);}
	.st137{fill:url(#SVGID_160_);}
	.st138{fill:url(#SVGID_161_);}
	.st139{fill:url(#SVGID_162_);}
	.st140{fill:url(#SVGID_163_);}
	.st141{fill:url(#SVGID_164_);}
	.st142{fill:url(#SVGID_165_);}
	.st143{fill:url(#SVGID_166_);}
	.st144{fill:url(#SVGID_167_);}
	.st145{fill:url(#SVGID_170_);}
	.st146{fill:url(#SVGID_171_);}
	.st147{fill:url(#SVGID_172_);}
	.st148{fill:url(#SVGID_173_);}
	.st149{fill:url(#SVGID_174_);}
	.st150{fill:url(#SVGID_175_);}
	.st151{fill:url(#SVGID_176_);}
	.st152{fill:url(#SVGID_177_);}
	.st153{fill:url(#SVGID_178_);}
	.st154{fill:url(#SVGID_179_);}
	.st155{fill:url(#SVGID_180_);}
	.st156{fill:url(#SVGID_181_);}
	.st157{fill:url(#SVGID_182_);}
	.st158{fill:url(#SVGID_183_);}
	.st159{fill:url(#SVGID_184_);}
	.st160{fill:url(#SVGID_185_);}
	.st161{fill:url(#SVGID_186_);}
	.st162{fill:url(#SVGID_187_);}
	.st163{fill:url(#SVGID_188_);}
	.st164{fill:url(#SVGID_189_);}
	.st165{fill:url(#SVGID_190_);}
	.st166{fill:url(#SVGID_191_);}
	.st167{fill:url(#SVGID_192_);}
	.st168{fill:url(#SVGID_193_);}
	.st169{fill:url(#SVGID_194_);}
	.st170{fill:url(#SVGID_195_);}
	.st171{fill:#F5F5F5;}
	.st172{fill:url(#SVGID_196_);}
	.st173{fill:url(#SVGID_197_);}
	.st174{fill:url(#SVGID_198_);}
	.st175{fill:url(#SVGID_199_);}
	.st176{fill:url(#SVGID_200_);}
	.st177{fill:url(#SVGID_201_);}
	.st178{fill:url(#SVGID_202_);}
	.st179{fill:url(#SVGID_203_);}
	.st180{fill:url(#SVGID_204_);}
	.st181{fill:url(#SVGID_205_);}
	.st182{fill:url(#SVGID_206_);}
	.st183{fill:url(#SVGID_207_);}
	.st184{fill:url(#SVGID_208_);}
	.st185{fill:url(#SVGID_209_);}
	.st186{fill:url(#SVGID_210_);}
	.st187{fill:url(#SVGID_211_);}
	.st188{fill:url(#SVGID_212_);}
	.st189{fill:url(#SVGID_213_);}
	.st190{fill:url(#SVGID_214_);}
	.st191{fill-rule:evenodd;clip-rule:evenodd;fill:url(#SVGID_215_);}
	.st192{fill-rule:evenodd;clip-rule:evenodd;fill:#FFFFFF;}
	.st193{fill:url(#SVGID_216_);}
	.st194{fill:url(#SVGID_217_);}
	.st195{fill:url(#SVGID_218_);}
	.st196{fill:url(#SVGID_219_);}
	.st197{fill:url(#SVGID_220_);}
	.st198{fill:url(#SVGID_221_);}
	.st199{fill:url(#SVGID_222_);}
	.st200{fill:url(#SVGID_223_);}
	.st201{fill:url(#SVGID_224_);}
	.st202{fill:url(#SVGID_225_);}
	.st203{fill:url(#SVGID_226_);}
	.st204{fill:url(#SVGID_233_);}
	.st205{fill:url(#SVGID_234_);}
	.st206{fill:url(#SVGID_235_);}
	.st207{fill:url(#SVGID_236_);}
	.st208{fill:url(#SVGID_237_);}
	.st209{fill:url(#SVGID_238_);}
	.st210{fill:url(#SVGID_239_);}
	.st211{fill:url(#SVGID_240_);}
	.st212{fill:url(#SVGID_241_);}
	.st213{fill:url(#SVGID_242_);}
	.st214{fill:url(#SVGID_243_);}
	.st215{fill:url(#SVGID_244_);}
	.st216{fill:url(#SVGID_245_);}
	.st217{fill:url(#SVGID_246_);}
	.st218{fill:url(#SVGID_247_);}
	.st219{fill:url(#SVGID_248_);}
	.st220{fill:url(#SVGID_249_);}
	.st221{fill:url(#SVGID_250_);}
	.st222{clip-path:url(#SVGID_252_);fill:none;}
	.st223{fill:url(#SVGID_253_);}
	.st224{fill:url(#SVGID_256_);}
	.st225{fill:url(#SVGID_257_);}
	.st226{fill:url(#SVGID_258_);}
	.st227{fill:url(#SVGID_259_);}
	.st228{fill:url(#SVGID_260_);}
	.st229{fill:url(#SVGID_261_);}
	.st230{fill:url(#SVGID_262_);}
	.st231{fill:url(#SVGID_263_);}
	.st232{fill:url(#SVGID_264_);}
	.st233{fill:url(#SVGID_265_);}
</style>
<g>
	<path class="st7" d="M224.02,363.61l12.19-16.14c7.24,5.79,15.5,9.73,24.13,9.73c6.1,0,9.27-2.59,9.27-6.28v-0.12
		c0-3.45-2.67-5.54-13.08-9.12c-16.77-5.54-28.58-11.46-28.58-27.1v-0.37c0-15.65,12.32-26.61,31.75-26.61
		c11.94,0,22.48,3.2,31.75,10.47l-11.56,16.51c-6.1-4.56-13.46-7.88-20.7-7.88c-5.21,0-8.13,2.46-8.13,5.67v0.12
		c0,3.82,2.79,5.79,14.1,9.86c16.89,5.3,27.43,11.95,27.43,26.61v0.25c0,16.75-13.34,27.1-32.39,27.1
		C247.01,376.29,234.43,372.35,224.02,363.61z"/>
	<path class="st7" d="M302.38,288.83h61.22v19.46h-38.61v14.17h34.8v18.36h-34.8v14.78h39.12v19.46h-61.73V288.83z"/>
	<path class="st7" d="M374.77,288.83h34.93c11.94,0,20.96,3.08,26.67,8.75c4.95,4.8,7.75,11.46,7.75,20.2v0.62
		c0,12.81-6.48,20.82-15.88,25.38l18.29,31.29h-25.78l-15.11-26.73h-8.13v26.73h-22.74V288.83z M408.81,330.71
		c7.75,0,12.32-4.31,12.32-11.21v-0.25c0-7.39-4.83-11.09-12.45-11.09h-11.18v22.54H408.81z"/>
	<path class="st7" d="M446.27,288.83h24.89l16.38,53.71l16.26-53.71h24.39l-29.97,86.73h-21.97L446.27,288.83z"/>
	<path class="st7" d="M535.69,288.83h22.86v86.24h-22.86V288.83z"/>
	<path class="st7" d="M572.26,288.83h34.93c11.94,0,20.96,3.08,26.67,8.75c4.95,4.8,7.75,11.46,7.75,20.2v0.62
		c0,12.81-6.48,20.82-15.88,25.38l18.29,31.29h-25.78l-15.11-26.73H595v26.73h-22.74V288.83z M606.3,330.71
		c7.75,0,12.32-4.31,12.32-11.21v-0.25c0-7.39-4.83-11.09-12.45-11.09H595v22.54H606.3z"/>
	<path class="st7" d="M682.12,288.83h31.75c20.96,0,34.67,10.6,34.67,29.94v0.49c0,20.7-15.5,30.55-34.93,30.8h-8.76v25.01h-22.74
		V288.83z M712.85,331.95c8,0,12.83-4.56,12.83-11.83v-0.37c0-7.88-4.7-11.95-12.96-11.95h-7.87v24.15H712.85z"/>
	<path class="st7" d="M774.58,288.33h23.12l31.37,86.73h-24.01l-5.21-15.52h-27.94l-5.08,15.52h-23.5L774.58,288.33z M794.14,341.8
		l-8.26-25.25l-8.26,25.25H794.14z"/>
	<path class="st7" d="M836.04,288.83h34.93c11.94,0,20.96,3.08,26.67,8.75c4.95,4.8,7.75,11.46,7.75,20.2v0.62
		c0,12.81-6.48,20.82-15.88,25.38l18.29,31.29h-25.78l-15.11-26.73h-8.13v26.73h-22.74V288.83z M870.08,330.71
		c7.75,0,12.32-4.31,12.32-11.21v-0.25c0-7.39-4.83-11.09-12.45-11.09h-11.18v22.54H870.08z"/>
	<path class="st7" d="M939.55,288.33h23.12l31.37,86.73h-24.01l-5.21-15.52h-27.94l-5.08,15.52h-23.5L939.55,288.33z M959.11,341.8
		l-8.26-25.25l-8.26,25.25H959.11z"/>
	<path class="st7" d="M196.85,414.44H175l5.33-20.2h66.93l-5.33,20.2h-21.72l-16.51,66.03h-23.37L196.85,414.44z"/>
	<path class="st7" d="M270.38,454.24h-1.4h-5.84l-6.35,26.24h-23.37l21.72-86.24h27.05c13.59,0,22.61,2.83,28.2,8.25
		c4.57,4.44,6.86,10.47,6.86,17.62c0,8.87-2.92,16.51-8.51,22.05c-3.18,3.08-7.62,6.16-14.86,8.5l11.18,29.81h-25.4L270.38,454.24z
		 M276.6,436.25c5.72,0,10.03-1.35,12.96-4.07c2.29-2.34,3.68-6.04,3.68-9.49c0-2.71-0.89-4.68-2.54-6.16
		c-1.78-1.85-4.83-2.71-9.14-2.71h-8.13l-5.46,22.42H276.6z"/>
	<path class="st7" d="M358.65,393.75h23.62l9.27,86.73h-24.13l-1.14-15.77h-26.8l-8.89,15.77h-24.89L358.65,393.75z M364.87,446.6
		l-1.27-25.38l-13.34,25.38H364.87z"/>
	<path class="st7" d="M418.84,394.24h21.97l16.64,46.44l11.56-46.44H492l-21.72,86.24h-20.7l-17.53-48.29l-11.94,48.29h-22.99
		L418.84,394.24z"/>
	<path class="st7" d="M481.71,467.29l14.23-15.89c7.62,7.27,15.11,11.09,22.23,11.09c4.7,0,7.75-2.46,7.75-6.16
		c0-3.08-2.03-5.17-11.43-10.6c-12.07-6.9-18.67-13.55-18.67-24.27c0-7.76,3.05-14.54,8-19.34c5.97-5.79,14.61-9.24,25.15-9.24
		c13.21,0,23.75,4.93,31.5,12.07l-13.97,16.02c-5.59-5.05-11.81-8.75-18.8-8.75c-4.95,0-7.75,2.59-7.75,5.79
		c0,3.2,2.03,5.05,11.69,10.72c11.18,6.41,18.67,12.94,18.67,24.39c0,7.88-3.05,14.66-8.38,19.83c-5.84,5.67-14.86,8.87-25.15,8.87
		C502.67,481.83,490.47,476.41,481.71,467.29z"/>
	<path class="st7" d="M575.06,394.24h60.58l-5.34,20.2h-37.21l-3.56,15.03h33.53l-5.08,19.22h-33.4l-7.88,31.78h-23.37
		L575.06,394.24z"/>
	<path class="st7" d="M712.98,428.24c0,14.04-5.59,30.92-16.51,41.39c-7.88,7.64-18.42,12.44-30.74,12.44
		c-21.34,0-35.56-14.04-35.56-35.6c0-14.04,5.59-30.92,16.51-41.52c7.87-7.64,18.42-12.32,30.74-12.32
		C698.76,392.64,712.98,406.68,712.98,428.24z M679.45,456.58c6.22-6.04,9.91-18.36,9.91-26.73c0-10.59-4.95-16.75-13.97-16.75
		c-4.57,0-8.38,1.72-11.69,5.05c-6.22,6.04-9.91,18.48-9.91,26.73c0,10.72,4.95,16.75,13.97,16.75
		C672.21,461.63,676.15,459.78,679.45,456.58z"/>
	<path class="st7" d="M748.16,454.24h-1.4h-5.84l-6.35,26.24H711.2l21.72-86.24h27.05c13.59,0,22.61,2.83,28.2,8.25
		c4.57,4.44,6.86,10.47,6.86,17.62c0,8.87-2.92,16.51-8.51,22.05c-3.18,3.08-7.62,6.16-14.86,8.5l11.18,29.81h-25.4L748.16,454.24z
		 M754.38,436.25c5.72,0,10.03-1.35,12.96-4.07c2.29-2.34,3.68-6.04,3.68-9.49c0-2.71-0.89-4.68-2.54-6.16
		c-1.78-1.85-4.83-2.71-9.14-2.71h-8.13l-5.46,22.42H754.38z"/>
	<path class="st7" d="M812.42,394.24h23.5l8.76,32.28l24.77-32.28h25.78l-21.72,86.24h-23.24l12.07-49.03l-26.29,32.65h-0.38
		l-9.91-32.4l-12.07,48.78H790.7L812.42,394.24z"/>
	<path class="st7" d="M932.69,393.75h23.62l9.27,86.73h-24.13l-1.14-15.77h-26.8l-8.89,15.77h-24.89L932.69,393.75z M938.92,446.6
		l-1.27-25.38l-13.34,25.38H938.92z"/>
	<path class="st7" d="M1008.13,454.24h-1.4h-5.84l-6.35,26.24h-23.37l21.72-86.24h27.05c13.59,0,22.61,2.83,28.2,8.25
		c4.57,4.44,6.86,10.47,6.86,17.62c0,8.87-2.92,16.51-8.51,22.05c-3.18,3.08-7.62,6.16-14.86,8.5l11.18,29.81h-25.4L1008.13,454.24z
		 M1014.36,436.25c5.72,0,10.03-1.35,12.96-4.07c2.29-2.34,3.68-6.04,3.68-9.49c0-2.71-0.89-4.68-2.54-6.16
		c-1.78-1.85-4.83-2.71-9.14-2.71h-8.13l-5.46,22.42H1014.36z"/>
</g>
<g>
	<path class="st7" d="M551.43,207.95c-1.33-1.88-3.93-2.32-5.81-0.99c-1.88,1.33-2.32,3.93-0.99,5.81l6.27,8.84
		c0.81,1.14,2.1,1.76,3.4,1.76c0.83,0,1.68-0.25,2.41-0.77c1.88-1.33,2.32-3.93,0.99-5.81L551.43,207.95z"/>
	<path class="st7" d="M598.96,185.8c-3.32-15.82-12.54-29.51-25.96-38.53l-14.58-9.8c-5.85-3.93-13.7-3.08-18.59,1.9V89.15
		c0-6.59-4.49-12.19-10.93-13.62c-4.15-0.92-8.44,0.08-11.75,2.74c-3.32,2.66-5.22,6.63-5.22,10.88v64.62
		c0,8.47,2.59,16.59,7.49,23.49l7.43,10.47c0.81,1.14,2.1,1.76,3.4,1.76c0.83,0,1.68-0.25,2.41-0.77c1.88-1.33,2.32-3.93,0.99-5.81
		l-7.43-10.47c-3.89-5.49-5.95-11.94-5.95-18.67V89.15c0-1.71,0.77-3.31,2.1-4.38c1.33-1.07,3.06-1.47,4.73-1.1
		c2.59,0.57,4.4,2.83,4.4,5.48v51.26c0,7.26,2.67,14.17,7.51,19.55c0.21,0.25,0.42,0.5,0.65,0.73c2.77,2.93,6.02,6.39,9.09,9.65
		l4.29,4.57c0.01,0.01,0.03,0.03,0.04,0.04c3.67,3.9,6.38,6.79,6.43,6.85c1.57,1.68,4.21,1.76,5.89,0.19
		c1.68-1.58,1.76-4.21,0.18-5.89c-0.08-0.08-4.95-5.28-10.53-11.2l-9.56-10.17c-0.02-0.03-0.05-0.05-0.07-0.08
		c-2.24-2.68-2.21-6.56,0.14-9.22c2.08-2.34,5.6-2.79,8.2-1.05l14.58,9.8c11.61,7.8,19.58,19.64,22.45,33.32l6.83,32.54
		c0.41,1.96,2.14,3.31,4.07,3.31c0.28,0,0.57-0.03,0.86-0.09c2.25-0.47,3.7-2.68,3.22-4.93L598.96,185.8z"/>
	<path class="st7" d="M542.78,195.77c-1.34-1.87-3.94-2.31-5.81-0.97s-2.31,3.94-0.97,5.81l0.03,0.04c0.81,1.14,2.09,1.75,3.4,1.75
		c0.84,0,1.68-0.25,2.42-0.78c1.87-1.34,2.31-3.94,0.97-5.81L542.78,195.77z"/>
	<path class="st7" d="M720.08,78.27c-3.32-2.66-7.6-3.66-11.75-2.74c-6.43,1.43-10.93,7.03-10.93,13.62v50.21
		c-4.89-4.98-12.74-5.83-18.59-1.9l-14.58,9.8c-13.42,9.02-22.64,22.7-25.96,38.53l-6.83,32.54c-0.47,2.25,0.97,4.46,3.22,4.93
		c0.29,0.06,0.58,0.09,0.86,0.09c1.93,0,3.66-1.35,4.07-3.31l6.83-32.54c2.87-13.69,10.84-25.52,22.45-33.32l14.58-9.8
		c2.6-1.75,6.13-1.3,8.2,1.05c2.35,2.65,2.38,6.53,0.14,9.21c-0.03,0.03-0.05,0.06-0.08,0.09c0,0-20.01,21.29-20.08,21.37
		c-1.58,1.68-1.49,4.31,0.18,5.89c1.68,1.58,4.31,1.49,5.89-0.19c0.06-0.06,17.09-18.17,19.85-21.1c0.23-0.24,0.44-0.49,0.65-0.73
		c4.84-5.38,7.51-12.29,7.51-19.55V89.15c0-2.65,1.81-4.91,4.4-5.48c1.67-0.37,3.4,0.03,4.73,1.1c1.34,1.07,2.1,2.67,2.1,4.38v64.62
		c0,6.73-2.06,13.18-5.95,18.67l-31.48,44.35c-1.33,1.88-0.89,4.48,0.99,5.81c0.73,0.52,1.57,0.77,2.41,0.77
		c1.3,0,2.59-0.61,3.4-1.76l31.48-44.35c4.9-6.9,7.49-15.03,7.49-23.49V89.15C725.3,84.9,723.4,80.93,720.08,78.27z"/>
	<path class="st7" d="M658.95,141.55c2.3,0,4.17-1.87,4.17-4.17v-14.97c0-0.52-0.02-1.03-0.05-1.54h19.2c2.3,0,4.17-1.87,4.17-4.17
		v-7.78c0-9.1-6.18-16.94-15.04-19.05l-7.41-1.77v-1.33c4.82-3.38,7.98-8.97,7.98-15.28v-9.64c0-10.28-8.37-18.65-18.65-18.65
		c-4.62,0-8.84,1.69-12.1,4.48c-3.63-8.89-12.36-15.17-22.54-15.17c-10.19,0-18.93,6.3-22.56,15.2c-3.27-2.81-7.51-4.51-12.14-4.51
		c-10.28,0-18.65,8.37-18.65,18.65v0.64v9c0,6.32,3.16,11.91,7.98,15.28v1.33l-7.41,1.77c-8.85,2.11-15.03,9.95-15.03,19.05v7.78
		c0,2.3,1.87,4.17,4.17,4.17h19.15c-0.03,0.51-0.05,1.01-0.05,1.53v14.98c0,2.3,1.87,4.17,4.17,4.17h25.05
		c2.3,0,4.17-1.87,4.17-4.17c0-2.3-1.87-4.17-4.17-4.17h-4.31v-8.61c0-2.3-1.87-4.17-4.17-4.17s-4.17,1.87-4.17,4.17v8.61h-8.24
		V122.4c0-8.04,5.46-14.96,13.27-16.83l11.44-2.74l7.65,17.41c0.67,1.51,2.16,2.49,3.81,2.49h0c1.65,0,3.15-0.98,3.81-2.49
		l7.65-17.39l11.4,2.72c7.82,1.87,13.29,8.79,13.29,16.83v10.81h-8.24v-8.61c0-2.3-1.87-4.17-4.17-4.17s-4.17,1.87-4.17,4.17v8.61
		h-4.72c-2.3,0-4.17,1.87-4.17,4.17s1.87,4.17,4.17,4.17H658.95z M605.41,90.99c-1.07-0.47-2.19-0.85-3.34-1.13l-7.44-1.78v-1.3
		c1.34-0.94,2.56-2.05,3.61-3.3c1.86,2.87,4.31,5.32,7.17,7.19V90.99z M573.66,71.49V69.5h5.82c5.1,0,10.14-1.01,14.82-2.95v4.94
		c0,5.69-4.63,10.32-10.32,10.32C578.29,81.8,573.66,77.18,573.66,71.49z M602.67,70.27v-4.4h5.7c6.61,0,12.89-2.46,17.71-6.84
		l8.59,5.05v6.8c-0.32,8.54-7.37,15.4-15.99,15.4C609.85,86.28,602.67,79.1,602.67,70.27z M631.85,91v-0.28
		c2.89-1.87,5.35-4.32,7.23-7.2c1.05,1.24,2.25,2.33,3.58,3.26v1.3l-7.44,1.78C634.05,90.14,632.93,90.53,631.85,91z M643,71.49
		v-0.61c0.01-0.2,0.02-0.41,0.02-0.61v-3.71c4.68,1.94,9.7,2.94,14.8,2.94h5.82v1.98c0,5.69-4.63,10.32-10.32,10.32
		S643,77.18,643,71.49z M653.32,51.53c5.46,0,9.94,4.26,10.29,9.64h-5.79c-4.87,0-9.66-1.17-13.97-3.41
		C645.43,54.1,649.08,51.53,653.32,51.53z M602.67,56.85c0-8.83,7.18-16.01,16.01-16.01c7.96,0,14.58,5.84,15.81,13.46l-7.02-4.12
		c-1.75-1.03-4-0.64-5.31,0.92c-3.43,4.09-8.46,6.44-13.79,6.44h-5.7V56.85L602.67,56.85z M583.98,51.53c4.24,0,7.89,2.57,9.47,6.23
		c-4.31,2.23-9.1,3.41-13.97,3.41h-5.79C574.03,55.8,578.52,51.53,583.98,51.53z M593.79,97.46c-8.2,1.96-14.64,7.68-17.71,15.08
		h-16.89v-3.62c0-5.23,3.55-9.73,8.64-10.94l10.61-2.54c1.88-0.45,3.2-2.12,3.2-4.05v-1.4c0.77,0.1,1.55,0.15,2.34,0.15
		c0.79,0,1.56-0.05,2.32-0.15v1.19c0,0.06,0,0.12,0,0.19c0,1.37,0.67,2.71,1.91,3.51c0.47,0.3,0.97,0.5,1.48,0.6l6.22,1.49
		L593.79,97.46z M618.64,108.2l-4.89-11.12v-2.97c1.59,0.33,3.24,0.5,4.92,0.5c1.66,0,3.28-0.17,4.84-0.49v2.99L618.64,108.2z
		 M643.43,97.47l-2.09-0.5l6.25-1.5c0.52-0.1,1.03-0.3,1.5-0.6c1.23-0.8,1.9-2.14,1.9-3.5c0-0.03,0-0.07,0-0.1v-1.28
		c0.76,0.1,1.53,0.15,2.32,0.15c0.79,0,1.57-0.06,2.34-0.15v1.4c0,1.93,1.32,3.61,3.2,4.05l10.61,2.54
		c5.09,1.22,8.64,5.72,8.64,10.94v3.62h-16.95C658.08,105.14,651.64,99.43,643.43,97.47z"/>
	<path class="st7" d="M618.62,133.22c-1.1,0-2.17,0.44-2.95,1.22c-0.78,0.78-1.22,1.85-1.22,2.95c0,1.1,0.44,2.17,1.22,2.95
		c0.78,0.78,1.85,1.22,2.95,1.22c1.1,0,2.17-0.45,2.95-1.22c0.78-0.78,1.22-1.85,1.22-2.95c0-1.1-0.45-2.17-1.22-2.95
		C620.79,133.66,619.72,133.22,618.62,133.22z"/>
	<path class="st7" d="M618.62,24.57c2.3,0,4.17-1.87,4.17-4.17v-6.24c0-2.3-1.87-4.17-4.17-4.17s-4.17,1.87-4.17,4.17v6.24
		C614.45,22.7,616.32,24.57,618.62,24.57z"/>
	<path class="st7" d="M597.38,29.49c0.81,0.81,1.88,1.22,2.95,1.22c1.07,0,2.13-0.41,2.95-1.22c1.63-1.63,1.63-4.27,0-5.89
		l-4.37-4.37c-1.63-1.63-4.27-1.63-5.89,0c-1.63,1.63-1.63,4.27,0,5.89L597.38,29.49z"/>
	<path class="st7" d="M636.85,30.79c1.07,0,2.13-0.41,2.95-1.22l4.34-4.34c1.63-1.63,1.63-4.27,0-5.89c-1.63-1.63-4.27-1.63-5.89,0
		l-4.34,4.34c-1.63,1.63-1.63,4.27,0,5.89C634.72,30.38,635.78,30.79,636.85,30.79z"/>
</g>
</svg>
